<svg xmlns="http://www.w3.org/2000/svg" width="1143" height="472" viewBox="0 0 1143 472"><defs><style>.a{fill:#cc313e;}</style></defs><path class="a" d="M120.41,450.22c-19.54,0-38-10-49.37-25.46-10.28-14.14-15.17-33.17-15.17-50.39,0-29.06,16.2-57.86,48.34-57.86,29.32,0,49.37,24.95,58.37,50.66l5.4-1.55-14.66-73c-2.82,4.89-6.94,6.94-12.85,6.94a59.22,59.22,0,0,1-9.52-1c-10.79-1.8-19.28-3.85-37-3.85-51.68,0-94.62,29.82-94.62,84.85,0,62.22,52.19,92.57,108.76,92.57a149.15,149.15,0,0,0,18.51-1c5.92-.52,14.66-1.55,19-1.55,6.17,0,9.26.78,11.57,4.12l20.31-56.31-5.91-2.06C163.1,436.85,143.55,450.22,120.41,450.22Z"/><path class="a" d="M269.8,451c-17.74,0-18.77-7.46-18.77-15.68V330.91c0-18,3.6-25.71,14.14-25.71l-.26-6.43H184.18v6.43c10.54,0,14.14,7.71,14.14,25.71V435.82c0,18-3.6,25.71-14.14,25.71V468H300.66c2.57,0,6.17,0,9.25.26,3.34.26,6.43,1.28,7.72,3.86L339,400.34l-5.15-1.8C323.54,424.51,299.88,451,269.8,451Z"/><path class="a" d="M871.21,451c-20.31,0-24.94-6.68-24.94-24.17V371h6.94c20.58,0,28.29,3.35,33.69,8.23a50.5,50.5,0,0,1,12.6,19l5.14-.51-11.31-65.31-5.15.77c0,18.51-9.25,20.82-33.68,20.82h-8.23v-8.22c0-25.46,1.55-30.09,23.66-30.09,25.71,0,47.82,14.92,55.28,39.86l5.66-1.8-13.12-59.14c-3.08,3.34-6.42,4.11-21.6,4.11H779.42v6.43c10.54,0,14.14,7.71,14.14,25.71V435.82c0,18-3.6,25.71-14.14,25.71V468H907c6.95,0,12.35.52,15.43,4.12l21.86-66.86-5.4-2.05C925.21,431.19,904.13,451,871.21,451Z"/><path class="a" d="M1116.51,440.45c-9-27.51-23.91-53.23-42.94-71.48,17-8.74,36.51-22.89,36.51-44.23,0-24.43-29.57-26-46.54-26H947.83v6.43c10.55,0,14.15,7.71,14.15,25.71V435.82c0,18-3.6,25.71-14.15,25.71V468h80.74v-6.43c-10.54,0-14.14-7.71-14.14-25.71v-45l9-3.08c10.8,12.6,36.51,49.62,36.51,65.31,0,6.94-4.63,8.48-10.54,8.48V468h86.39v-6.43C1124.48,461.53,1119.34,449.45,1116.51,440.45Zm-102.08-68.4V334c0-15.17,5.66-18.26,19.54-18.26,12.86,0,21.6,6.69,21.6,19.8C1055.57,357.4,1031.92,367.68,1014.43,372.05Z"/><path class="a" d="M329.2,164.61c15.68-12.85,16.19-30.08,16.19-48.85V38.11c0-18,3.09-25.71,13.63-25.71V6H279.31V12.4c10.55,0,13.37,7.71,13.37,25.71v75.08c0,24.17-.77,27-3.6,32.91-3.85,8-13.11,11.83-21.59,11.83-18.26,0-29.83-15.43-29.83-32.66a48.45,48.45,0,0,1,4.63-19.79l-4.63-2.83-30.6,51.94c18.77,17,45.25,24.68,70.45,24.68C295,179.27,315.57,175.93,329.2,164.61Z"/><path class="a" d="M773.55,249.37c-11.35,23.36-28.92,39.85-56.35,39.85-16.93,0-20.79-5.57-20.79-20.14v-46.5h5.79c17.14,0,23.57,2.79,28.07,6.86a42.08,42.08,0,0,1,10.5,15.86l4.28-.43-9.42-54.43-4.29.64c0,15.43-7.71,17.36-28.07,17.36h-6.86v-6.86c0-21.21,1.29-25.07,19.72-25.07,21.42,0,39.85,12.43,46.07,33.22l4.71-1.5-7.33-33.07H805.9v-6.43c-10.54,0-15.68-7.72-15.68-25.71V90.3l9-8.22c9.51,11.31,18.25,23.14,24.68,36.25,4.63,9.26,13.63,31.88,13.63,41.66,0,6.94-6.17,8.48-11.83,8.74v6.17h87.68v-6.17c-12.85,0-17-9.52-20.83-20.06C879.44,110.88,864.53,78,836,48.91L849.1,37.59c14.14-11.82,29.83-22.37,48.34-25.19V6H822.87V12.4c7.72,0,12.09,3.34,12.09,9.51,0,6.43-12.86,18-17.23,22.37L790.22,69V39.39c0-18.51,3.6-26.74,14.14-27L804.1,6H723.37V12.4c10.54,0,14.14,7.71,14.14,25.71V143c0,8.82-.87,15.17-3,19.35H701l13.66-37.87-5.92-2c-8.48,21.59-28,35-51.17,35-19.54,0-38-10-49.36-25.45C597.89,117.82,593,98.79,593,81.56c0-29.05,16.19-57.85,48.33-57.85,29.32,0,49.37,24.94,58.37,50.65l5.4-1.54L690.46-.2c-2.83,4.88-7,6.94-12.86,6.94a60.12,60.12,0,0,1-9.51-1c-10.8-1.8-19.29-3.86-37-3.86-51.68,0-94.62,29.83-94.62,84.86,0,35.51,17,60.63,42.12,75.66H561.21v5.36c8.79,0,12.64,6.43,12.64,21.43v11.57H531.21V189.16c0-6,.63-10.61,1.93-14h9.21v-6.43a16.58,16.58,0,0,1-2.41-.46,13.69,13.69,0,0,1,3.91-.54v-5.36H531.17c-5.16-6.23-7.66-15.7-10.16-22.7C503.27,87.22,480.9,22.17,480.9,18.82c0-4.37,2.05-5.91,5.91-6.42V6H411.73V12.4c3.6.51,5.66,2.57,5.66,6.42,0,3.6-2.32,9-4.37,14.66L372.65,139.42c-3,7.93-6.52,16.75-12.48,22.75-6.59-.45-8.6-1.58-9.59-3.23l-10.5,48.86,4.5.86c5.14-19.5,20.14-30.22,40.28-30.65v97.5c0,15.43-3,22.29-16.92,22.5v.76H341.28v6.43c10.54,0,14.14,7.71,14.14,25.71V435.82c0,18-3.6,25.71-14.14,25.71V468h81v-6.43c-10.55,0-14.15-7.71-14.15-25.71V330.91c0-18,3.6-25.71,14.15-25.71v-1.83h12.85v1.83c10.54,0,13.63,7.71,13.63,25.71V435.82c0,18-3.09,25.71-13.63,25.71V468h82v-6.43c-10.54,0-15.68-7.71-15.68-25.71V390.31c72-17.74,98.74-33.17,98.74-62.74,0-11.34-6.41-19.88-16-24.2h23.75v1.83c10.54,0,13.63,7.71,13.63,25.71V435.82c0,18-3.09,25.71-13.63,25.71V468h82v-6.43c-10.54,0-15.68-7.71-15.68-25.71V390.31c72-17.74,98.73-33.17,98.73-62.74a25.48,25.48,0,0,0-12.62-22.4l17.68-54.09ZM645.2,179.27c2.21,0,4.41-.05,6.62-.13a63.78,63.78,0,0,1,.67,10v87.42c0,15-3,21.43-11.79,21.43v.76H629.57V298c-8.79,0-11.79-6.43-11.79-21.43V189.16A53,53,0,0,1,618.89,177,150.29,150.29,0,0,0,645.2,179.27Zm-71.35,35.6v60.64c0,15.86-3,22.29-12.64,22.5v1.11c-6.18-.32-12.4-.35-17.36-.35V298c-9.64-.21-12.64-6.64-12.64-22.5V214.87ZM431.53,40.17,452.61,106c-10.28-7.2-26-12.34-39.08-12.34ZM398.1,136.59l9.26-26.23c23.91.52,60.42,16.2,60.42,43.45a15,15,0,0,1-3.33,9.81l-.94-4.68c-1.93,2.57-4.93,3.43-19.08,3.43H394.07a13.13,13.13,0,0,1-.85-5C393.22,151.76,396.3,142,398.1,136.59Zm47.62,162.18V298c-13.93-.21-16.93-7.07-16.93-22.5V178c21,1.29,33,11.57,40.29,30.65l4.28-.86-6.58-32.64h18.88c1.13,3.39,1.62,8,1.62,14v87.42c0,15-3,21.43-11.78,21.43v.76Zm55.75,72.77v-34.2c0-14.91.77-21.6,18.26-21.6,13.11,0,26,5.4,26,20.32C545.7,357.14,519,367.68,501.47,371.54Zm172.79,0v-34.2c0-14.91.77-21.6,18.25-21.6,13.12,0,26,5.4,26,20.32C718.48,357.14,691.74,367.68,674.26,371.54Z"/></svg>