<svg xmlns="http://www.w3.org/2000/svg" width="666" height="472" viewBox="0 0 666 472"><defs><style>.a{fill:#0c0802;}</style></defs><path class="a" d="M596.8,188.57c-8-17.72-18-8.24-24.58-3.52-6.72,4.58-77.69-85.82-77.69-85.82l21.79-30-21.49,9.28L480.29,62.35,500.74,18l-60,50.14s-84.88-5.29-128.12,35.68-48.75,93.77-50,147.9c-.38,16.27-1.07,55.25-1.6,86.18-10.16.85-23.08-3-30.16-24.46-8.94-27.12,10.08-74,9.78-120.84-.25-40.6-24.66-76.94-67.06-83.18-38.08-5.61-73.21,10.35-93.65,44.91-10.72,18.13-15.08,45.29-11.7,65.19,0,0,8.54-13.44,12.46-14.92,0,0-12.67,23.46,2.58,51,0,0,.62-33.94,29.16-53.19,0,0-9.38,8.11-9.73,20.53,0,0,32.21-38.84,78.54-19.78,32.91,13.55,28.59,38.65,31.74,67.34,3.92,35.68,8.9,75.48,47.93,73.78-.36,20.9-.62,36.74-.62,36.74l-.85,59.18S208,439.23,191.59,439s-32.32-.68-58-8.9c-29.45-9.44-45.6-21.16-60.73-4C62,438.42,71.13,454,71.13,454H270.18l1.88-94.31,90.19,1.3,67.28.45,4.1,92.56H554.85s-1.08-32-27.49-26.09c-26.39,6.16-78.27,15.7-83.88,10.1-3.73-52-1.61-109.16-13.94-173.15L461,296.6l8.14-3.26,36.22-17.43,11.4,1.53,1.67,16,1.62,14.44,6.5-6.38,0-20.76,11.89,25,1.3,15,4.92-12.78s-6.52-17.57-13-31.95a23,23,0,0,0-12.52-11.67,17.26,17.26,0,0,0-8.6-.94c-2.77.43-4.95,1.88-7.47,3-2,.82-3.88,1.75-5.82,2.63l-33,14.93-41.59-49.22c-1.16-4.46-2.39-8.94-3.73-13.47-3.83-13-8.86-25.76-12.12-39-1.27-5.12-3.39-11.69-2.33-17.06,1.29-6.55,11.59-.09,14.92,1.47,10,4.67,18.81,11.35,27.7,17.78,9.78,7.07,19.32,14.47,29,21.65q22.25,16.5,44.26,33.28l3.23,2.46s14.77,6.54,21.45-2.82c4.5-6.43,6.75-7.77,7.74-8l-14.15-1.78-1.43-14.32-13.15-5-3.17-9.53-14.67-1.9.21-14.33-16.31-5-1.55-9.65-13.11-3.31-9.65-11.31,9.93-7.87-13-.18s-5.2-1.45-2.9-16l1.53-9.61s4,10,16.19,16.21c8.43,4.29,8.11,11.36,8.11,11.36l11.48-1.45-.21,14.3,13.22-4.62,3.11,9.74,11.48-3L521.25,178l16.52.24L544.14,191l9.92.14,1.43,14.42,9.85-4.63-1.7,9.46S604.71,206.31,596.8,188.57Zm-129.91-100,7.05,21.67C458.53,101.31,466.89,88.58,466.89,88.58Z"/></svg>