<svg xmlns="http://www.w3.org/2000/svg" width="666" height="472" viewBox="0 0 666 472"><defs><style>.a{fill:#fff;}</style></defs><path class="a" d="M173.33,466,173,453.13c140.06-3.72,240.39-10.44,346.27-7.41l-.37,19.3c-105.64-3-205.77-2.72-345.55,1"/><path class="a" d="M114.6,112l-54.86,2.51L77.3,13.05l-42-7L20.61,212.43l12,11.15s74.41,11.58,92.24-14.06c21.31-30.65,15.08-55.29,15.08-55.29Z"/><polygon class="a" points="121.03 276.09 18.36 279.98 51.34 340.06 10.44 388.62 54.77 393.24 62.77 376.42 73.1 393.24 138.89 393.24 104.1 340.06 121.03 276.09"/><path class="a" d="M362.69,278.76c-40.63-4.27-60,23.76-60.83,60.95-.38,16,7.59,53.1,51.88,54.2,13.58.34,28.32-5.54,34.71-9.22l8.37-15.43-46.89-6.56,53.34-20.29s.05-59.36-40.58-63.65"/><path class="a" d="M212,282.88c-24.27,2.63-49.56,26.35-49.56,54.15s10.42,62.65,70.82,58c12.71-1,20.63-11,24.92-18.73l-68.38-29.94L262.23,306S247.14,279.06,212,282.88"/><path class="a" d="M509.74,318.45,520,288l-21-5.82s-37.56-5.19-46.49,22.46c-7.4,22.88,11.43,40.11,21.17,47.3L452.52,387.6l42.08,8.26s32.62-1.69,40.69-32.41c4.24-16-2.2-31.86-2.2-31.86Z"/><path class="a" d="M650.43,326.94l-20.35-11.4,22-21.72-19.29-17.7s-40.31-6.67-49.59,15.5c-11.36,27.11,4.34,45.58,12.39,54.62l-24.83,6.91s-1.87,11.12,15.76,28.75c13.85,13.85,57.87,13.9,65.56-15.63,7.76-29.77-1.7-39.33-1.7-39.33"/><polygon class="a" points="582.38 187.77 583.01 189.38 602.18 226.72 655.78 217.47 621.16 157.81 643.79 130.96 612.96 124.47 594.17 122.95 614.43 11.66 568.53 15.09 552.54 225.23 575.93 223.18 582.38 187.77"/><path class="a" d="M249.49,120.22A66.73,66.73,0,0,0,247,103.33l10.13-2.81A77.9,77.9,0,0,1,260,119.69Z"/><path class="a" d="M222.35,129.09a140.35,140.35,0,0,1-9.63-15.35l-.2-.39,9.37-4.75.2.4c1.9,3.74,8,12.33,10.22,16.67Z"/><path class="a" d="M388.73,130.28c-1.07-4.57-8.88-13.8-10.53-17.11l9.44-4.65c1.87,3.75,10,13.71,11.33,19.34Z"/><path class="a" d="M432.33,121.35H421.8a210.31,210.31,0,0,1,2.61-26.87l10.37,1.73a207.51,207.51,0,0,0-2.45,25.14"/><path class="a" d="M461.13,132l-9-5.42c3.12-5.19,12-14.69,16.27-18.14l6.57,8.22c-3.33,2.66-11.34,11.19-13.82,15.34"/><path class="a" d="M284.48,127.06l-9.82-3.79c.9-2.29,1.58-4.16,2.15-5.75a59.37,59.37,0,0,1,2.79-6.9l9.41,4.73a51.47,51.47,0,0,0-2.31,5.74c-.62,1.66-1.31,3.6-2.22,6"/><path class="a" d="M269.5,140.72c-.75-.1-1.47-.17-2.2-.25,15.77,10.6,19.05,42.56,7.88,61.45-2.89,4.92-6,8.16-9.11,10,31.52-2.79,57.59-18.69,57.59-33.44,0-12.63-21.52-33.53-54.16-37.77"/><path class="a" d="M253.33,140.55c-12.54,1.66-35.21,6-47.54,13.78,0,0-23.18,18.26-34.14,30.85,14.19,11.8,45,21.91,66.95,25.69a103.24,103.24,0,0,0,14.15,1.42c-19.09-9.45-20.44-56.22.58-71.74"/><path class="a" d="M426.94,140c-.95,0-5.53,0-6.51,0-12.08,0-35.41,9.25-35.41,9.25-16.59,8.41-28.9,20.81-28.59,29.58.58,16,30.29,31.47,62.57,31.47a39.28,39.28,0,0,1-7.19-6.17c-12.46-14.45-2.49-52.17,15.13-64.13"/><path class="a" d="M437.57,140.59C452.1,147.46,459.39,173,454.26,188c-3.56,10.18-10.77,19.35-19.1,23.28,1.83,0,3.61-.07,5.38-.18,18-1.09,53.69-11.26,67-32.65-21.48-21.48-34.2-34.91-70-37.83"/></svg>