<svg xmlns="http://www.w3.org/2000/svg" width="341" height="472" viewBox="0 0 341 472"><defs><style>.a{fill:#fd219a;stroke:#de219a;stroke-miterlimit:10;stroke-width:1.4px;}</style></defs><path class="a" d="M181.73,416.36c-2.66,7.14-8.81,12.15-16,12.15-9.61,0-17.39-9-17.39-20,0-6.43,2.63-13.69,6.72-17.36a11.67,11.67,0,0,1,2.69-1.79,6,6,0,0,1,2.18-.4h23.89l-.41-10.7h-9.07s-12.31-.41-16.61,0c-11.52,1.08-19.58,16.2-19.58,30.25,0,17.55,12.35,31.78,27.58,31.78,12.86,0,23.67-10.16,26.71-23.89Z"/><path class="a" d="M237,399.09a9.42,9.42,0,0,0-9.13-9.68H210.58v51H198.93V331.9h11.65v45.56h16.88s5.85-.2,7.79,0c9.1,1,14.2,10.32,14.2,20.4v42.41H237.36Z"/><path class="a" d="M120.89,416.39c-2.66,7.14-8.82,12.14-16,12.14-9.6,0-17.39-9-17.39-20,0-6.43,2.63-13.69,6.72-17.36a11.22,11.22,0,0,1,2.7-1.79,5.94,5.94,0,0,1,2.17-.4H123l-.41-10.71h-9.06s-12.32-.4-16.61,0c-11.52,1.09-19.59,16.21-19.59,30.26,0,17.55,12.35,31.77,27.58,31.77,12.87,0,23.67-10.15,26.72-23.88Z"/><path class="a" d="M297.53,378.06H261v10.86h31.52a5,5,0,0,1,5,5v5.85a21,21,0,1,0,0,28.18v12.28h10.86v-51.5a11,11,0,0,0-1.84-5.89C303.53,378.44,298.21,378.1,297.53,378.06ZM282,424.22a10.32,10.32,0,1,1,10.32-10.32A10.31,10.31,0,0,1,282,424.22Z"/><path class="a" d="M57.67,378.06H21.11v10.86H52.64a5,5,0,0,1,5,5v5.85a21,21,0,1,0,0,28.18v12.28H68.53v-51.5a10.87,10.87,0,0,0-1.83-5.89C63.68,378.44,58.36,378.1,57.67,378.06ZM42.11,424.22A10.32,10.32,0,1,1,52.43,413.9,10.32,10.32,0,0,1,42.11,424.22Z"/><rect class="a" x="20.52" y="358.25" width="288.47" height="10.12"/><path class="a" d="M273.52,125.78c-8.09-23.43-25.06-35.69-27-37-22.23-15.36-39.91-17.58-52.37-15.66a69,69,0,0,0,2.91-9,86.17,86.17,0,0,0,2.12-30.35L199,31.37l-2.43-.26c-13.51-1.46-24.34,1-32.17,7.17-9.87,7.82-14.1,21.14-14.92,35.76-13.24-3.44-25.08-.51-35,2.92-17.1,5.89-24.48,12.15-32.29,18.78L80.66,97l-.37.35-1.78,2C73.7,104.51,67.12,111.69,63.7,119c-15.59,33.52-3,68.12,3.19,81.44l.09.18a212.5,212.5,0,0,0,16.26,26,215,215,0,0,0,13.94,17.11,46.67,46.67,0,0,0,1.46,12.07c2.12,7.21,7.35,13.87,12.9,20.92.7.88,1.41,1.78,2.11,2.69,12.51,16.06,23.36,26.32,33.2,31.38,3.92,2,9.47,3.17,17.49,3.61,1.57.09,3.11.13,4.6.13,8.37,0,15.43-1.34,19.82-3.8,12.37-7,20.26-16.43,26.59-24,1.66-2,3.22-3.86,4.69-5.47,7.85-8.6,13.45-19,15.12-23.6a38.81,38.81,0,0,0,2.09-15.81,115.07,115.07,0,0,0,23.19-28.31,122.56,122.56,0,0,0,13.2-34.63C276.63,165.3,280.71,146.63,273.52,125.78Zm-6.09,46.1c-9.67,2.12-21.67,3.56-39.63,0a108.72,108.72,0,0,1-40.43-17.11,16.5,16.5,0,0,0,2.11-6.08,110.89,110.89,0,0,0,41.71,1.43c17.68-2.75,29.54-8.08,37.59-12.78C271.23,150.11,269.51,161.78,267.43,171.88Zm-89.59.92A226.06,226.06,0,0,0,228,210.75l.25,5.18H215.07a18.34,18.34,0,0,0-35.57,0H154.38a18.34,18.34,0,0,0-35.57,0H104.49l0-6.41,2.55-.93c1.15-.35,2.29-.73,3.42-1.13l0-.11c1.85-.7,3.54-1.36,4.58-1.82,24.45-10.8,37.35-24,49-40.53a25.69,25.69,0,0,0,3.65.28,26.66,26.66,0,0,0,3-.19C173,167.72,175.36,170.31,177.84,172.8ZM167.6,157.73c-8,0-14.5-5-14.5-11.27s6.5-11.27,14.5-11.27,14.5,5.05,14.5,11.27S175.59,157.73,167.6,157.73ZM65.88,135.66c8.06,4.85,20.16,10.52,38.61,13.4a111.47,111.47,0,0,0,41.13-1.3,16.47,16.47,0,0,0,1.92,6.47,108.7,108.7,0,0,1-39.66,16.59c-19.88,4-32.46,1.78-42.66-.67A84.89,84.89,0,0,1,65.88,135.66Zm92-76.21c1,3,1.93,6.14,2.7,9.25a118,118,0,0,1,2.86,16.84,95.34,95.34,0,0,0-2.94,27.88c0,.58.08,1.16.12,1.74A138.33,138.33,0,0,1,155.36,81,73.52,73.52,0,0,1,157.88,59.45Zm8.67,54a39.92,39.92,0,0,1,11.6-22.26c-1.48,3-3,6.43-4.53,10.47a111.33,111.33,0,0,0-6,22.06A89.54,89.54,0,0,1,166.55,113.47ZM242.25,95a70,70,0,0,1,24.13,33.27c.17.47.3.94.45,1.42-7.44,4.6-18.89,10.17-36.8,13a104.3,104.3,0,0,1-41.45-1.93c-2.3-6.1-8.15-10.83-15.46-12.44a105.17,105.17,0,0,1,6.15-24.45A126.33,126.33,0,0,1,188,85.48c.69-1.24,1.37-2.48,2-3.73C200.9,78.54,218.43,78.52,242.25,95ZM186.6,75.31c-.6,1.23-1.23,2.44-1.87,3.63v0a48.46,48.46,0,0,0-17,15.43,99.22,99.22,0,0,1,6.87-22.8l.09.09a70.68,70.68,0,0,1,8.69-7.24A69.11,69.11,0,0,1,192,59.23c-.24,1.15-.5,2.29-.79,3.43a64,64,0,0,1-4.43,12.2l-.33.11Zm7-34.3a80.37,80.37,0,0,1-.46,11,76.68,76.68,0,0,0-12,6.6A133.1,133.1,0,0,1,193.62,41Zm-25.51,2c5.26-4.17,12.33-6.27,21.07-6.27h.14A131.58,131.58,0,0,0,167.63,72.6q-.54-2.7-1.18-5.35a123.74,123.74,0,0,0-5.18-16A27.44,27.44,0,0,1,168.11,43Zm-84,61.38c.59-.64,1.14-1.24,1.65-1.81L87,101.5c7.57-6.43,14.11-12,29.86-17.4,9.78-3.37,20.47-5.94,32.45-2.24a144.22,144.22,0,0,0,9,45.9c.19.49.37,1,.56,1.4a20.71,20.71,0,0,0-11.86,10.51,103.86,103.86,0,0,1-41.4,1.92c-18.53-2.88-30.13-8.74-37.54-13.42q1.06-3,2.44-5.95C73.47,115.93,79.6,109.26,84.07,104.39ZM67,178.29a92.34,92.34,0,0,0,20.27,2.28,112.88,112.88,0,0,0,22.11-2.34,116.38,116.38,0,0,0,43-18.17,22,22,0,0,0,4,2.57c-10.57,14.55-22.58,26.33-44.46,36-1.45.65-4.51,1.79-7.33,2.82a75.44,75.44,0,0,1-26.65,3.33c-1.46-2.5-2.88-5-4.23-7.56A114.17,114.17,0,0,1,67,178.29Zm15.67,34.14c1.89,0,3.77-.09,5.63-.23a83.79,83.79,0,0,0,8.63-1.11l.12,21c-2.66-3.22-5.24-6.51-7.69-9.86C87,219,84.8,215.75,82.65,212.43Zm131.81,63.76c-1.58,1.73-3.2,3.67-4.91,5.73-5.94,7.12-13.33,16-24.5,22.27-3.83,2.16-11.61,3.2-20.3,2.72-6.72-.37-11.58-1.31-14.45-2.78-8.71-4.49-19-14.34-30.69-29.31-.71-.92-1.43-1.82-2.13-2.72-5.09-6.47-9.89-12.57-11.6-18.38-1-3.29-1.06-6.89-1.16-10.7,0-.87,0-1.75-.09-2.63h0l-.1-16.91h14a18.34,18.34,0,0,0,36.19,0h24.5a18.34,18.34,0,0,0,36.19,0h13.21l1.15,23a28.59,28.59,0,0,1-1.66,8.58C226.88,258.33,221.78,268.17,214.46,276.19Zm22.13-44-1-20.27a84,84,0,0,0,11.58,1.71c1.42.11,2.84.16,4.27.2A107.72,107.72,0,0,1,236.59,232.18Zm19.25-25.92a75.68,75.68,0,0,1-28.27-4.49v0a218.53,218.53,0,0,1-44.37-34.32c-1.54-1.56-3.05-3.15-4.55-4.75a22.69,22.69,0,0,0,3.67-2.29,116.63,116.63,0,0,0,44,18.82,112.21,112.21,0,0,0,22.11,2.35A90.67,90.67,0,0,0,265.65,180,116.72,116.72,0,0,1,255.84,206.26Z"/></svg>