<svg xmlns="http://www.w3.org/2000/svg" xmlns:xlink="http://www.w3.org/1999/xlink" width="1920" height="1080" viewBox="0 0 1920 1080"><defs><style>.a{fill:none;}.b{fill:#fd219a;}.c{clip-path:url(#a);}.d{fill:#ffb300;}.e{fill:#25baaf;}.f{fill:#fff;}.g{fill:#f4efe9;}.h{clip-path:url(#b);}</style><clipPath id="a"><rect class="a" x="-0.4" y="-0.17" width="1920.8" height="1080.3"/></clipPath><clipPath id="b"><polygon class="b" points="271.42 996.16 144.18 868.92 144.18 996.16 -61.6 996.16 -61.6 1207.69 1057.4 1207.69 1057.4 996.16 271.42 996.16"/></clipPath></defs><g class="c"><path class="d" d="M1641.91-13.62a144.45,144.45,0,0,0-144.45,144.45h288.9A144.45,144.45,0,0,0,1641.91-13.62Z"/><polygon class="e" points="1241.48 868.92 1241.48 996.16 1368.72 996.16 1241.48 868.92"/><circle class="b" cx="495.65" cy="730.69" r="7.97"/><circle class="b" cx="479.63" cy="778.73" r="7.97"/><circle class="b" cx="455.61" cy="778.73" r="7.97"/><circle class="b" cx="431.6" cy="778.73" r="7.97"/><circle class="b" cx="487.64" cy="754.71" r="7.97"/><circle class="b" cx="463.62" cy="754.71" r="7.97"/><circle class="b" cx="439.6" cy="754.71" r="7.97"/><circle class="b" cx="495.65" cy="730.69" r="7.97"/><circle class="b" cx="471.63" cy="730.69" r="7.97"/><circle class="b" cx="447.61" cy="730.69" r="7.97"/><circle class="b" cx="423.59" cy="730.69" r="7.97"/><circle class="b" cx="431.6" cy="778.73" r="7.97"/><circle class="b" cx="407.58" cy="778.73" r="7.97"/><circle class="b" cx="383.56" cy="778.73" r="7.97"/><circle class="b" cx="359.54" cy="778.73" r="7.97"/><circle class="b" cx="415.58" cy="754.71" r="7.97"/><circle class="b" cx="391.56" cy="754.71" r="7.97"/><circle class="b" cx="367.54" cy="754.71" r="7.97"/><circle class="b" cx="423.59" cy="730.69" r="7.97"/><circle class="b" cx="399.57" cy="730.69" r="7.97"/><circle class="b" cx="375.55" cy="730.69" r="7.97"/><circle class="b" cx="351.53" cy="730.69" r="7.97"/><circle class="b" cx="359.54" cy="778.73" r="7.97"/><circle class="b" cx="335.52" cy="778.73" r="7.97"/><circle class="b" cx="311.5" cy="778.73" r="7.97"/><circle class="b" cx="287.48" cy="778.73" r="7.97"/><circle class="b" cx="343.53" cy="754.71" r="7.97"/><circle class="b" cx="319.51" cy="754.71" r="7.97"/><circle class="b" cx="295.49" cy="754.71" r="7.97"/><circle class="b" cx="351.53" cy="730.69" r="7.97"/><circle class="b" cx="327.51" cy="730.69" r="7.97"/><circle class="b" cx="303.49" cy="730.69" r="7.97"/><circle class="b" cx="279.47" cy="730.69" r="7.97"/><circle class="b" cx="287.48" cy="778.73" r="7.97"/><circle class="b" cx="263.46" cy="778.73" r="7.97"/><circle class="b" cx="239.44" cy="778.73" r="7.97"/><circle class="b" cx="215.42" cy="778.73" r="7.97"/><circle class="b" cx="271.47" cy="754.71" r="7.97"/><circle class="b" cx="247.45" cy="754.71" r="7.97"/><circle class="b" cx="223.43" cy="754.71" r="7.97"/><circle class="b" cx="279.47" cy="730.69" r="7.97"/><circle class="b" cx="255.46" cy="730.69" r="7.97"/><circle class="b" cx="231.44" cy="730.69" r="7.97"/><circle class="b" cx="207.42" cy="730.69" r="7.97"/><circle class="b" cx="215.42" cy="778.73" r="7.97"/><circle class="b" cx="191.4" cy="778.73" r="7.97"/><circle class="b" cx="167.39" cy="778.73" r="7.97"/><circle class="b" cx="199.41" cy="754.71" r="7.97"/><circle class="b" cx="175.39" cy="754.71" r="7.97"/><circle class="b" cx="151.37" cy="754.71" r="7.97"/><circle class="b" cx="207.42" cy="730.69" r="7.97"/><circle class="b" cx="183.4" cy="730.69" r="7.97"/><circle class="b" cx="159.38" cy="730.69" r="7.97"/><circle class="b" cx="135.36" cy="730.69" r="7.97"/><circle class="b" cx="135.36" cy="730.69" r="7.97"/><rect class="d" x="1391.89" y="1061.63" width="21.75" height="21.75"/><rect class="d" x="1413.64" y="1039.89" width="21.75" height="21.75"/><rect class="d" x="1435.39" y="1018.14" width="21.75" height="21.75"/><rect class="d" x="1457.14" y="996.16" width="21.75" height="21.75"/><path class="e" d="M18.49,851.17a86.13,86.13,0,1,0,86.12,86.13A86.13,86.13,0,0,0,18.49,851.17Zm0,159.17a73,73,0,1,1,73-73A73,73,0,0,1,18.49,1010.34Z"/><circle class="e" cx="18.49" cy="937.3" r="57.37"/><path class="d" d="M150.75,11.1a86.13,86.13,0,1,0,86.13,86.12A86.13,86.13,0,0,0,150.75,11.1Zm0,159.17A73,73,0,1,1,223.8,97.22,73,73,0,0,1,150.75,170.27Z"/><circle class="d" cx="150.75" cy="97.22" r="57.37"/><path class="e" d="M1487.35,820.39a55.2,55.2,0,1,0,55.2,55.2A55.2,55.2,0,0,0,1487.35,820.39Zm0,102a46.82,46.82,0,1,1,46.82-46.81A46.81,46.81,0,0,1,1487.35,922.4Z"/><circle class="e" cx="1487.35" cy="875.59" r="36.77"/><rect class="e" x="1657.85" y="350.02" width="139.06" height="323.74"/><path class="e" d="M1505.5,589.31v92.41a46.21,46.21,0,0,0,0-92.41Z"/><path class="d" d="M1491.35,589.31c-25,0-45.32,21.71-45.32,48.51v7.54h48.79v-55.9C1493.67,589.37,1492.52,589.31,1491.35,589.31Z"/><path class="e" d="M658.7,749.5v92.41a46.21,46.21,0,0,0,0-92.41Z"/><path class="d" d="M644.55,749.5c-25,0-45.32,21.72-45.32,48.51v7.54H648V749.66C646.87,749.56,645.72,749.5,644.55,749.5Z"/><path class="d" d="M1498.37,539.58c-60.09,1.8-108.25,48.69-108.25,109.22a112.41,112.41,0,0,0,1.11,15.78h17.13c-.51-4-.77-11.69-.77-15.78,0-50.85,40.3-89.9,90.69-91.74Z"/><path class="d" d="M1645.33,286.87c-46.41,1.39-83.61,37.61-83.61,84.36a87.46,87.46,0,0,0,.85,12.19h13.23c-.39-3.05-.59-9-.59-12.19,0-39.27,31.12-69.44,70-70.85Z"/><circle class="b" cx="1832.68" cy="1000.48" r="7.59"/><circle class="b" cx="1832.68" cy="977.59" r="7.59"/><circle class="b" cx="1901.35" cy="1000.48" r="7.59"/><circle class="b" cx="1901.35" cy="977.59" r="7.59"/><circle class="b" cx="1878.46" cy="1008.11" r="7.59"/><circle class="b" cx="1878.46" cy="985.22" r="7.59"/><circle class="b" cx="1855.57" cy="992.85" r="7.59"/><circle class="b" cx="1855.57" cy="969.96" r="7.59"/><circle class="b" cx="1832.68" cy="977.59" r="7.59"/><circle class="b" cx="1832.68" cy="954.7" r="7.59"/><circle class="b" cx="1832.68" cy="931.81" r="7.59"/><circle class="b" cx="1832.68" cy="908.92" r="7.59"/><circle class="b" cx="1901.35" cy="977.59" r="7.59"/><circle class="b" cx="1901.35" cy="954.7" r="7.59"/><circle class="b" cx="1901.35" cy="931.81" r="7.59"/><circle class="b" cx="1901.35" cy="908.92" r="7.59"/><circle class="b" cx="1878.46" cy="962.33" r="7.59"/><circle class="b" cx="1878.46" cy="939.44" r="7.59"/><circle class="b" cx="1878.46" cy="916.55" r="7.59"/><circle class="b" cx="1855.57" cy="969.96" r="7.59"/><circle class="b" cx="1855.57" cy="947.07" r="7.59"/><circle class="b" cx="1855.57" cy="924.18" r="7.59"/><circle class="b" cx="1855.57" cy="901.29" r="7.59"/><circle class="b" cx="1832.68" cy="908.92" r="7.59"/><circle class="b" cx="1832.68" cy="886.03" r="7.59"/><circle class="b" cx="1832.68" cy="863.14" r="7.59"/><circle class="b" cx="1832.68" cy="840.25" r="7.59"/><circle class="b" cx="1901.35" cy="908.92" r="7.59"/><circle class="b" cx="1901.35" cy="886.03" r="7.59"/><circle class="b" cx="1901.35" cy="863.14" r="7.59"/><circle class="b" cx="1901.35" cy="840.25" r="7.59"/><circle class="b" cx="1878.46" cy="893.66" r="7.59"/><circle class="b" cx="1878.46" cy="870.77" r="7.59"/><circle class="b" cx="1878.46" cy="847.88" r="7.59"/><circle class="b" cx="1855.57" cy="901.29" r="7.59"/><circle class="b" cx="1855.57" cy="878.4" r="7.59"/><circle class="b" cx="1855.57" cy="855.51" r="7.59"/><circle class="b" cx="1855.57" cy="832.62" r="7.59"/><circle class="b" cx="1832.68" cy="840.25" r="7.59"/><circle class="b" cx="1901.35" cy="840.25" r="7.59"/><circle class="b" cx="1855.57" cy="832.62" r="7.59"/><circle class="b" cx="56.56" cy="360.49" r="7.59"/><circle class="b" cx="56.56" cy="337.6" r="7.59"/><circle class="b" cx="33.67" cy="368.12" r="7.59"/><circle class="b" cx="33.67" cy="345.23" r="7.59"/><circle class="b" cx="10.78" cy="352.86" r="7.59"/><circle class="b" cx="10.78" cy="329.97" r="7.59"/><circle class="b" cx="56.56" cy="337.6" r="7.59"/><circle class="b" cx="56.56" cy="314.71" r="7.59"/><circle class="b" cx="56.56" cy="291.82" r="7.59"/><circle class="b" cx="56.56" cy="268.93" r="7.59"/><circle class="b" cx="33.67" cy="322.34" r="7.59"/><circle class="b" cx="33.67" cy="299.45" r="7.59"/><circle class="b" cx="33.67" cy="276.56" r="7.59"/><circle class="b" cx="10.78" cy="329.97" r="7.59"/><circle class="b" cx="10.78" cy="307.08" r="7.59"/><circle class="b" cx="10.78" cy="284.19" r="7.59"/><circle class="b" cx="10.78" cy="261.3" r="7.59"/><circle class="b" cx="56.56" cy="268.93" r="7.59"/><circle class="b" cx="56.56" cy="246.04" r="7.59"/><circle class="b" cx="56.56" cy="223.15" r="7.59"/><circle class="b" cx="56.56" cy="200.26" r="7.59"/><circle class="b" cx="33.67" cy="253.67" r="7.59"/><circle class="b" cx="33.67" cy="230.78" r="7.59"/><circle class="b" cx="33.67" cy="207.89" r="7.59"/><circle class="b" cx="10.78" cy="261.3" r="7.59"/><circle class="b" cx="10.78" cy="238.41" r="7.59"/><circle class="b" cx="10.78" cy="215.52" r="7.59"/><circle class="b" cx="10.78" cy="192.63" r="7.59"/><circle class="b" cx="56.56" cy="200.26" r="7.59"/><circle class="b" cx="10.78" cy="192.63" r="7.59"/><circle class="d" cx="1357.43" cy="108.11" r="6.95"/><path class="d" d="M1357.43,89.31a18.8,18.8,0,1,0,18.8,18.8A18.8,18.8,0,0,0,1357.43,89.31Zm0,32.09a13.29,13.29,0,1,1,13.3-13.29A13.29,13.29,0,0,1,1357.43,121.4Z"/><circle class="d" cx="1401.92" cy="108.11" r="6.95"/><path class="d" d="M1401.92,89.31a18.8,18.8,0,1,0,18.8,18.8A18.8,18.8,0,0,0,1401.92,89.31Zm0,32.09a13.29,13.29,0,1,1,13.3-13.29A13.29,13.29,0,0,1,1401.92,121.4Z"/><circle class="d" cx="1441.19" cy="108.11" r="6.95"/><path class="d" d="M1441.19,89.31a18.8,18.8,0,1,0,18.8,18.8A18.8,18.8,0,0,0,1441.19,89.31Zm0,32.09a13.29,13.29,0,1,1,13.3-13.29A13.29,13.29,0,0,1,1441.19,121.4Z"/><circle class="d" cx="1379.8" cy="143.71" r="6.95"/><path class="d" d="M1379.8,124.91a18.8,18.8,0,1,0,18.8,18.8A18.8,18.8,0,0,0,1379.8,124.91Zm0,32.09a13.29,13.29,0,1,1,13.29-13.29A13.29,13.29,0,0,1,1379.8,157Z"/><circle class="b" cx="1699.52" cy="288.06" r="6.95"/><path class="b" d="M1699.52,269.26a18.8,18.8,0,1,0,18.79,18.8A18.8,18.8,0,0,0,1699.52,269.26Zm0,32.09a13.29,13.29,0,1,1,13.29-13.29A13.29,13.29,0,0,1,1699.52,301.35Z"/><circle class="b" cx="1718.31" cy="253.15" r="6.95"/><path class="b" d="M1718.31,234.35a18.8,18.8,0,1,0,18.8,18.8A18.79,18.79,0,0,0,1718.31,234.35Zm0,32.09a13.3,13.3,0,1,1,13.3-13.29A13.29,13.29,0,0,1,1718.31,266.44Z"/><circle class="b" cx="1675.31" cy="253.15" r="6.95"/><path class="b" d="M1675.31,234.35a18.8,18.8,0,1,0,18.8,18.8A18.8,18.8,0,0,0,1675.31,234.35Zm0,32.09a13.3,13.3,0,1,1,13.29-13.29A13.29,13.29,0,0,1,1675.31,266.44Z"/><circle class="d" cx="648.01" cy="912.54" r="6.95"/><path class="d" d="M648,893.74a18.8,18.8,0,1,0,18.8,18.8A18.8,18.8,0,0,0,648,893.74Zm0,32.09a13.29,13.29,0,1,1,13.29-13.29A13.29,13.29,0,0,1,648,925.83Z"/><circle class="d" cx="609.54" cy="912.54" r="6.95"/><path class="d" d="M609.54,893.74a18.8,18.8,0,1,0,18.8,18.8A18.8,18.8,0,0,0,609.54,893.74Zm0,32.09a13.29,13.29,0,1,1,13.29-13.29A13.29,13.29,0,0,1,609.54,925.83Z"/><circle class="d" cx="567.39" cy="912.54" r="6.95"/><path class="d" d="M567.39,893.74a18.8,18.8,0,1,0,18.79,18.8A18.8,18.8,0,0,0,567.39,893.74Zm0,32.09a13.29,13.29,0,1,1,13.29-13.29A13.29,13.29,0,0,1,567.39,925.83Z"/><circle class="d" cx="523.5" cy="912.54" r="6.95"/><path class="d" d="M523.5,893.74a18.8,18.8,0,1,0,18.8,18.8A18.8,18.8,0,0,0,523.5,893.74Zm0,32.09a13.29,13.29,0,1,1,13.29-13.29A13.29,13.29,0,0,1,523.5,925.83Z"/><circle class="d" cx="629.64" cy="947.95" r="6.95"/><path class="d" d="M629.64,929.15a18.8,18.8,0,1,0,18.8,18.8A18.8,18.8,0,0,0,629.64,929.15Zm0,32.09A13.3,13.3,0,1,1,642.93,948,13.29,13.29,0,0,1,629.64,961.24Z"/><circle class="d" cx="591.17" cy="947.95" r="6.95"/><path class="d" d="M591.17,929.15A18.8,18.8,0,1,0,610,948,18.8,18.8,0,0,0,591.17,929.15Zm0,32.09A13.3,13.3,0,1,1,604.46,948,13.29,13.29,0,0,1,591.17,961.24Z"/><circle class="d" cx="549.01" cy="947.95" r="6.95"/><path class="d" d="M549,929.15a18.8,18.8,0,1,0,18.8,18.8A18.79,18.79,0,0,0,549,929.15Zm0,32.09A13.3,13.3,0,1,1,562.31,948,13.29,13.29,0,0,1,549,961.24Z"/><circle class="d" cx="505.13" cy="947.95" r="6.95"/><path class="d" d="M505.13,929.15a18.8,18.8,0,1,0,18.8,18.8A18.8,18.8,0,0,0,505.13,929.15Zm0,32.09A13.3,13.3,0,1,1,518.42,948,13.29,13.29,0,0,1,505.13,961.24Z"/><circle class="d" cx="610.84" cy="980.18" r="6.95"/><path class="d" d="M610.84,961.38a18.8,18.8,0,1,0,18.8,18.8A18.8,18.8,0,0,0,610.84,961.38Zm0,32.1a13.3,13.3,0,1,1,13.29-13.3A13.3,13.3,0,0,1,610.84,993.48Z"/><circle class="d" cx="572.37" cy="980.18" r="6.95"/><path class="d" d="M572.37,961.38a18.8,18.8,0,1,0,18.8,18.8A18.8,18.8,0,0,0,572.37,961.38Zm0,32.1a13.3,13.3,0,1,1,13.29-13.3A13.3,13.3,0,0,1,572.37,993.48Z"/><circle class="d" cx="530.22" cy="980.18" r="6.95"/><path class="d" d="M530.22,961.38A18.8,18.8,0,1,0,549,980.18,18.8,18.8,0,0,0,530.22,961.38Zm0,32.1a13.3,13.3,0,1,1,13.29-13.3A13.3,13.3,0,0,1,530.22,993.48Z"/><circle class="b" cx="1699.52" cy="215.55" r="6.95"/><path class="b" d="M1699.52,196.75a18.8,18.8,0,1,0,18.79,18.8A18.8,18.8,0,0,0,1699.52,196.75Zm0,32.09a13.29,13.29,0,1,1,13.29-13.29A13.29,13.29,0,0,1,1699.52,228.84Z"/><circle class="d" cx="1334.07" cy="143.71" r="6.95"/><path class="d" d="M1334.07,124.91a18.8,18.8,0,1,0,18.8,18.8A18.8,18.8,0,0,0,1334.07,124.91Zm0,32.09a13.29,13.29,0,1,1,13.29-13.29A13.29,13.29,0,0,1,1334.07,157Z"/><circle class="d" cx="1311.5" cy="108.51" r="6.95"/><path class="d" d="M1311.5,89.71a18.8,18.8,0,1,0,18.8,18.8A18.8,18.8,0,0,0,1311.5,89.71Zm0,32.09a13.3,13.3,0,1,1,13.29-13.29A13.29,13.29,0,0,1,1311.5,121.8Z"/><circle class="d" cx="1287.89" cy="69.48" r="6.95"/><path class="d" d="M1287.89,50.69a18.8,18.8,0,1,0,18.8,18.79A18.8,18.8,0,0,0,1287.89,50.69Zm0,32.09a13.3,13.3,0,1,1,13.29-13.3A13.29,13.29,0,0,1,1287.89,82.78Z"/><circle class="d" cx="1334.07" cy="69.48" r="6.95"/><path class="d" d="M1334.07,50.69a18.8,18.8,0,1,0,18.8,18.79A18.8,18.8,0,0,0,1334.07,50.69Zm0,32.09a13.3,13.3,0,1,1,13.29-13.3A13.29,13.29,0,0,1,1334.07,82.78Z"/><circle class="d" cx="1376.23" cy="69.48" r="6.95"/><path class="d" d="M1376.23,50.69A18.8,18.8,0,1,0,1395,69.48,18.8,18.8,0,0,0,1376.23,50.69Zm0,32.09a13.3,13.3,0,1,1,13.29-13.3A13.29,13.29,0,0,1,1376.23,82.78Z"/><circle class="d" cx="1420.72" cy="69.48" r="6.95"/><path class="d" d="M1420.72,50.69a18.8,18.8,0,1,0,18.8,18.79A18.8,18.8,0,0,0,1420.72,50.69Zm0,32.09A13.3,13.3,0,1,1,1434,69.48,13.29,13.29,0,0,1,1420.72,82.78Z"/><circle class="d" cx="1398.6" cy="35.18" r="6.95"/><path class="d" d="M1398.6,16.39a18.8,18.8,0,1,0,18.8,18.79A18.8,18.8,0,0,0,1398.6,16.39Zm0,32.09a13.3,13.3,0,1,1,13.29-13.3A13.29,13.29,0,0,1,1398.6,48.48Z"/><circle class="d" cx="1310.07" cy="30.46" r="6.95"/><path class="d" d="M1310.07,11.66a18.8,18.8,0,1,0,18.8,18.8A18.8,18.8,0,0,0,1310.07,11.66Zm0,32.09a13.29,13.29,0,1,1,13.29-13.29A13.29,13.29,0,0,1,1310.07,43.75Z"/><circle class="d" cx="1253.3" cy="35.97" r="6.95"/><path class="d" d="M1253.3,17.17A18.8,18.8,0,1,0,1272.1,36,18.8,18.8,0,0,0,1253.3,17.17Zm0,32.09A13.29,13.29,0,1,1,1266.59,36,13.29,13.29,0,0,1,1253.3,49.26Z"/><circle class="d" cx="1219.8" cy="61.71" r="6.95"/><path class="d" d="M1219.8,42.92a18.8,18.8,0,1,0,18.8,18.79A18.79,18.79,0,0,0,1219.8,42.92Zm0,32.09a13.3,13.3,0,1,1,13.3-13.3A13.29,13.29,0,0,1,1219.8,75Z"/><circle class="d" cx="1216.74" cy="18.61" r="6.95"/><path class="d" d="M1216.74-.19a18.8,18.8,0,1,0,18.8,18.8A18.8,18.8,0,0,0,1216.74-.19Zm0,32.09A13.29,13.29,0,1,1,1230,18.61,13.29,13.29,0,0,1,1216.74,31.9Z"/><circle class="d" cx="1464.71" cy="69.48" r="6.95"/><path class="d" d="M1464.71,50.69a18.8,18.8,0,1,0,18.8,18.79A18.79,18.79,0,0,0,1464.71,50.69Zm0,32.09a13.3,13.3,0,1,1,13.3-13.3A13.29,13.29,0,0,1,1464.71,82.78Z"/><path class="b" d="M786.94,922.48c-2-.17-4-.28-6-.28a67.21,67.21,0,0,0-67.2,67.21c0,2.27.12,4.53.34,6.75h72.84Z"/><path class="b" d="M786.94,888.7c-2-.12-4-.19-6-.19a100.9,100.9,0,0,0-100.9,100.9c0,2.27.11,4.51.26,6.75h15.36c-.17-2.23-.29-4.48-.29-6.75A85.57,85.57,0,0,1,781,903.83c2,0,4,.1,6,.23Z"/><path class="b" d="M194.4,404.16c2-.18,4-.28,6-.28a67.2,67.2,0,0,1,67.21,67.2c0,2.28-.12,4.53-.34,6.75H194.4Z"/><path class="b" d="M194.4,370.37c2-.11,4-.19,6-.19a100.9,100.9,0,0,1,100.9,100.9c0,2.27-.1,4.52-.25,6.75H285.66c.17-2.23.29-4.48.29-6.75a85.58,85.58,0,0,0-85.58-85.57c-2,0-4,.09-6,.23Z"/><circle class="f" cx="740.66" cy="880.08" r="7.59"/><circle class="f" cx="717.77" cy="880.08" r="7.59"/><circle class="f" cx="694.88" cy="880.08" r="7.59"/><circle class="f" cx="694.88" cy="880.08" r="7.59"/><circle class="f" cx="671.99" cy="880.08" r="7.59"/><circle class="f" cx="649.1" cy="880.08" r="7.59"/><circle class="f" cx="626.21" cy="880.08" r="7.59"/><circle class="f" cx="633.84" cy="834.3" r="7.59"/><circle class="f" cx="641.47" cy="857.19" r="7.59"/><circle class="f" cx="618.58" cy="857.19" r="7.59"/><circle class="f" cx="626.21" cy="880.08" r="7.59"/><circle class="f" cx="603.32" cy="880.08" r="7.59"/><circle class="f" cx="580.43" cy="880.08" r="7.59"/><circle class="f" cx="557.54" cy="880.08" r="7.59"/><circle class="f" cx="610.95" cy="834.3" r="7.59"/><circle class="f" cx="588.06" cy="834.3" r="7.59"/><circle class="f" cx="565.17" cy="834.3" r="7.59"/><circle class="f" cx="618.58" cy="857.19" r="7.59"/><circle class="f" cx="595.69" cy="857.19" r="7.59"/><circle class="f" cx="572.8" cy="857.19" r="7.59"/><circle class="f" cx="549.91" cy="857.19" r="7.59"/><circle class="f" cx="557.54" cy="880.08" r="7.59"/><circle class="f" cx="534.65" cy="880.08" r="7.59"/><circle class="f" cx="511.76" cy="880.08" r="7.59"/><circle class="f" cx="488.87" cy="880.08" r="7.59"/><circle class="f" cx="542.28" cy="834.3" r="7.59"/><circle class="f" cx="519.39" cy="834.3" r="7.59"/><circle class="f" cx="496.5" cy="834.3" r="7.59"/><circle class="f" cx="549.91" cy="857.19" r="7.59"/><circle class="f" cx="527.02" cy="857.19" r="7.59"/><circle class="f" cx="504.13" cy="857.19" r="7.59"/><circle class="f" cx="481.24" cy="857.19" r="7.59"/><circle class="f" cx="488.87" cy="880.08" r="7.59"/><circle class="f" cx="465.98" cy="880.08" r="7.59"/><circle class="f" cx="443.09" cy="880.08" r="7.59"/><circle class="f" cx="473.61" cy="834.3" r="7.59"/><circle class="f" cx="450.72" cy="834.3" r="7.59"/><circle class="f" cx="481.24" cy="857.19" r="7.59"/><circle class="f" cx="458.35" cy="857.19" r="7.59"/><circle class="f" cx="435.46" cy="857.19" r="7.59"/><path class="e" d="M1435.39,996.16h-193.9c55.13,4.5,91.35,32.42,104.44,89l24.21-24.08v.45h21.75v-21.75h-.34l.34-.34v.34h21.75V1018h-.23l.23-.23v.23h21.75V996.27h-.12Z"/><path class="d" d="M1063.67,923.37V875c-62,0-103.65,62.7-103.65,95.44h223V875C1130.6,875,1088.63,898,1063.67,923.37Zm-59.27,1.5c-8.4,9.71-20.3,33.8-23.62,31.37s3.54-22.75,16.12-38.65,37.77-25.17,38.43-23.63S1012.8,915.16,1004.4,924.87ZM1111.14,914c-24.17,16-37.75,41.72-41,37.45S1082,921.3,1103.72,906s62.62-18.75,62.62-16.55C1166.34,892.49,1135.41,897.93,1111.14,914Z"/><path class="d" d="M368,826.65V784.28c-54.3,0-90.76,54.91-90.76,83.57H472.5V784.28C426.61,784.28,389.86,804.41,368,826.65ZM316.1,828c-7.36,8.5-17.78,29.59-20.68,27.47s3.09-19.92,14.11-33.84,33.07-22.05,33.65-20.7S323.45,819.47,316.1,828Zm93.47-9.49c-21.17,14-33.06,36.54-35.91,32.8s10.42-26.44,29.41-39.82S457.9,795,457.9,797C457.91,799.61,430.82,804.38,409.57,818.48Z"/><path class="b" d="M1302.2,159.79H1341c0-49.75-50.3-83.14-76.55-83.14V255.52H1341C1341,213.48,1322.58,179.81,1302.2,159.79Zm-1.2-47.54c-7.79-6.74-27.11-16.29-25.16-19s18.24,2.84,31,12.93,20.19,30.3,19,30.83S1308.79,119,1301,112.25Zm8.69,85.62c-12.87-19.39-33.47-30.28-30-32.9s24.21,9.55,36.48,26.95,15,50.23,13.27,50.23C1327,242.15,1322.61,217.34,1309.69,197.87Z"/><path class="f" d="M516.65,657.5V618.68c-49.75,0-83.14,50.3-83.14,76.56H612.38V618.68C570.34,618.68,536.68,637.12,516.65,657.5Zm-47.54,1.2c-6.74,7.79-16.29,27.11-18.94,25.16s2.83-18.24,12.93-31,30.29-20.19,30.82-19S475.85,650.92,469.11,658.7ZM554.73,650c-19.39,12.87-30.28,33.47-32.89,30s9.54-24.21,26.94-36.47S599,628.53,599,630.3C599,632.73,574.2,637.09,554.73,650Z"/><rect class="d" x="1637.71" y="204.67" width="21.75" height="21.75" transform="translate(3297.18 431.1) rotate(180)"/><rect class="d" x="1615.97" y="226.65" width="21.75" height="21.75" transform="translate(3253.68 475.06) rotate(180)"/><path class="b" d="M699.76-.17c0,.44,0,.88,0,1.33a46.36,46.36,0,1,0,92.72,0c0-.45,0-.89,0-1.33Z"/><path class="b" d="M805.08-.17c0,.45,0,.88,0,1.33a59,59,0,1,1-118.06,0c0-.45,0-.88,0-1.33H676.52c0,.45,0,.88,0,1.33a69.6,69.6,0,0,0,139.2,0c0-.45,0-.88,0-1.33Z"/><path class="d" d="M446.53,64.58a7,7,0,0,1-1-.08c-1.81-.27-4.37-1.39-6.49-5.14a3.65,3.65,0,0,1-.43-4.59c.37-.55.72-1.16,1.1-1.81a19.16,19.16,0,0,1,3.7-5c2.49-2.22,2.57-5,2.5-9.27,0-1.77-.09-3.59-.14-5.34A121.55,121.55,0,0,1,446,16a101.2,101.2,0,0,1,8.33-29.87c7.32-16.43,14.5-28,23.3-37.59C487-61.68,499-69.48,515.24-76c11.08-4.46,20-6.66,28.91-7.14,2.39-.13,4.79-.49,7.32-.87l3-.44c.71-.1,1.44-.23,2.22-.37a31.84,31.84,0,0,1,5-.63c5.23-.12,8.84,3.23,9.18,8.51.17,2.67.11,5.37,0,7.89l-.21,6.43c-.2,6.45-.41,13.13-.85,19.71-.92,13.67-3.54,24.54-8.25,34.2-8.52,17.52-18,30.11-29.7,39.62-6.4,5.18-14.21,11-23.54,14.85a112.91,112.91,0,0,1-42.79,8.53A13,13,0,0,0,455,59.15c-.17.2-.33.41-.5.62a17.79,17.79,0,0,1-1.42,1.65C450.63,63.93,448.29,64.58,446.53,64.58ZM446,56.67a2.27,2.27,0,0,0,.6.58,3.51,3.51,0,0,0,1.33-1,13.62,13.62,0,0,0,.9-1.06l.62-.76A20.34,20.34,0,0,1,465.57,47a105.64,105.64,0,0,0,40-8c8.46-3.49,15.73-8.92,21.72-13.77C538.2,16.39,547,4.59,555.05-11.93c4.28-8.79,6.67-18.8,7.52-31.49.43-6.45.64-13.06.84-19.45q.11-3.23.22-6.45a70.87,70.87,0,0,0,0-7.17c-.09-1.43-.53-1.68-1.71-1.66a26.56,26.56,0,0,0-3.9.52c-.82.14-1.67.3-2.54.42s-1.94.27-2.9.42c-2.59.39-5.27.79-8,.94-8.08.44-16.27,2.48-26.58,6.62C502.76-63.11,491.66-55.89,483-46.5c-8.23,9-15,20-22,35.62a94.19,94.19,0,0,0-7.75,27.7A114.64,114.64,0,0,0,453,33.14c0,1.78.11,3.63.14,5.45.08,4.59.17,10.3-5,14.86A13.5,13.5,0,0,0,446,56.64Z"/><path class="d" d="M483.73,37.18a3.66,3.66,0,0,1-1-7.19c1.22-.34,2.44-.64,3.62-.93a44.69,44.69,0,0,0,6.87-2c18.74-8,33.55-22,44-41.5,4-7.53,8.86-17.62,10.31-28.81a3.66,3.66,0,0,1,4.1-3.16,3.65,3.65,0,0,1,3.16,4.1C553.23-30,548.05-19.11,543.71-11c-11.28,21-27.3,36.1-47.61,44.77a51.19,51.19,0,0,1-8,2.44c-1.17.28-2.28.55-3.38.86A3.38,3.38,0,0,1,483.73,37.18Z"/><path class="d" d="M462.5,14.24a3.49,3.49,0,0,1-1.37-.27,3.66,3.66,0,0,1-2-4.76c3.39-8.41,8.14-19.35,14.79-29.38,12.41-18.72,28-33.39,46.46-43.61l1.48-.84c3.43-2,7.71-4.45,13.06-3.76a3.66,3.66,0,0,1,3.16,4.11,3.66,3.66,0,0,1-4.1,3.16c-2.89-.38-5.48,1.11-8.46,2.83q-.79.47-1.59.9C506.52-47.73,491.75-33.85,480-16.12,473.7-6.64,469.15,3.86,465.9,12A3.68,3.68,0,0,1,462.5,14.24Z"/><path class="d" d="M493.32,22.12A3.67,3.67,0,0,1,492,15a13.24,13.24,0,0,1,1.27-.38l.37-.1c.84-.88,1.7-1.75,2.53-2.6a83.59,83.59,0,0,0,8.12-9.06C513-8.93,520.09-18.8,526.75-29.44c5.07-8.11,9.81-16.68,14.39-25,2-3.65,4.1-7.42,6.19-11.11a3.66,3.66,0,0,1,5-1.38,3.66,3.66,0,0,1,1.38,5c-2.07,3.66-4.14,7.41-6.15,11-4.63,8.38-9.41,17-14.59,25.31C526.17-14.71,519-4.72,510.24,7.2a91,91,0,0,1-8.81,9.88c-.91.93-1.86,1.89-2.76,2.84a7,7,0,0,1-3.5,1.8c-.21.05-.45.12-.56.16A3.68,3.68,0,0,1,493.32,22.12Z"/><path class="d" d="M474.15,24.17a3.67,3.67,0,0,1-3.61-4.32c0-.25.08-.58.11-.92a9.6,9.6,0,0,1,1.06-4c2.69-4.69,5.59-9.47,8.61-14.2,8.2-12.88,18.37-25.61,33-41.26,2.3-2.46,4.78-4.74,7.18-7,1.06-1,2.16-2,3.22-3a3.67,3.67,0,0,1,5.18.13,3.66,3.66,0,0,1-.14,5.18c-1.1,1-2.22,2.08-3.31,3.07-2.4,2.21-4.67,4.3-6.77,6.56C504.36-20.2,494.45-7.81,486.49,4.68c-2.94,4.62-5.77,9.29-8.4,13.86a10.16,10.16,0,0,0-.15,1.1c0,.46-.1,1-.19,1.52A3.68,3.68,0,0,1,474.15,24.17Zm4-5.66Z"/><path class="d" d="M61.06,562.26a4.92,4.92,0,0,1-.8-.06c-1.38-.21-3.34-1.07-5-3.93a2.79,2.79,0,0,1-.32-3.5c.28-.42.55-.88.83-1.38a14.67,14.67,0,0,1,2.83-3.8c1.9-1.69,2-3.79,1.9-7.07,0-1.35-.06-2.74-.1-4.08a91.69,91.69,0,0,1,.22-13.24A77,77,0,0,1,67,502.41C72.6,489.88,78.08,481,84.79,473.73,92,465.93,101.08,460,113.48,455c8.46-3.4,15.26-5.08,22.06-5.45,1.82-.1,3.65-.37,5.59-.66l2.29-.34c.54-.07,1.1-.17,1.69-.28a24.55,24.55,0,0,1,3.85-.48,6.51,6.51,0,0,1,7,6.5,57.65,57.65,0,0,1,0,6c-.06,1.63-.11,3.27-.16,4.9-.15,4.92-.31,10-.65,15-.7,10.43-2.7,18.72-6.29,26.09-6.51,13.37-13.71,23-22.66,30.23-4.89,4-10.84,8.4-18,11.33a85.92,85.92,0,0,1-32.66,6.51,9.91,9.91,0,0,0-8.06,3.73l-.38.46a14.33,14.33,0,0,1-1.08,1.26A7,7,0,0,1,61.06,562.26Zm-.43-6a1.55,1.55,0,0,0,.46.44,2.69,2.69,0,0,0,1-.74,9,9,0,0,0,.69-.82l.47-.58a15.55,15.55,0,0,1,12.32-5.72,80.66,80.66,0,0,0,30.55-6.08c6.45-2.66,12-6.81,16.57-10.51,8.3-6.72,15-15.73,21.16-28.33,3.26-6.71,5.08-14.34,5.73-24,.33-4.92.49-10,.65-14.84,0-1.64.1-3.28.16-4.92.07-2.06.1-3.77,0-5.47-.07-1.09-.41-1.28-1.31-1.26a19.73,19.73,0,0,0-3,.39c-.63.11-1.27.23-1.94.32l-2.22.32c-2,.3-4,.61-6.11.72-6.16.34-12.41,1.89-20.27,5.05-11.61,4.67-20.08,10.18-26.66,17.35-6.29,6.83-11.46,15.22-16.79,27.17a71.8,71.8,0,0,0-5.91,21.14A88.52,88.52,0,0,0,66,538.27c0,1.36.09,2.77.11,4.16.06,3.5.13,7.85-3.78,11.34a10.35,10.35,0,0,0-1.71,2.43Z"/><path class="d" d="M89.44,541.35a2.79,2.79,0,0,1-.75-5.48c.92-.26,1.86-.49,2.76-.71a34.63,34.63,0,0,0,5.24-1.57c14.3-6.1,25.6-16.76,33.59-31.66,3.08-5.75,6.76-13.44,7.87-22a2.79,2.79,0,1,1,5.54.72c-1.22,9.45-5.18,17.74-8.49,23.91-8.6,16.05-20.82,27.54-36.32,34.16a38.79,38.79,0,0,1-6.11,1.86c-.89.21-1.74.42-2.57.66A2.84,2.84,0,0,1,89.44,541.35Z"/><path class="d" d="M73.24,523.85a2.91,2.91,0,0,1-1-.2A2.8,2.8,0,0,1,70.65,520,126,126,0,0,1,81.93,497.6a101.63,101.63,0,0,1,35.45-33.28l1.13-.64c2.62-1.51,5.88-3.39,10-2.87a2.8,2.8,0,1,1-.71,5.55c-2.21-.29-4.18.84-6.46,2.16l-1.21.69a96,96,0,0,0-33.5,31.47A120.75,120.75,0,0,0,75.83,522.1,2.79,2.79,0,0,1,73.24,523.85Z"/><path class="d" d="M96.76,529.86a2.79,2.79,0,0,1-1-5.41,8.66,8.66,0,0,1,1-.3l.28-.07c.64-.67,1.3-1.34,1.93-2a63.54,63.54,0,0,0,6.19-6.92c6.59-9,12-16.54,17.11-24.66,3.87-6.19,7.49-12.73,11-19,1.54-2.78,3.13-5.66,4.73-8.48a2.79,2.79,0,0,1,4.86,2.76c-1.58,2.79-3.17,5.65-4.7,8.42-3.53,6.39-7.18,13-11.13,19.32-5.18,8.27-10.68,15.89-17.34,25A67.45,67.45,0,0,1,103,526c-.7.71-1.42,1.45-2.11,2.17a5.29,5.29,0,0,1-2.67,1.37l-.43.13A2.78,2.78,0,0,1,96.76,529.86Z"/><path class="d" d="M82.13,531.42a2.77,2.77,0,0,1-2.75-3.29c0-.19.06-.44.08-.71a7.28,7.28,0,0,1,.81-3c2-3.58,4.26-7.22,6.57-10.84,6.26-9.82,14-19.53,25.15-31.47,1.75-1.88,3.64-3.62,5.47-5.3.81-.75,1.66-1.52,2.46-2.29a2.79,2.79,0,0,1,3.85,4.05c-.84.8-1.7,1.59-2.53,2.35-1.83,1.68-3.56,3.27-5.17,5C105.18,497.57,97.62,507,91.55,516.55c-2.25,3.53-4.41,7.09-6.41,10.58A6.47,6.47,0,0,0,85,528a11.21,11.21,0,0,1-.15,1.16A2.78,2.78,0,0,1,82.13,531.42Zm3-4.31Z"/><path class="g" d="M1698.43,136.87a10.13,10.13,0,0,1-5.67-2.16c-.44-.31-.91-.61-1.41-.93a24.29,24.29,0,0,1-3.38-2.49c-.7-.65-1.57-1-3.93-.67-2,.25-3.91.61-6,1a86.54,86.54,0,0,1-8.59,1.29,105.14,105.14,0,0,1-33-2.31A156.27,156.27,0,0,1,1606,120c-11.09-5.19-19.77-11.42-26.53-19a148.41,148.41,0,0,1-30.19-54.06l-.66-2c-1.44-4.52-2.93-9.19-4.14-13.91-1.37-5.33,1.2-10.08,6.24-11.55a25.94,25.94,0,0,1,5.42-.8l.79,0c5-.39,9.84-.76,14.81-1,11.44-.64,25-.76,38.88,3.13a115.11,115.11,0,0,1,34.65,16.66c8.47,5.86,16.21,13.14,24.37,22.93,11,13.24,18.09,28.8,21.6,47.57,1.17,6.26,2.45,9.35,7,11.11,4.35,1.7,6.39,4.17,7.28,6.52a4,4,0,0,1,.73.64,3.68,3.68,0,0,1-.36,5.18c-.23.2-.46.37-.65.51-.67,1.45-2.17,4.08-5,4.89A6.1,6.1,0,0,1,1698.43,136.87Zm-12.92-13.69a10.68,10.68,0,0,1,7.44,2.74,17.35,17.35,0,0,0,2.37,1.7c.54.35,1.11.72,1.68,1.12a7.08,7.08,0,0,0,1.13.68,7,7,0,0,0,.58-1.12c-.12-.63-.67-1.61-3.17-2.58-8.37-3.26-10.28-10-11.51-16.59-3.27-17.52-9.83-32-20-44.24-7.72-9.26-15-16.12-22.91-21.59a107.69,107.69,0,0,0-32.46-15.63c-12.84-3.6-25.65-3.47-36.5-2.87-4.88.27-9.71.64-14.64,1l-.83.06a19.91,19.91,0,0,0-3.9.52c-.57.17-1.76.52-1.2,2.7,1.16,4.51,2.62,9.08,4,13.5l.66,2.06c6.27,19.73,15.92,37,28.69,51.42,6.08,6.86,14,12.51,24.15,17.27a147.06,147.06,0,0,0,29.07,10.11,97.64,97.64,0,0,0,30.73,2.14,79.17,79.17,0,0,0,7.83-1.19c2.08-.39,4.23-.79,6.41-1.07A18.14,18.14,0,0,1,1685.51,123.18Z"/><path class="g" d="M1676,103.29c-1.81,0-4.31-.74-6-4.26-7.53-16-19.27-30-34.89-41.7a106.62,106.62,0,0,0-44.35-19.87c-4.47-.84-9.13-1.41-13.64-2-2.09-.25-4.25-.52-6.38-.81a3.66,3.66,0,0,1,1-7.25c2.08.28,4.22.54,6.28.79,4.62.57,9.39,1.15,14.09,2a113.74,113.74,0,0,1,47.38,21.2c16.59,12.38,29.08,27.32,37.13,44.42a3.66,3.66,0,0,1,1,7.22A6.75,6.75,0,0,1,1676,103.29Z"/><path class="g" d="M1650.36,121a3.77,3.77,0,0,1-.88-.1A141.15,141.15,0,0,1,1609,104c-18-11.15-31.49-24.31-41.27-40.22-.7-1.13-1.51-2.23-2.37-3.4-.42-.57-.84-1.14-1.25-1.72a3.66,3.66,0,0,1,6-4.24l1.18,1.62c.91,1.23,1.85,2.51,2.7,3.9,9.18,14.92,21.9,27.3,38.9,37.84a133.82,133.82,0,0,0,38.34,16,3.66,3.66,0,0,1-.88,7.21Z"/><path class="g" d="M1657.55,109a3.65,3.65,0,0,1-1.36-.26c-.84-.34-1.7-.64-2.6-1a40.64,40.64,0,0,1-6.37-2.72l-1.47-.83c-7.85-4.43-16-9-23.71-14a389.18,389.18,0,0,1-50.51-39,3.66,3.66,0,1,1,4.91-5.43A382.58,382.58,0,0,0,1626,84.08c7.57,4.87,15.59,9.4,23.36,13.79l1.46.82a34.81,34.81,0,0,0,5.25,2.21c.92.33,1.88.68,2.84,1.06a3.66,3.66,0,0,1-1.36,7.06Z"/><path class="g" d="M1646.25,83a3.68,3.68,0,0,1-2.41-.9,138.54,138.54,0,0,0-32.37-21.31c-5.55-2.57-11.31-5-16.88-7.36-2.52-1.06-5.12-2.15-7.67-3.25a3.66,3.66,0,1,1,2.9-6.73c2.53,1.09,5.11,2.18,7.61,3.24,5.63,2.37,11.45,4.83,17.12,7.46a145.43,145.43,0,0,1,34.1,22.43,3.66,3.66,0,0,1-2.4,6.42Z"/><path class="b" d="M79.92,652.72a3.67,3.67,0,0,1-.08-7.33h.36c.24,0,.56,0,.74,0,15.69-18.66,37-28.39,65.25-29.74,17-.8,32.7,3.38,47.18,8,2.49.8,5,1.59,7.48,2.35l3.45,1.07a3.66,3.66,0,1,1-2.18,7L198.68,633c-2.47-.76-5-1.56-7.54-2.37-13.83-4.43-28.8-8.43-44.6-7.68-26.07,1.25-45.7,10.12-60,27.14a7.44,7.44,0,0,1-6.24,2.63h-.38Z"/><path class="b" d="M86.77,662.3a3.66,3.66,0,0,1-.2-7.31l1.91-.12c1.42-.09,2.89-.19,4.37-.22,3.69-.08,7.44-.14,11.06-.19,7.36-.11,15-.22,22.42-.57,6.8-.31,13.74-.85,20.45-1.37,4.16-.33,8.46-.66,12.7-.94a213.11,213.11,0,0,0,39.39-5.9,3.66,3.66,0,0,1,1.83,7.09A220.62,220.62,0,0,1,160,658.89c-4.2.27-8.47.6-12.61.93-6.77.52-13.76,1.07-20.69,1.39-7.56.35-15.23.46-22.64.57-3.61.05-7.34.11-11,.19-1.33,0-2.66.11-4.06.2l-2,.13Z"/><path class="b" d="M98.34,651.43c-.44,0-.85,0-1.23,0l-.75,0a3.67,3.67,0,0,1,0-7.33c.44,0,.85,0,1.22.05a7,7,0,0,0,1,0c8.5-2.12,16.17-4.05,23.9-6.13,9.86-2.66,20.8-4.09,34.41-4.5,3.67-.11,7.34.07,10.89.25l4.75.21a3.66,3.66,0,1,1-.24,7.31c-1.64,0-3.28-.13-4.87-.21-3.57-.18-6.93-.35-10.31-.24-13,.39-23.43,1.74-32.73,4.25-7.79,2.1-15.5,4-24,6.17A8.39,8.39,0,0,1,98.34,651.43Z"/><path class="b" d="M140.35,679.42a115.28,115.28,0,0,1-12.54-.67c-4.58-.51-9.28-.87-13.82-1.23-2.1-.17-4.2-.33-6.3-.51a3.66,3.66,0,1,1,.62-7.29l6.25.5c4.6.36,9.35.73,14,1.25a119.47,119.47,0,0,0,32.24-1.09c2.85-.46,5.66-1.18,8.63-1.94,1.35-.35,2.74-.71,4.13-1a3.66,3.66,0,1,1,1.69,7.13c-1.32.31-2.68.66-4,1-3,.77-6.1,1.57-9.29,2.08A136.26,136.26,0,0,1,140.35,679.42Z"/><path class="b" d="M138.67,695.54a118.53,118.53,0,0,1-15.39-1.07,91.52,91.52,0,0,1-28.56-8.16c-3.46-1.68-6.81-3.59-10.06-5.44-5.94-3.38-11.55-6.58-17.79-8.5a12.49,12.49,0,0,1-4.4-2.76c-3.79-3.27-5.88-7.22-6.07-11.43s1.6-8.4,5.13-12c2.18-2.24,4.38-4.55,6.5-6.78,3.46-3.65,7-7.43,10.72-11C92.25,615,108,606.52,125.44,603c3.73-.74,7.51-1.35,11.16-1.95,1.68-.27,3.36-.54,5-.83a4.2,4.2,0,0,1,.79,0h.51c10.1-.06,20.54-.11,30.9,2.08,13.1,2.78,24.15,7.24,33.76,13.66a136.25,136.25,0,0,1,11.09,8.55l1.89,1.57c1.53,1.26,2.15,1.22,3,1a51.11,51.11,0,0,1,8.84-1.47c5.49-.42,9.78,3.44,10.41,9.37a6.37,6.37,0,0,1-2.31,6c-1.33,1.07-3.16,1.72-5.94,2.13a5.11,5.11,0,0,1-.91,0,13,13,0,0,0-8.85,5.32,204.63,204.63,0,0,1-19.48,22c-13.18,12.66-29.87,20.29-52.55,24A86.37,86.37,0,0,1,138.67,695.54Zm3.89-88-4.78.79c-3.6.58-7.31,1.19-10.9,1.9-16.06,3.21-30.52,11.06-43,23.34-3.59,3.52-7.13,7.25-10.55,10.86-2.14,2.25-4.35,4.58-6.56,6.85-1.46,1.5-3.18,3.86-3.06,6.61s2,4.86,3.54,6.2a7.92,7.92,0,0,0,1.77,1.3c7,2.16,13.24,5.71,19.26,9.14,3.14,1.79,6.39,3.64,9.63,5.22a84.77,84.77,0,0,0,26.31,7.48,93.32,93.32,0,0,0,27.36,0c21.14-3.46,36.6-10.47,48.65-22.06A195,195,0,0,0,219,644a20.31,20.31,0,0,1,13.81-8.11,4.42,4.42,0,0,1,.92,0,11.27,11.27,0,0,0,1.75-.39c-.41-2.68-2-2.56-2.55-2.52a44.6,44.6,0,0,0-7.58,1.27,10.21,10.21,0,0,1-9.43-2.46L214,630.13a130.26,130.26,0,0,0-10.48-8.1c-8.83-5.89-19-10-31.21-12.58-9.6-2-19.19-2-29.35-1.93h-.42Z"/><path class="d" d="M1445.91,707.55a3.18,3.18,0,0,1,3.31-5.44l.26.16c.19.11.42.25.57.32,20.15-6.59,40.39-4,61.85,8,12.91,7.2,22.62,17.52,31.18,27.6,1.47,1.73,3,3.47,4.45,5.17l2.06,2.37a3.19,3.19,0,0,1-4.83,4.16l-2-2.36c-1.48-1.71-3-3.47-4.49-5.22-8.18-9.62-17.4-19.45-29.43-26.15-19.83-11-38.41-13.5-56.78-7.49a6.5,6.5,0,0,1-5.82-.93l-.23-.13Z"/><path class="d" d="M1446.57,717.78a3.19,3.19,0,0,1,3.21-5.5l1.47.79c1.1.59,2.22,1.19,3.33,1.85,2.77,1.63,5.56,3.31,8.26,4.93,5.49,3.3,11.16,6.71,16.82,9.88,5.17,2.89,10.55,5.68,15.75,8.37,3.22,1.67,6.55,3.4,9.81,5.14A186.19,186.19,0,0,0,1537,757a3.18,3.18,0,1,1-1.9,6.08,192.36,192.36,0,0,1-32.91-14.19c-3.23-1.73-6.54-3.44-9.74-5.1-5.25-2.72-10.67-5.53-15.93-8.47-5.74-3.22-11.46-6.65-17-10-2.69-1.62-5.47-3.29-8.22-4.91-1-.59-2-1.13-3.09-1.71-.51-.27-1-.54-1.52-.82Z"/><path class="d" d="M1460.11,715.06c-.32-.2-.61-.41-.88-.6s-.39-.28-.54-.37a3.18,3.18,0,0,1,3.36-5.41c.33.2.62.41.88.59a4.74,4.74,0,0,0,.72.47c7.24,2.34,13.8,4.44,20.46,6.45,8.51,2.56,17.25,6.52,27.49,12.47,2.77,1.6,5.4,3.42,7.94,5.18,1.12.78,2.27,1.58,3.41,2.34a3.19,3.19,0,1,1-3.54,5.3c-1.18-.79-2.36-1.61-3.5-2.4-2.55-1.77-5-3.43-7.5-4.91-9.81-5.69-18.11-9.47-26.14-11.88-6.72-2-13.3-4.14-20.59-6.49A6.92,6.92,0,0,1,1460.11,715.06Z"/><path class="d" d="M1478.3,755a99.75,99.75,0,0,1-9-6.26c-3.16-2.47-6.46-4.9-9.65-7.25-1.48-1.09-3-2.17-4.42-3.27a3.18,3.18,0,1,1,3.81-5.1l4.38,3.24c3.23,2.38,6.58,4.83,9.81,7.37a103.76,103.76,0,0,0,24.31,14c2.32,1,4.72,1.72,7.27,2.52,1.15.36,2.35.74,3.52,1.13a3.18,3.18,0,1,1-2,6c-1.12-.37-2.28-.74-3.41-1.09-2.57-.81-5.23-1.65-7.82-2.73A118.35,118.35,0,0,1,1478.3,755Z"/><path class="d" d="M1469.66,766.16a103.49,103.49,0,0,1-10.88-7.85,79.54,79.54,0,0,1-17.35-19.14c-1.79-2.83-3.39-5.78-4.94-8.64-2.83-5.22-5.51-10.16-9.24-14.45a10.88,10.88,0,0,1-2-4.05c-1.3-4.16-1-8,.76-11.23s5-5.48,9.32-6.54c2.63-.65,5.31-1.35,7.91-2,4.23-1.11,8.62-2.25,13-3.23,16.08-3.63,31.59-2.7,46.11,2.75,3.09,1.16,6.17,2.44,9.14,3.68l4.1,1.7a3.91,3.91,0,0,1,.61.32.41.41,0,0,0,.11.07l.27.16c7.48,4.6,15.22,9.35,21.87,15.73,8.41,8.07,14.51,16.44,18.68,25.59a119.7,119.7,0,0,1,4.26,11.41c.23.68.45,1.36.68,2,.55,1.63,1,1.88,1.74,2.11a45,45,0,0,1,7.2,3c4.24,2.22,5.64,7,3.39,11.71a5.54,5.54,0,0,1-4.46,3.36,10.4,10.4,0,0,1-5.36-1.15,4.17,4.17,0,0,1-.7-.39,11.3,11.3,0,0,0-9-.14,175.74,175.74,0,0,1-24.48,7.3c-15.55,3.31-31.38,1.28-49.84-6.39A75.4,75.4,0,0,1,1469.66,766.16Zm43.28-63.24-3.89-1.61c-2.92-1.22-5.94-2.48-8.93-3.6-13.33-5-27.62-5.84-42.47-2.5-4.27,1-8.6,2.09-12.78,3.18-2.62.69-5.32,1.39-8,2.05-1.77.44-4.12,1.4-5.3,3.48s-.76,4.51-.23,6.21a7.07,7.07,0,0,0,.71,1.77c4.19,4.81,7.16,10.3,10,15.6,1.5,2.76,3.05,5.62,4.73,8.28a73.36,73.36,0,0,0,16,17.6A81.22,81.22,0,0,0,1483,765.94c17.21,7.15,31.85,9.07,46.07,6a170.33,170.33,0,0,0,23.6-7,17.62,17.62,0,0,1,13.92.35,3.94,3.94,0,0,1,.71.39,9.63,9.63,0,0,0,1.46.52c.93-2.17-.3-2.82-.72-3a38.67,38.67,0,0,0-6.19-2.55,8.87,8.87,0,0,1-5.84-6.14c-.23-.68-.45-1.36-.68-2.05a113.15,113.15,0,0,0-4-10.79c-3.82-8.41-9.48-16.14-17.29-23.63-6.15-5.9-13.27-10.27-20.8-14.9L1513,703Z"/><path class="g" d="M1688.55,664.17c-3.21,0-5.57-.84-7.2-2.55s-2.36-4.19-2.12-7.44c.15-2.07.34-4.14.53-6.15.42-4.57.82-8.88.82-13.23,0-3.67-.34-7.31-.71-11.18-.22-2.37-.46-4.82-.6-7.27a29.07,29.07,0,0,1,.26-5c.07-.66.14-1.28.19-1.88a3.77,3.77,0,1,1,7.52.58c0,.73-.13,1.45-.21,2.14a23.66,23.66,0,0,0-.23,3.73c.14,2.31.37,4.69.59,7,.36,3.87.75,7.87.74,11.9,0,4.69-.44,9.38-.86,13.91-.18,2-.37,4-.51,6a4.73,4.73,0,0,0,.08,1.68,5.44,5.44,0,0,0,2,.21c5-.11,10.06-.09,15-.06l6.26,0h55a15.09,15.09,0,0,0,2.45-.15,14.84,14.84,0,0,0,.16-2.49l0-3c0-3.48.08-7.09-.09-10.57a9.36,9.36,0,0,0-.52-2c-.57-1.73-1.28-3.89-.55-6.18,1.7-5.36,1.34-10.87,1-16.71-.12-1.84-.25-3.75-.3-5.67a3.77,3.77,0,0,1,7.54-.23c0,1.78.18,3.62.29,5.4.42,6.24.84,12.68-1.23,19.34a10.88,10.88,0,0,0,.47,1.69,14.56,14.56,0,0,1,.89,4c.18,3.7.14,7.42.1,11q0,1.47,0,2.94c0,2.84-.22,5.78-2.28,7.85s-5,2.27-7.87,2.27c-13.29,0-26.8,0-39.87,0H1710l-6.3,0c-4.84,0-9.84,0-14.74.06Z"/><path class="g" d="M1684.47,585a3.51,3.51,0,0,1-.72-.07,3.78,3.78,0,0,1-3-4.42c.25-1.28.45-2.56.67-3.92a66,66,0,0,1,2-9.24c3.7-11.78,5.07-24.8,4.31-41-.63-13.72-3.64-27.79-9.75-45.61-.08-.24-.18-.48-.27-.72a12.45,12.45,0,0,1-.86-3c-.22-1.67-.63-4.78,1.4-6.93,1.88-2,4.61-2,7-1.77,1.17.09,2.4.06,3.7,0,.63,0,1.27,0,1.91,0h17.4c18.44,0,37.52,0,56.28,0,2,0,4-.18,6.1-.37,1.06-.1,2.16-.2,3.3-.28a3.77,3.77,0,0,1,2.76.93c4.44,3.89,3,9.37,2.25,12.32-1,3.82-2.14,7.64-3.24,11.33-1.8,6-3.67,12.28-4.85,18.44-4.4,22.82-4.16,43,.73,61.69a34.67,34.67,0,0,1,.89,6c.07.83.14,1.61.24,2.38a3.77,3.77,0,1,1-7.49.93c-.11-.89-.19-1.78-.27-2.64a28.68,28.68,0,0,0-.67-4.72c-5.18-19.8-5.46-41.07-.85-65a198.25,198.25,0,0,1,5-19.18c1.08-3.63,2.2-7.38,3.16-11.07a12.34,12.34,0,0,0,.59-3.64l-.91.08c-2.31.21-4.49.4-6.76.41-18.77,0-37.85,0-56.31,0h-17.39l-1.77,0a43.68,43.68,0,0,1-4.41-.06l-.39,0c0,.06,0,.13,0,.21a8.57,8.57,0,0,0,.41,1.2c.13.34.26.68.38,1,6.35,18.53,9.48,33.24,10.15,47.71.8,17.09-.68,30.94-4.65,43.58a59.8,59.8,0,0,0-1.71,8.19c-.22,1.35-.44,2.75-.71,4.15A3.78,3.78,0,0,1,1684.47,585Z"/><path class="g" d="M1703.62,449.44a3.77,3.77,0,0,1-2.78-1.22,29.12,29.12,0,0,1-1.85-2.3,10.2,10.2,0,0,0-2.37-2.56c-9.86-4.38-15.06-12.38-15.88-24.46-.69-10,1.11-18.12,5.5-24.89,5.48-8.46,12.94-14.54,21.59-17.58,8.2-2.89,18.12-5.5,29.57-3.05,27.12,5.83,39.87,23,36.88,49.63-.94,8.29-4.79,14.22-12.14,18.64a21.1,21.1,0,0,0-4.34,4.11c-.75.85-1.54,1.73-2.38,2.58a3.78,3.78,0,0,1-5.34-5.34c.69-.69,1.36-1.45,2.08-2.25a26.65,26.65,0,0,1,6.09-5.56c5.31-3.2,7.86-7.1,8.53-13,2.56-22.84-7.56-36.38-31-41.41-9.58-2.06-17.91.12-25.48,2.79-7.15,2.51-13.13,7.42-17.76,14.57-3.51,5.42-4.88,11.86-4.3,20.27.63,9.27,4.15,14.85,11.42,18.08,2.42,1.07,4,3.1,5.31,4.9.49.65,1,1.26,1.41,1.75a3.78,3.78,0,0,1-2.79,6.32Z"/><path class="g" d="M1770.69,613a4.62,4.62,0,0,1-.65,0c-.69-.12-1.34-.27-2-.41a15.76,15.76,0,0,0-3-.48l-10.49,0c-21.35-.06-43.42-.12-65.11.13-4.82.06-9.56-.18-14.56-3.59a16.28,16.28,0,0,1,3.34-28c.44-.16.87-.34,1.3-.51,2.75-1.12,6.49-2.63,10.87-.44l.77-.07a16.53,16.53,0,0,1,1.68-.11h15.35c16.86,0,34.3,0,51.45-.05a29.88,29.88,0,0,0,7-.89c3.74-.89,8.38,1.37,10.81,2.8,1.91,1.12,6.49,4.13,7.92,7.92,2.88,7.64.1,16-6.63,19.86l-4,2.36-1.83,1.07a3.69,3.69,0,0,1-2,.51Zm-45.18-8.57c9.77,0,19.47,0,29,0l10.49,0a22.45,22.45,0,0,1,4.66.66l.5.11.65-.38,4.09-2.38c3.5-2,4.9-6.49,3.33-10.65-.2-.54-1.56-2.21-4.48-4s-5-2.15-5.47-2.08a38.13,38.13,0,0,1-8.68,1.09c-17.16.06-34.6,0-51.47,0h-15.35a8.8,8.8,0,0,0-.89.08,7.89,7.89,0,0,1-4.8-.62c-1.29-.7-2.23-.43-4.8.61l-1.49.59c-3.16,1.18-4.61,4.31-4.92,6.84a8.25,8.25,0,0,0,3.2,7.88c2.94,2,5.53,2.32,10.22,2.27C1701.35,604.5,1713.47,604.46,1725.51,604.46Z"/><path class="g" d="M1769.45,638.09h-85.09a3.78,3.78,0,1,1,0-7.55h85.09a3.78,3.78,0,1,1,0,7.55Z"/><path class="g" d="M1681.52,475.48a3.77,3.77,0,0,1-3.6-2.64c-2.56-8.12,2.13-14,5.56-18.38l.57-.73c5.65-7.19,14.09-11.1,24.42-11.29,5.06-.09,10.18,0,15.13,0,7.42.07,15.09.14,22.55-.27a28.28,28.28,0,0,1,17.91,5.14c6.29,4.5,14.59,11.88,14.08,24.05a3.77,3.77,0,0,1-7.54-.32c.27-6.57-3.1-12-10.93-17.59a20.63,20.63,0,0,0-13.11-3.74c-7.7.42-15.5.34-23,.27-4.9,0-10-.09-14.92,0-8.1.15-14.36,3-18.62,8.4l-.59.75c-3.5,4.42-5.57,7.34-4.28,11.43a3.79,3.79,0,0,1-3.6,4.91Z"/><path class="g" d="M1728.21,379.94a3.77,3.77,0,0,1-3.78-3.77V363.38a3.78,3.78,0,0,1,7.55,0v12.79A3.77,3.77,0,0,1,1728.21,379.94Z"/><path class="e" d="M1597,823.38c-.24,36.34-.38,72.68-.8,109-.07,6.26,1.08,9.4,8.5,9.28,61.23-1,112.76-53.1,113.62-115.32.88-64-48.52-117.64-110.38-120.31-8.33-.36-10.42,2.19-10.39,10.15C1597.69,751.93,1597.26,787.65,1597,823.38Zm92-52.74c1.72,2.39,3.86,4.58,5.09,7.19,13,27.64,14.69,55.9,3.28,84.4-9.13,22.79-23.82,40.92-46.38,51.86l.33-.33c-11.63,9.1-36.3,15.68-45.68,12.93L1616,911.38l-11.89-2.61c43.09-7.23,73-29.82,77.92-73.56,6.18-54.93-24.4-85.06-79-96l14.47-3L1605,719c9.39,1.87,18.07,2.78,26.2,5.39,25.21,8.09,45.72,22.41,58.2,46.58Zm-84.14-24c40.09-.59,75.34,38,73.78,79.85-1.52,40.86-38.22,77.69-74.18,74.44-1.92-11.12-1.85-10.81,9-13.31,23.85-5.48,40.73-19.65,48.45-42.9,7.81-23.47,3.38-45.26-13-64.14-11.54-13.28-26.74-19.69-44.13-22Zm-1.09,186.33c60.87-9.45,101.2-41.91,103-105.31,1.91-66.49-38-101.67-102.52-112.41,21.1-6.49,62,13.29,82.72,39.11a110.7,110.7,0,0,1,9.44,125.39C1677.14,913.08,1634.2,938.14,1603.84,932.92Zm1.39-153.18c22.38.82,41.12,21.53,40.67,44.71-.45,23.47-19.49,43.43-41.44,43.44-1.87-5.54-.78-8.61,5.67-10.51,15.8-4.66,25.32-17.58,25.55-33,.24-15.74-9.09-28.84-25.31-34C1604,788.31,1603.08,785.15,1605.23,779.74Zm-.65,103.66c33.16-6.84,54.09-25.88,53.67-60.5-.39-33.14-21-51.51-52.53-58.55,20.56.88,36.11,10.59,46.58,27.73,12.91,21.14,12.79,43.06-.32,64C1641.27,873.23,1625.53,883,1604.58,883.4Zm0-7.11c25.42-6,43.44-19.94,46-46.82,3-32.63-15.86-50.24-45.92-58.37,19,1,33.22,9.63,42.42,25.69,11,19.21,10.26,38.6-1.82,57.08C1635.76,868.39,1622,876,1604.62,876.29Zm-.46-78.79c17,2.24,26.58,15.4,24.24,30.75-2,13-13,23-25.69,20.78,11.22-5.06,20.28-11.63,20.75-24.8C1624,810.42,1612.94,804.83,1604.16,797.5Zm.27,10.94c8.8,3.17,12.52,8.82,12,16.34-.44,6.92-3.83,12.5-12.24,13.77Z"/><path class="e" d="M1655.6,756.63c5.31-9.55,3.67-16.89-3.9-21-7.3-4-13.91-1.7-19.16,7.23Zm-16.67-14.75.52-3.41c3.77.46,8.15-.11,11.11,1.68,2.54,1.53,3.46,5.75,5.1,8.78l-2.22,1.57Q1646.18,746.2,1638.93,741.88Z"/><path class="e" d="M1689.4,771c-6.38-3.16-12.62-7.72-21-1.5l13.33,23.42c9.83-4.92,11-8.7,7.3-22.24Zm-5.56,17.18c-3.58-6.38-6.42-11.45-9.48-16.89C1685.86,771,1689.28,776.54,1683.84,788.14Z"/><path class="e" d="M1651.06,914.09c5.42-6.33,10.26-12.78,4.06-22.46l-23.88,13.67c4.28,10.31,12.31,9.15,20.15,8.46Zm1.37-16.09,2.52,2.41c-2.3,3-4,7-7.07,8.71-2.51,1.44-6.52.25-9.86.23,0-1-.09-2-.13-3Z"/><path class="e" d="M1667.9,878.76c8.84,5.49,16.24,4.13,20.65-3.2s2-14.69-7.1-19.83Zm14.6-16.52,3.55.65c-.53,3.78-.08,8.17-1.92,11.15-1.55,2.5-5.76,3.36-8.79,5l-1.42-2.27Z"/><path class="e" d="M1686.69,811.18c0,6.24-.13,12.51-.1,18.79,0,2.67.24,5.34.37,8,10.21-.2,15.83-5.42,15.6-13.93C1702.35,815.79,1697,811.1,1686.69,811.18Zm4.7,22.13.12-18.2C1700.81,821.91,1700.7,827.66,1691.39,833.31Z"/><path class="d" d="M892.56,898.31a4.18,4.18,0,0,1-1.08-.23,68.94,68.94,0,0,1-16.18-7.53A36.28,36.28,0,0,1,864.12,880c-2.13-3.26-2.25-7-2.2-10.58l.08-5.28-5.23-.75a13.62,13.62,0,0,0-2.06-.18l-.56,0a78.88,78.88,0,0,0-8.18,1,75.47,75.47,0,0,1-12.77,1,98.89,98.89,0,0,1-11.13-.66c-17.51-2-32.6-8.56-44.86-19.55a18,18,0,0,1-2.1-2.11,25.57,25.57,0,0,1,2-1.84c8.29-7,18.4-11.52,30.92-13.92,1.21-.23,2.51-.39,3.77-.54a38.69,38.69,0,0,0,7.16-1.36l6.31-2-2.66-6.08a10.89,10.89,0,0,0-2-3.21c-10.79-11.53-17.42-23.5-20.26-36.6-.66-3.07-1.42-6.54-1.13-9.83l.07-.83c.48,0,1,0,1.45,0a56.07,56.07,0,0,1,10.79,1.28,112.25,112.25,0,0,1,42.72,18.13l1.86,1.41,1.87.08a2.49,2.49,0,0,1,.47.06l5.52,1,1.34-5.44a19.74,19.74,0,0,0,.55-5.21,51.63,51.63,0,0,1,.45-7.41c1.8-14.15,6-26.34,12.77-37.26A87.92,87.92,0,0,1,891,718.36a4.7,4.7,0,0,1,1.21-1,5.1,5.1,0,0,1,1.39,1c.76.73,1.48,1.54,2.24,2.39l.54.61c14.15,15.77,21.66,35.4,22.34,58.37a13.85,13.85,0,0,0,.69,3.67l1.56,5.12,5.57-1,1.81-.13,1.6-1.32a130.08,130.08,0,0,1,23.66-12.39,109.86,109.86,0,0,1,24.31-6.55,41.65,41.65,0,0,1,5.77-.41c.51,0,1,0,1.51,0l.07.77c.32,3.46-.5,7.1-1.16,10-3,13.28-9.69,25.26-20.48,36.62a9.38,9.38,0,0,0-1.74,2.78l-2.44,5.67,5.87,2.34a30.64,30.64,0,0,0,8.08,1.81c1.06.14,2.08.27,3.1.45,12.13,2.17,22.52,6.83,30.88,13.86a23.94,23.94,0,0,1,2,1.84,16.88,16.88,0,0,1-2.09,2.11c-12.26,11-27.35,17.57-44.86,19.55a98.89,98.89,0,0,1-11.13.66,75.39,75.39,0,0,1-12.77-1,79.5,79.5,0,0,0-8.14-1l-.62,0a14.31,14.31,0,0,0-2.1.18h-.08l-.34.05-4.71.7v5.15h0a15.4,15.4,0,0,0,0,1.79c.42,4.59-1.27,8.67-5.3,12.86C910.31,891.24,901.29,895.16,892.56,898.31Z"/><path class="g" d="M1011.26,836.51c-9.17-7.71-20.51-12.82-33.69-15.18-1.13-.2-2.28-.35-3.38-.49a25.65,25.65,0,0,1-6.65-1.44l-.12,0a3.8,3.8,0,0,1,.58-1c11.56-12.16,18.75-25.06,22-39.44A37.94,37.94,0,0,0,991.26,767a3,3,0,0,0-.73-5.69,43.64,43.64,0,0,0-13.42-.09,115.51,115.51,0,0,0-25.63,6.89,135.19,135.19,0,0,0-24.81,13,5.34,5.34,0,0,0-.64.48,7.39,7.39,0,0,0-.86.13,8.68,8.68,0,0,1-.44-2.1c-.71-24.42-8.74-45.34-23.85-62.18l-.54-.6c-.8-.91-1.63-1.84-2.56-2.74-3.82-3.66-7.43-3.63-11.06.08a93.91,93.91,0,0,0-12.67,15.92c-7.26,11.67-11.72,24.65-13.63,39.68a56.32,56.32,0,0,0-.49,8.27,14.42,14.42,0,0,1-.39,3.66,11.93,11.93,0,0,0-1.25-.14l-.11-.08-.44-.33a118.29,118.29,0,0,0-45-19.1c-5.92-1.17-12.31-2.06-18.83-.72a3,3,0,0,0-.62,5.67,38.35,38.35,0,0,0,1.25,11.62c3.07,14.19,10.18,27.09,21.75,39.44a5.74,5.74,0,0,1,.86,1.51,33,33,0,0,1-6,1.11c-1.36.16-2.77.34-4.18.61-13.55,2.6-24.56,7.58-33.65,15.22-2.21,1.86-4.3,3.61-4.35,6.28s2,4.69,4.26,6.72c13.21,11.85,29.42,18.93,48.19,21a103.79,103.79,0,0,0,11.81.7A82,82,0,0,0,847,870.14a70.88,70.88,0,0,1,7.53-.92,6.58,6.58,0,0,1,1.42.11c-.07,4.3.12,9.28,3.19,14a41.94,41.94,0,0,0,13,12.32,75,75,0,0,0,17.59,8.19,9.59,9.59,0,0,0,2.9.51,5.7,5.7,0,0,0,1.93-.32c9.44-3.4,19.26-7.67,27.14-15.88,5.25-5.47,7.53-11.2,7-17.54a9.21,9.21,0,0,1,0-1l-1.07,0,.34,0,.29-.05h.44v-.06a7,7,0,0,1,1.45-.11,70.74,70.74,0,0,1,7.54.92,82,82,0,0,0,13.77,1.12,103.49,103.49,0,0,0,11.8-.7c18.78-2.12,35-9.2,48.2-21,2.26-2,4.3-4.08,4.25-6.72S1013.48,838.37,1011.26,836.51Zm-84.5-49a4.29,4.29,0,0,0,3-1.26l.16-.15a130.26,130.26,0,0,1,23.72-12.43,109.86,109.86,0,0,1,24.31-6.55,40.36,40.36,0,0,1,7.28-.35c.48,3.31-.18,6.74-1.09,10.75-3,13.29-9.69,25.27-20.48,36.63a11.44,11.44,0,0,0-2.25,4.06.61.61,0,0,0,0,.12,21.9,21.9,0,0,0-3.13.54l-.71.19-.48.13a7.43,7.43,0,0,1,1.24-3.3,54.91,54.91,0,0,0,8-21,10,10,0,0,0,.07-2.47l0-.21c-.26-4.28-2.35-6.34-6.57-6.47A60,60,0,0,0,928,793.45a27.87,27.87,0,0,1-4.64,1.9l-.32.11c-.15-.26-.3-.52-.47-.78-1-1.62-.72-2.57.08-3.48.41-.46.78-1,1.16-1.43C925.21,788,925.72,787.56,926.76,787.55Zm-95.3,25.27c-.48-.89-1-1.77-1.52-2.64a31.87,31.87,0,0,1-2.62-5.07,85.43,85.43,0,0,1-3.1-11.58,3.75,3.75,0,0,1-.07-1.62,1.57,1.57,0,0,1,.63-.12,52.7,52.7,0,0,1,24.62,4.57c1.17.54,2.33,1.21,3.55,1.92a29.94,29.94,0,0,0,7.31,3.34c0,.16,0,.31,0,.47a14.81,14.81,0,0,1-.16,3.18,27.15,27.15,0,0,0-.23,3.08,36.56,36.56,0,0,0,2.39,13.33,43.68,43.68,0,0,0,12.56,17.4A18.64,18.64,0,0,1,878,842.3a9.44,9.44,0,0,1-4.23,0,86.44,86.44,0,0,1-39.5-20.51c-.27-.24-.53-.45-.8-.66A14.91,14.91,0,0,0,831.46,812.82Zm55.95,30.84a5.24,5.24,0,0,0-2.23-1.43l-.25-.1-.43-.31c-1.25-3.43-3.83-5.65-5.72-7.28a37.23,37.23,0,0,1-10.88-15,30.4,30.4,0,0,1-2-11.16,21.73,21.73,0,0,1,.19-2.42,19.64,19.64,0,0,0,.16-4.52A4.42,4.42,0,0,1,867,798a11,11,0,0,0,1.59-4.11c.29-.2.57-.41.87-.61a18.67,18.67,0,0,0,4-3.34,59.69,59.69,0,0,1,17.07-13.77,2.94,2.94,0,0,1,3.5,0,59.82,59.82,0,0,1,17.07,13.77,18.67,18.67,0,0,0,4,3.34l.86.61a9.79,9.79,0,0,0,1.54,4.06,4.65,4.65,0,0,1,.77,3.51,20.24,20.24,0,0,0,.15,4.52,21.88,21.88,0,0,1,.2,2.42,30.61,30.61,0,0,1-2,11.16,36.78,36.78,0,0,1-10.86,15,16.26,16.26,0,0,0-5.26,7.31,13.93,13.93,0,0,0-4.22,2.41c-.18.14-.37.3-.56.47a29.5,29.5,0,0,0-3,.12C889.8,845,888.58,845,887.41,843.66Zm22.25-4.57a42.81,42.81,0,0,0,12.59-17.41,36.36,36.36,0,0,0,2.4-13.33,25,25,0,0,0-.24-3.08,15.42,15.42,0,0,1-.15-3.18c0-.24,0-.47,0-.71.34-.11.67-.24,1-.36a32.69,32.69,0,0,0,5.64-2.34,53.21,53.21,0,0,1,28.6-6.9c.31,0,.53,0,.68.05s.06.42.09.8v.23a5.81,5.81,0,0,1,0,1,49.09,49.09,0,0,1-7.09,18.75,13.1,13.1,0,0,0-2.22,8.51q-.43.35-.81.69a86.43,86.43,0,0,1-34.81,19.38q-.64.18-1.29.39c-2.56.78-5,1.52-6.9.68l-.31-.12A12.31,12.31,0,0,1,909.66,839.09Zm-43.29-68.56c1.8-14.16,6-26.35,12.77-37.26A87.2,87.2,0,0,1,891,718.36a7.14,7.14,0,0,1,1.18-1,4.41,4.41,0,0,1,1.42,1.07c.76.73,1.48,1.54,2.24,2.4l.55.62c14.34,16,21.64,35.06,22.33,58.35a16.72,16.72,0,0,0,1,4.69c.06.19.12.38.17.56-.3.37-.59.73-.84,1.06s-.6.77-.92,1.14c-.16.17-.27.36-.41.54a11.06,11.06,0,0,1-2-1.72A65.68,65.68,0,0,0,897,770.91a8.83,8.83,0,0,0-9.36,0,65.72,65.72,0,0,0-18.75,15.15,11.19,11.19,0,0,1-2.16,1.8,20.17,20.17,0,0,0-1.87-2.91,19.34,19.34,0,0,0,1.11-7A49.93,49.93,0,0,1,866.37,770.53Zm-66,6.82c-.8-3.69-1.56-7.2-1-10.66a51.15,51.15,0,0,1,12.23,1.25,112.09,112.09,0,0,1,42.72,18.13l.26.19a5.15,5.15,0,0,0,3.16,1.29h0c1.74,0,2.32.81,3.76,3.39.35.62.71,1.27,1.12,1.9a5,5,0,0,1-.65,1.76c-.25.37-.46.74-.66,1.11a27.23,27.23,0,0,1-5.39-2.62c-1.29-.75-2.63-1.53-4.06-2.19a58.57,58.57,0,0,0-27.36-5.11,6.46,6.46,0,0,0-5.08,2.4c-.89,1.14-1.81,3.2-1.11,6.56a89.63,89.63,0,0,0,3.33,12.4,35.51,35.51,0,0,0,3.1,6.09c.48.81,1,1.61,1.41,2.43a10.88,10.88,0,0,1,1.27,3.54,21.5,21.5,0,0,1-2.47-.49l-1-.24a4.78,4.78,0,0,0-.92-.42,12.89,12.89,0,0,0-2.35-4.1C809.88,802.42,803.25,790.45,800.41,777.35Zm60.65,84.32a10.92,10.92,0,0,0-3.38,1.85h0a15.75,15.75,0,0,0-3.55-.29,79.5,79.5,0,0,0-8.14,1,84.84,84.84,0,0,1-23.9.38c-17.51-2-32.6-8.56-44.86-19.55a16.29,16.29,0,0,1-2.09-2.12c.49-.53,1.5-1.38,2-1.83,8.29-7,18.4-11.52,30.92-13.92,1.21-.23,2.45-.38,3.78-.55,3.27-.39,6.66-.81,10-2.51a3.69,3.69,0,0,0,.53.15l1.27.29a21.18,21.18,0,0,0,4.42.7,3,3,0,0,1,2.25,1,92.49,92.49,0,0,0,42.22,21.91,16.18,16.18,0,0,0,9.52-.8,8.93,8.93,0,0,0,1,.46l.13.05a10.06,10.06,0,0,0,1.3,1.18c-1.26,3-4.14,4.56-7.69,6.28s-7.14,3.1-10.71,4.49l-4.29,1.68A3.2,3.2,0,0,0,861.06,861.67ZM917.31,884c-7,7.29-16,11.21-24.74,14.35a3.9,3.9,0,0,1-1.09-.22,69.34,69.34,0,0,1-16.18-7.53A36.28,36.28,0,0,1,864.12,880c-1.92-2.94-2.27-6.23-2.2-10.59,0-.58,0-1.22.05-1.62.23-.11.55-.24.82-.35a2.87,2.87,0,0,0,.73-.2c1.55-.63,3.11-1.23,4.67-1.84,3.68-1.43,7.49-2.91,11.15-4.68s8.67-4.2,10.81-9.81a27.16,27.16,0,0,0,3.07-.12l1.13-.07c1.58,4.17,5,6.56,8.11,8.49,5.76,3.53,11.89,5.76,18.73,8.12.39.13,1,.35,1.46.52,0,.37,0,.85,0,1.3v.15a15.74,15.74,0,0,0,0,1.81C923,875.68,921.35,879.76,917.31,884Zm90-38.9c-12.26,11-27.35,17.57-44.86,19.55a84.84,84.84,0,0,1-23.9-.38,79.5,79.5,0,0,0-8.14-1,15.11,15.11,0,0,0-3.47.28,12.56,12.56,0,0,0-3.84-1.86c-6.5-2.23-12.31-4.34-17.55-7.56-2.81-1.72-4.62-3.17-5.5-5.21,2.06-1.6,3.1-1.84,4.75-1.12,4,1.73,7.9.52,11.06-.45l1.21-.36a92.48,92.48,0,0,0,37.2-20.73c1-.93,1.41-1,1.93-.94a8.31,8.31,0,0,0,2.86-.39l.51-.14c2.23-.53,3.7-.65,5.54.15a30.3,30.3,0,0,0,8.27,1.89c1,.13,2.08.27,3.1.45,12.3,2.2,22.4,6.74,30.88,13.86a25,25,0,0,1,2,1.83A17,17,0,0,1,1007.35,845.05Z"/><path class="d" d="M272.89,1025.64c-.32,0-.65,0-1,0-.78-.06-1.56-.1-2.35-.14a40.73,40.73,0,0,1-7.45-.86c-30.68-7.45-50.14-25.66-57.83-54.12-.7-2.59-1.15-5.25.3-7.25s3.71-2.37,6.82-2.54c9.07-.49,17.87.87,26.11,2.31l-.82,4.73c-8-1.39-16.46-2.71-25-2.25-2.62.14-3.13.51-3.21.58s-.23.61.46,3.16c7.3,27,25.08,43.61,54.33,50.71a35.78,35.78,0,0,0,6.57.74c.82,0,1.64.08,2.45.14a5,5,0,0,0,5.34-2.78l4.21,2.31A9.66,9.66,0,0,1,272.89,1025.64Z"/><path class="d" d="M300.93,1025.67a10.93,10.93,0,0,1-8.76-4.55l3.78-3c1.67,2.12,3.53,3,5.87,2.66,3.41-.44,7-.95,10.54-1.75,27.33-6.26,45-23,52.49-49.86.71-2.51.54-3.13.5-3.23a9.12,9.12,0,0,0-3.24-.49c-8.59-.46-17.07.86-25,2.25l-.82-4.73c8.23-1.44,17-2.8,26.11-2.31,2.56.13,5.42.45,6.9,2.52,1.34,1.87,1.05,4.26.21,7.28-8,28.65-26.87,46.56-56.05,53.25-3.71.85-7.46,1.37-11,1.83A11.15,11.15,0,0,1,300.93,1025.67Z"/><path class="d" d="M286.53,1023.84a12.6,12.6,0,0,1-10.59-6.05c-1.07-1.63-2-3.32-3-5a65.88,65.88,0,0,0-3.77-6.11C259.29,993,255.86,977.6,259,960.89a105.8,105.8,0,0,1,2.7-10.41c.45-1.52.9-3.05,1.32-4.59l3.06.84-2.55-2.23,7-8q5.7-6.54,11.4-13.08a6.57,6.57,0,0,1,4.81-2.62c1.73-.08,3.44.82,5.05,2.53s3.09,3.16,4.63,4.68c1.29,1.27,2.59,2.55,3.84,3.85a54.7,54.7,0,0,1,15.33,32.81c1.86,17-2.64,32.29-13.37,45.3a9.49,9.49,0,0,0-1.78,3.2,14.38,14.38,0,0,1-11.83,10.49A12.35,12.35,0,0,1,286.53,1023.84Zm-18.92-76.7.06,0c-.43,1.56-.89,3.12-1.35,4.68-1,3.26-1.95,6.63-2.58,9.94a52.67,52.67,0,0,0,9.34,42.13,69.77,69.77,0,0,1,4.06,6.54c.94,1.65,1.83,3.2,2.81,4.71a7.69,7.69,0,0,0,7.86,3.77,9.56,9.56,0,0,0,8-7.15,14.41,14.41,0,0,1,2.67-4.86c9.87-12,14-26,12.3-41.73a50,50,0,0,0-14-30c-1.23-1.27-2.49-2.52-3.76-3.76-1.57-1.55-3.2-3.16-4.75-4.81-.72-.76-1.28-1.06-1.46-1s-.67.26-1.29,1q-5.69,6.55-11.4,13.09Z"/><path class="d" d="M298.57,1017.05l-.94-4.7c.81-.17,1.63-.25,2.42-.34a8.9,8.9,0,0,0,3.41-.77c11.82-7.65,20.72-18.87,26.44-33.33l.36-.9c1.67-4.21,3.4-8.57,3.81-12.8.53-5.32-.08-11-.66-16.44l-.16-1.48c-.37-3.5-.72-6.83-2.4-9.87l-.74.29a39,39,0,0,0-4.82,2.09c-3.62,2-7.26,4.18-10.78,6.27l-4.43,2.63-2.44-4.14c1.48-.86,2.94-1.74,4.41-2.61,3.55-2.12,7.23-4.31,10.93-6.35a42.77,42.77,0,0,1,5.4-2.37c.82-.32,1.65-.64,2.49-1l1.73-.72,1.12,1.51c3.33,4.5,3.85,9.42,4.3,13.76l.16,1.47c.61,5.71,1.24,11.61.67,17.42-.48,4.91-2.34,9.58-4.13,14.1l-.36.9c-6.09,15.41-15.61,27.38-28.29,35.59a12.23,12.23,0,0,1-5.51,1.51C299.85,1016.86,299.17,1016.93,298.57,1017.05Z"/><path class="d" d="M275.09,1017c-.67-.17-1.39-.29-2.16-.42a15.48,15.48,0,0,1-5.65-1.75c-12.6-7.84-21.73-19.5-27.9-35.65-.29-.76-.59-1.53-.9-2.3-1.55-3.91-3.15-8-3.56-12.23-.57-5.84.06-11.77.68-17.5l.14-1.39c.46-4.34,1-9.26,4.31-13.76l1.12-1.51,1.73.72c.84.35,1.67.67,2.49,1a42.77,42.77,0,0,1,5.4,2.37c3.7,2,7.38,4.23,10.93,6.35,1.47.87,2.93,1.75,4.4,2.61l-2.43,4.14q-2.22-1.31-4.42-2.63c-3.52-2.09-7.17-4.26-10.8-6.27a38.22,38.22,0,0,0-4.81-2.09l-.74-.29c-1.68,3-2,6.37-2.4,9.87l-.15,1.4c-.59,5.49-1.19,11.17-.67,16.52.35,3.6,1.82,7.33,3.25,10.94.31.79.62,1.57.91,2.35,5.78,15.13,14.27,26,26,33.28a11.49,11.49,0,0,0,3.91,1.1c.83.14,1.68.28,2.52.49Z"/><path class="e" d="M165.79,322.19c-.32,0-.65,0-1,0l-2.34-.14a39.78,39.78,0,0,1-7.45-.86c-30.69-7.45-50.14-25.66-57.84-54.12-.69-2.59-1.14-5.25.3-7.25s3.71-2.37,6.83-2.54c9.06-.49,17.87.87,26.11,2.31l-.83,4.73c-8-1.39-16.46-2.71-25-2.25-2.62.14-3.14.51-3.21.58s-.23.62.46,3.17c7.3,27,25.07,43.6,54.33,50.71a36.59,36.59,0,0,0,6.57.73c.82,0,1.63.09,2.44.15a5,5,0,0,0,5.35-2.79l4.2,2.31A9.66,9.66,0,0,1,165.79,322.19Z"/><path class="e" d="M193.82,322.23a10.92,10.92,0,0,1-8.75-4.56l3.77-3c1.67,2.13,3.54,3,5.87,2.67,3.41-.45,7-1,10.54-1.76,27.34-6.26,45-23,52.5-49.86.7-2.51.54-3.13.49-3.22s-.63-.36-3.24-.5c-8.58-.46-17.07.86-25,2.25l-.83-4.73c8.23-1.44,17-2.8,26.11-2.31,2.56.14,5.42.46,6.91,2.52,1.33,1.87,1.05,4.26.2,7.29-8,28.64-26.86,46.56-56.05,53.24-3.7.85-7.46,1.37-11,1.84A13.22,13.22,0,0,1,193.82,322.23Z"/><path class="e" d="M179.42,320.39a12.62,12.62,0,0,1-10.59-6.05c-1.07-1.63-2-3.32-3-5a67.23,67.23,0,0,0-3.77-6.11c-9.91-13.69-13.33-29.11-10.17-45.82.67-3.56,1.7-7,2.69-10.42.45-1.52.91-3.05,1.32-4.58l3.06.83-2.55-2.23,7-8q5.68-6.53,11.36-13.05a6.64,6.64,0,0,1,4.82-2.62c1.75-.06,3.44.82,5.05,2.54s3.09,3.15,4.63,4.68c1.29,1.27,2.58,2.54,3.84,3.84a54.75,54.75,0,0,1,15.33,32.81c1.85,17-2.65,32.29-13.38,45.3a9.73,9.73,0,0,0-1.77,3.2,14.4,14.4,0,0,1-11.84,10.5A13.36,13.36,0,0,1,179.42,320.39Zm-18.91-76.7.05,0c-.42,1.57-.88,3.12-1.34,4.68-1,3.26-2,6.63-2.59,9.95A52.66,52.66,0,0,0,166,300.46,71.8,71.8,0,0,1,170,307c.94,1.65,1.83,3.21,2.82,4.71,1.91,2.92,4.77,4.29,7.85,3.77a9.55,9.55,0,0,0,8-7.15,14.5,14.5,0,0,1,2.67-4.86c9.88-12,14-26,12.3-41.73a50,50,0,0,0-14-30c-1.23-1.28-2.49-2.52-3.75-3.77-1.58-1.55-3.2-3.15-4.76-4.81-.72-.76-1.2-1-1.46-1s-.67.26-1.28,1l-11.37,13Z"/><path class="e" d="M191.46,313.61l-.94-4.71c.82-.16,1.63-.25,2.42-.34a9.11,9.11,0,0,0,3.41-.76c11.83-7.66,20.72-18.87,26.44-33.33l.36-.9c1.67-4.22,3.4-8.57,3.82-12.81.52-5.32-.08-11-.67-16.44l-.16-1.48c-.36-3.49-.71-6.82-2.4-9.87l-.74.29a36.82,36.82,0,0,0-4.81,2.1c-3.63,2-7.27,4.17-10.8,6.27L203,244.25l-2.43-4.14c1.47-.86,2.93-1.73,4.4-2.61,3.55-2.11,7.23-4.3,10.93-6.35a42.27,42.27,0,0,1,5.41-2.37c.81-.31,1.64-.63,2.48-1l1.73-.72,1.12,1.5c3.33,4.5,3.85,9.42,4.31,13.76l.15,1.47c.61,5.71,1.24,11.61.67,17.42-.48,4.91-2.33,9.59-4.13,14.11l-.35.89c-6.1,15.41-15.62,27.38-28.3,35.59a12.23,12.23,0,0,1-5.5,1.51C192.74,313.41,192.07,313.49,191.46,313.61Z"/><path class="e" d="M168,313.58c-.66-.17-1.39-.29-2.15-.42a15.37,15.37,0,0,1-5.65-1.75c-12.61-7.83-21.74-19.49-27.91-35.65-.29-.76-.59-1.52-.89-2.29-1.55-3.92-3.15-8-3.57-12.24-.56-5.84.07-11.76.68-17.49l.15-1.4c.45-4.34,1-9.26,4.3-13.76l1.12-1.5,1.74.72c.84.35,1.67.67,2.48,1a43.54,43.54,0,0,1,5.41,2.37c3.69,2,7.37,4.23,10.92,6.35l4.41,2.61-2.44,4.14-4.42-2.63c-3.52-2.09-7.16-4.26-10.79-6.26a37.57,37.57,0,0,0-4.82-2.1l-.73-.29c-1.69,3.05-2,6.38-2.41,9.87l-.15,1.41c-.58,5.49-1.19,11.17-.67,16.52.35,3.59,1.82,7.32,3.25,10.93.31.79.62,1.57.92,2.35,5.78,15.14,14.27,26,26,33.28a11.56,11.56,0,0,0,3.92,1.1c.82.14,1.67.28,2.52.49Z"/><path class="b" d="M1813.47,273.38l-.84,0-2-.12a34.33,34.33,0,0,1-6.4-.74c-26.33-6.39-43-22-49.62-46.44-.6-2.22-1-4.51.25-6.22s3.19-2,5.86-2.18c7.78-.42,15.33.75,22.4,2l-.71,4.06c-6.83-1.19-14.12-2.32-21.47-1.93-2.25.12-2.69.44-2.75.5s-.2.53.39,2.71c6.27,23.19,21.52,37.42,46.62,43.52a31.29,31.29,0,0,0,5.64.63l2.1.12a4.31,4.31,0,0,0,4.59-2.39l3.61,2A8.31,8.31,0,0,1,1813.47,273.38Z"/><path class="b" d="M1837.53,273.41a9.35,9.35,0,0,1-7.51-3.91l3.24-2.54a5.16,5.16,0,0,0,5,2.28c2.93-.38,6-.81,9-1.5,23.45-5.38,38.61-19.77,45-42.78.61-2.16.47-2.69.43-2.78a7.72,7.72,0,0,0-2.78-.42c-7.36-.39-14.65.74-21.48,1.93l-.71-4.06c7.07-1.23,14.62-2.4,22.41-2,2.2.12,4.65.39,5.93,2.17,1.14,1.6.9,3.65.17,6.24-6.87,24.58-23,40-48.09,45.69-3.18.73-6.4,1.18-9.43,1.58A9.55,9.55,0,0,1,1837.53,273.41Z"/><path class="b" d="M1825.17,271.84a10.82,10.82,0,0,1-9.08-5.19c-.92-1.4-1.75-2.85-2.55-4.26a56.76,56.76,0,0,0-3.24-5.24,49.16,49.16,0,0,1-8.73-39.32,91.42,91.42,0,0,1,2.32-8.94c.38-1.31.77-2.62,1.13-3.93l2.63.71-2.19-1.91,6-6.9,9.75-11.19a5.68,5.68,0,0,1,4.13-2.25,5.74,5.74,0,0,1,4.33,2.18c1.28,1.36,2.65,2.71,4,4,1.1,1.09,2.21,2.18,3.29,3.3a47,47,0,0,1,13.15,28.16c1.6,14.62-2.26,27.7-11.47,38.87a8.27,8.27,0,0,0-1.53,2.74,12.34,12.34,0,0,1-10.15,9A10.9,10.9,0,0,1,1825.17,271.84ZM1808.94,206h0c-.36,1.34-.76,2.68-1.15,4a87.61,87.61,0,0,0-2.22,8.53,45.19,45.19,0,0,0,8,36.15,61.71,61.71,0,0,1,3.48,5.61c.8,1.41,1.57,2.75,2.41,4a6.62,6.62,0,0,0,6.74,3.24,8.2,8.2,0,0,0,6.9-6.14,12.36,12.36,0,0,1,2.29-4.17A46.42,46.42,0,0,0,1846,221.51a42.92,42.92,0,0,0-12-25.74q-1.59-1.64-3.23-3.22c-1.35-1.34-2.74-2.71-4.08-4.13-.61-.66-1-.88-1.25-.88s-.57.22-1.1.83q-4.87,5.61-9.76,11.2Z"/><path class="b" d="M1835.51,266l-.81-4c.7-.14,1.4-.22,2.08-.29a7.63,7.63,0,0,0,2.92-.66c10.15-6.57,17.78-16.19,22.69-28.6l.31-.77c1.43-3.62,2.91-7.35,3.27-11,.45-4.57-.07-9.42-.57-14.11l-.13-1.27c-.32-3-.62-5.85-2.07-8.46l-.63.24a33.52,33.52,0,0,0-4.13,1.8c-3.12,1.72-6.24,3.58-9.26,5.38-1.27.75-2.53,1.51-3.8,2.25l-2.09-3.55,3.78-2.24c3-1.81,6.2-3.69,9.38-5.45a36.46,36.46,0,0,1,4.64-2c.7-.27,1.41-.55,2.13-.85l1.49-.61,1,1.29c2.86,3.86,3.3,8.08,3.69,11.8l.14,1.26a73.93,73.93,0,0,1,.57,15c-.41,4.21-2,8.22-3.55,12.1l-.3.77c-5.23,13.22-13.4,23.49-24.28,30.54a10.49,10.49,0,0,1-4.72,1.29C1836.6,265.85,1836,265.91,1835.51,266Z"/><path class="b" d="M1815.36,266c-.57-.15-1.2-.25-1.85-.36a13.2,13.2,0,0,1-4.85-1.51c-10.82-6.72-18.65-16.73-23.94-30.58-.25-.66-.51-1.32-.77-2-1.33-3.36-2.71-6.83-3.06-10.5a73.61,73.61,0,0,1,.58-15l.13-1.21c.39-3.72.83-7.94,3.69-11.8l1-1.29,1.49.61c.72.3,1.43.58,2.13.85a37.09,37.09,0,0,1,4.64,2c3.17,1.76,6.33,3.64,9.38,5.45l3.77,2.24-2.08,3.55c-1.27-.74-2.54-1.5-3.8-2.25-3-1.8-6.15-3.66-9.26-5.38a33.52,33.52,0,0,0-4.13-1.8l-.63-.24c-1.45,2.61-1.75,5.46-2.07,8.46l-.13,1.21a71.23,71.23,0,0,0-.57,14.18,36.19,36.19,0,0,0,2.79,9.38c.26.68.53,1.35.78,2,5,13,12.25,22.32,22.27,28.55a10,10,0,0,0,3.36.94c.71.12,1.44.25,2.17.43Z"/><polygon class="b" points="271.42 996.16 144.18 868.92 144.18 996.16 -61.6 996.16 -61.6 1207.69 1057.4 1207.69 1057.4 996.16 271.42 996.16"/><g class="h"><polygon class="b" points="271.42 996.16 144.18 868.92 144.18 996.16 2.97 996.16 2.97 1207.69 401.49 1207.69 401.49 996.16 271.42 996.16"/><path class="f" d="M272.89,1025.64c-.32,0-.65,0-1,0-.78-.06-1.56-.1-2.35-.14a40.73,40.73,0,0,1-7.45-.86c-30.68-7.45-50.14-25.66-57.83-54.12-.7-2.59-1.15-5.25.3-7.25s3.71-2.37,6.82-2.54c9.07-.49,17.87.87,26.11,2.31l-.82,4.73c-8-1.39-16.46-2.71-25-2.25-2.62.14-3.13.51-3.21.58s-.23.61.46,3.16c7.3,27,25.08,43.61,54.33,50.71a35.78,35.78,0,0,0,6.57.74c.82,0,1.64.08,2.45.14a5,5,0,0,0,5.34-2.78l4.21,2.31A9.66,9.66,0,0,1,272.89,1025.64Z"/><path class="f" d="M300.93,1025.67a10.93,10.93,0,0,1-8.76-4.55l3.78-3c1.67,2.12,3.53,3,5.87,2.66,3.41-.44,7-.95,10.54-1.75,27.33-6.26,45-23,52.49-49.86.71-2.51.54-3.13.5-3.23a9.12,9.12,0,0,0-3.24-.49c-8.59-.46-17.07.86-25,2.25l-.82-4.73c8.23-1.44,17-2.8,26.11-2.31,2.56.13,5.42.45,6.9,2.52,1.34,1.87,1.05,4.26.21,7.28-8,28.65-26.87,46.56-56.05,53.25-3.71.85-7.46,1.37-11,1.83A11.15,11.15,0,0,1,300.93,1025.67Z"/><path class="f" d="M286.53,1023.84a12.6,12.6,0,0,1-10.59-6.05c-1.07-1.63-2-3.32-3-5a65.88,65.88,0,0,0-3.77-6.11C259.29,993,255.86,977.6,259,960.89a105.8,105.8,0,0,1,2.7-10.41c.45-1.52.9-3.05,1.32-4.59l3.06.84-2.55-2.23,7-8q5.7-6.54,11.4-13.08a6.57,6.57,0,0,1,4.81-2.62c1.73-.08,3.44.82,5.05,2.53s3.09,3.16,4.63,4.68c1.29,1.27,2.59,2.55,3.84,3.85a54.7,54.7,0,0,1,15.33,32.81c1.86,17-2.64,32.29-13.37,45.3a9.49,9.49,0,0,0-1.78,3.2,14.38,14.38,0,0,1-11.83,10.49A12.35,12.35,0,0,1,286.53,1023.84Zm-18.92-76.7.06,0c-.43,1.56-.89,3.12-1.35,4.68-1,3.26-1.95,6.63-2.58,9.94a52.67,52.67,0,0,0,9.34,42.13,69.77,69.77,0,0,1,4.06,6.54c.94,1.65,1.83,3.2,2.81,4.71a7.69,7.69,0,0,0,7.86,3.77,9.56,9.56,0,0,0,8-7.15,14.41,14.41,0,0,1,2.67-4.86c9.87-12,14-26,12.3-41.73a50,50,0,0,0-14-30c-1.23-1.27-2.49-2.52-3.76-3.76-1.57-1.55-3.2-3.16-4.75-4.81-.72-.76-1.28-1.06-1.46-1s-.67.26-1.29,1q-5.69,6.55-11.4,13.09Z"/><path class="f" d="M298.57,1017.05l-.94-4.7c.81-.17,1.63-.25,2.42-.34a8.9,8.9,0,0,0,3.41-.77c11.82-7.65,20.72-18.87,26.44-33.33l.36-.9c1.67-4.21,3.4-8.57,3.81-12.8.53-5.32-.08-11-.66-16.44l-.16-1.48c-.37-3.5-.72-6.83-2.4-9.87l-.74.29a39,39,0,0,0-4.82,2.09c-3.62,2-7.26,4.18-10.78,6.27l-4.43,2.63-2.44-4.14c1.48-.86,2.94-1.74,4.41-2.61,3.55-2.12,7.23-4.31,10.93-6.35a42.77,42.77,0,0,1,5.4-2.37c.82-.32,1.65-.64,2.49-1l1.73-.72,1.12,1.51c3.33,4.5,3.85,9.42,4.3,13.76l.16,1.47c.61,5.71,1.24,11.61.67,17.42-.48,4.91-2.34,9.58-4.13,14.1l-.36.9c-6.09,15.41-15.61,27.38-28.29,35.59a12.23,12.23,0,0,1-5.51,1.51C299.85,1016.86,299.17,1016.93,298.57,1017.05Z"/><path class="f" d="M275.09,1017c-.67-.17-1.39-.29-2.16-.42a15.48,15.48,0,0,1-5.65-1.75c-12.6-7.84-21.73-19.5-27.9-35.65-.29-.76-.59-1.53-.9-2.3-1.55-3.91-3.15-8-3.56-12.23-.57-5.84.06-11.77.68-17.5l.14-1.39c.46-4.34,1-9.26,4.31-13.76l1.12-1.51,1.73.72c.84.35,1.67.67,2.49,1a42.77,42.77,0,0,1,5.4,2.37c3.7,2,7.38,4.23,10.93,6.35,1.47.87,2.93,1.75,4.4,2.61l-2.43,4.14q-2.22-1.31-4.42-2.63c-3.52-2.09-7.17-4.26-10.8-6.27a38.22,38.22,0,0,0-4.81-2.09l-.74-.29c-1.68,3-2,6.37-2.4,9.87l-.15,1.4c-.59,5.49-1.19,11.17-.67,16.52.35,3.6,1.82,7.33,3.25,10.94.31.79.62,1.57.91,2.35,5.78,15.13,14.27,26,26,33.28a11.49,11.49,0,0,0,3.91,1.1c.83.14,1.68.28,2.52.49Z"/></g><path class="e" d="M406.53,17C396,83.38,362.64,126.54,305.42,148.22,363.26,169.35,396,213.5,406.87,279.59c4.35-31.15,14.77-58.72,32.51-82.24s40.35-39.47,69.33-49C449.85,126.21,417.27,82.54,406.53,17Zm-10.86,90.54c1.63-1.29,3.47-2.43,5.38-1.48,1.38.68,2.76,1.33,4.15,2-2.22-1.84-4.36-3.88-6.5-5.91,2.26-4.73,6.43-7.81,8.87-13.54,2.71,11.5,11,17.52,16.58,26a18.57,18.57,0,0,1-6.4,0,41.8,41.8,0,0,1,11.76,10.53c2.18,1.39,4.7,2.12,6.5,4.26,4.22,2.51,8.95,4.3,10.94,10L392.09,112.1Zm7.62,93.07c2.35-3.39,4.45-1.7,6.53.43C407.26,208.24,405.2,205.82,403.29,200.64Zm11.26-8c-7.16,4-13.17.73-19-3.85L391.71,181c9.27.09,17.35,4.88,25.75,8.36Zm7.18-8.51c-14.84-5.13-27.57-13.84-43-16.48l-4.93-5.82c11.61-3.18,23.91,3.63,34.13,8.08,5.85,2.55,12.24,3.92,17.72,7.68C425,178.76,422.38,183,421.73,184.12Zm29.85-31.71c-6.53,3.64-12.37.84-18.13-2.53-4.81-2.8-9.45-6-14.32-8.67,6.89,3.94,13.36,8.76,20.54,12.1a6.4,6.4,0,0,1,4.09,5.49l-2.23,2.42c-7.46,4.22-12.81-3.77-19.6-4.48,3.13,5,10.6,3.86,11.68,11.26l-1.87,3.26c-10.16,2.9-18.84-3.69-27.4-7.24-10.94-4.55-21.51-8.75-33.21-8.78-2.91,0-5.57-1.51-8.31-2.48l-3.12-2.28c.56-6.52,5.37-6.15,9.21-7.23,6.3-1.78,12.75.67,19.4-.61-4.33-5.5-13.67.91-15.59-9.06l3.06-3.87c6.75-5.05,13.35-2.74,20.06.35-3.73-3-9.82-1.38-11.84-7.63a6.73,6.73,0,0,1,4.05-4.47c8.19-4.29,15.77.44,21.77,4.65,14.51,10.17,30.6,16.14,45.59,24.86C455.61,150.59,453.66,151.56,451.58,152.41Z"/><path class="e" d="M362.82,152.76c14.79-2.37,28.33-.35,42.29,7.67,8,4.57,17.9,6.58,26.62,10.84a13.48,13.48,0,0,1-6.08,6.32c-7.77,2-14.06-3-20.86-5.66a271.28,271.28,0,0,0-31-10.11C369,159.19,365.73,158.28,362.82,152.76Z"/><path class="e" d="M455.41,147.47c-15-.58-27.55-9.28-39.93-17.17-8.83-5.62-18-9-27.42-12.34q2-2.94,4-5.87c14.92,0,26.42,10.42,39.08,17,5.38,2.79,11.2,5.51,15.77,10.26C450,141.78,454.48,142.22,455.41,147.47Z"/><path class="e" d="M372.72,133.58c6.15,1.41,12.31,2.76,18.44,4.27,2.34.58,5.87.46,5.45,4.43-.45,4.28-3.57,5.27-7.18,5.12-6.93-.28-13.82-1.94-20.83-.38-3.15.71-6.26,1.18-8.9,3.46-2.95-1.3-4.78-3-1.15-5.86C363.23,140.88,368,137.25,372.72,133.58Z"/><path class="e" d="M391.71,181c-6.32-1.94-10-7.2-13-13.34,3.54-2.57,6.41.8,10.15,2.21,11.47,4.35,21.75,8.21,34.85,11.24a14.42,14.42,0,0,1-6.26,8.26C408,190.12,399.85,185.54,391.71,181Z"/><path class="e" d="M443.76,158.8c-11.68-6.67-25.11-10.2-33.14-23.69,14.64,3,25.81,16.2,41,17.3C449.87,156,447,157.62,443.76,158.8Z"/><path class="e" d="M433.61,168c-4.95-2.54-9.93-5-14.83-7.66-2.06-1.11-5.82-1.26-4-5.6,1.42-3.44,4.07-4.08,7.31-2.69,6.57,2.82,12.25,8.09,19.46,9.17C439.94,165.06,436.75,166.49,433.61,168Z"/><path class="e" d="M398.7,102.17l25.44,12.42c1.88,3.47,5.66,5.68,5.39,10.56-11.79-4.6-21.62-14.07-33.86-17.58Z"/><path class="e" d="M384,122.43q8.65,3.25,17.3,6.51c2,.75,5.18.68,3.75,4.48-1.1,2.94-3.53,2.26-5.83,1.21-7.51-3.42-15.24-5.66-23.44-4.92Z"/><path class="e" d="M395.57,188.78c6.73-1.33,12.62,2.73,19,3.85a15.12,15.12,0,0,1-4.72,8.45,7,7,0,0,1-6.53-.44C399.86,197.41,397.52,193.25,395.57,188.78Z"/><path class="e" d="M436,129.38c-2.8-.23-4.91-1.82-6.57-4.3C432.77,124.26,434.71,126.19,436,129.38Z"/><path class="b" d="M-.61,540.18c-4.8,30.2-20,49.85-46,59.72,26.33,9.62,41.25,29.71,46.18,59.8,2-14.18,6.72-26.73,14.8-37.44s18.36-18,31.56-22.31C19.11,589.88,4.28,570-.61,540.18Zm-4.94,41.21c.74-.58,1.58-1.1,2.45-.67l1.89.91c-1-.84-2-1.77-3-2.69,1-2.16,2.93-3.56,4-6.17,1.23,5.24,5,8,7.54,11.82a8.36,8.36,0,0,1-2.91,0,19,19,0,0,1,5.36,4.79,11.08,11.08,0,0,1,3,1.94c1.93,1.14,4.08,2,5,4.54l-25-12.4Zm3.47,42.37c1.07-1.55,2-.77,3,.19C-.27,627.22-1.21,626.12-2.08,623.76ZM3,620.11c-3.25,1.83-6,.33-8.63-1.75l-1.76-3.56c4.22.05,7.89,2.23,11.72,3.81Zm3.28-3.87c-6.76-2.34-12.56-6.3-19.58-7.5l-2.24-2.65c5.28-1.45,10.88,1.65,15.53,3.68,2.67,1.15,5.57,1.78,8.07,3.49C7.8,613.8,6.61,615.71,6.32,616.24ZM19.9,601.8c-3,1.66-5.63.39-8.25-1.14-2.19-1.28-4.3-2.73-6.52-3.95,3.14,1.79,6.08,4,9.35,5.5a2.93,2.93,0,0,1,1.86,2.5l-1,1.1c-3.4,1.92-5.84-1.71-8.92-2,1.42,2.28,4.82,1.75,5.31,5.12l-.85,1.49c-4.62,1.32-8.58-1.68-12.47-3.3-5-2.07-9.79-4-15.12-4A11.51,11.51,0,0,1-20.5,602l-1.42-1c.25-3,2.44-2.8,4.19-3.3,2.87-.8,5.8.31,8.83-.27-2-2.5-6.22.41-7.09-4.13l1.39-1.76c3.07-2.3,6.07-1.24,9.13.16-1.7-1.37-4.47-.63-5.39-3.47a3.07,3.07,0,0,1,1.84-2c3.73-2,7.18.21,9.91,2.12,6.6,4.63,13.93,7.35,20.76,11.31C21.73,601,20.85,601.42,19.9,601.8Z"/><path class="b" d="M-20.5,602a28,28,0,0,1,19.25,3.49c3.63,2.09,8.14,3,12.12,4.94a6.15,6.15,0,0,1-2.77,2.88c-3.54.9-6.4-1.36-9.5-2.58a122.07,122.07,0,0,0-14.1-4.6C-17.71,604.89-19.18,604.47-20.5,602Z"/><path class="b" d="M21.65,599.55c-6.83-.26-12.55-4.22-18.18-7.81A58.72,58.72,0,0,0-9,586.12l1.84-2.67c6.8,0,12,4.74,17.8,7.74,2.44,1.27,5.09,2.51,7.17,4.67C19.17,597,21.22,597.17,21.65,599.55Z"/><path class="b" d="M-7.35,614.8c-2.88-.88-4.55-3.27-5.91-6.07,1.61-1.17,2.91.37,4.62,1a115.61,115.61,0,0,0,15.86,5.12,6.53,6.53,0,0,1-2.85,3.75C.05,619-3.65,616.89-7.35,614.8Z"/><path class="b" d="M16.34,604.71c-5.32-3-11.43-4.64-15.08-10.78C7.92,595.29,13,601.3,19.9,601.8A5.77,5.77,0,0,1,16.34,604.71Z"/><path class="b" d="M11.72,608.9c-2.25-1.15-4.52-2.28-6.75-3.49-.94-.5-2.65-.57-1.83-2.54C3.79,601.3,5,601,6.47,601.64c3,1.29,5.57,3.68,8.85,4.17C14.6,607.56,13.15,608.21,11.72,608.9Z"/><path class="b" d="M-4.17,578.94l11.58,5.65c.86,1.58,2.58,2.59,2.46,4.8C4.5,587.3,0,583-5.55,581.39Z"/><path class="b" d="M-5.59,618.36c3.06-.61,5.74,1.24,8.63,1.75A6.88,6.88,0,0,1,.89,624a3.19,3.19,0,0,1-3-.2A15.86,15.86,0,0,1-5.59,618.36Z"/><path class="b" d="M12.81,591.32a4,4,0,0,1-3-2C11.34,589,12.22,589.87,12.81,591.32Z"/><path class="b" d="M299.82,294.91c2.43-1.26,4.34-2.73,6.49-3.29,38.94-10.14,73.75-2.45,104.31,24.06,5,4.31,5.87,7.54.64,12.51-11.75,11.15-23,22.81-34.47,34.28-3.06,3.08-5,4.85-9.43.32C345.56,340.24,323.18,318.26,299.82,294.91Zm58.67,2.34c.05,14.53.54,28.79,0,43-.32,7.63,2.46,12.3,10,16.55-.09-17.87-.47-34.48-.1-51.09C368.52,299.12,365.72,297.05,358.49,297.25Zm16.72,4c-.36,18.31-.71,36.14-1.07,54.89,13.25-15.08,5-32.83,6.73-48.92C381.09,305.15,376.55,302.58,375.21,301.24Zm-21.77,42.43c.2-16.57.39-31.92.58-48l-9.61-.95C349.19,311.3,338,329.33,353.44,343.67Zm-14-14.6c.29-11.08.59-22.66.91-35l-8.73-.45C334.93,306.71,326,321.13,339.4,329.07Zm48-22.51c-.19,12.4-.37,24-.55,35.35,11.82-6,7.12-17.48,7.19-27.06C394,312,389.47,309.05,387.36,306.56ZM326,315.76q.69-9.81,1.5-21.18L319.84,296C317.72,305,319.13,312.11,326,315.76Z"/><path class="e" d="M1381.7,685.81l-15,15.7,14.73,16,15.2-15.78Zm7.48,14.81-7.25,9.26-7.43-8.27,6.49-6.81Z"/><path class="e" d="M1354.34,656.86l-14.49,15.45L1353.9,687C1371.67,676.17,1371.8,671.25,1354.34,656.86Zm7.94,14.48-6.83,9.2-7.64-8.39,7.41-7.75Z"/><path class="d" d="M302.78,98.6c-4.73,7-9.69,13.84-14.15,21-11.86,19-11.71,39-2.71,58.73,2.58,5.65,8.8,9.95,14.09,13.88,1.91,1.42,6.14.43,9-.48,1.07-.34,2.2-4.79,1.61-5.26-2.08-1.65-4.88-2.41-7.42-3.5,5.6-10,16.13-10.53,22.21-.94,7.83,12.38.86,31.79-13,36.31-15.92,5.18-32.41-.68-41.85-15-8.66-13.15-11.21-27.46-7.47-42.75,5.79-23.59,17.75-43.71,34.81-60.86a18.52,18.52,0,0,1,3.76-2.32Z"/><path class="e" d="M151.87,861.28c1.14.53,2.37,1.66,3.4,1.49,2.55-.41,5.86-.71,7.22-2.39,1-1.21,0-5.09-1.33-6.85-3.86-5.12-11.82-6.08-18-1.61-4.43,3.17-7.92,7.71-11.57,11.85-1.81,2.06-3,4.62-5.25,8.05-1.62-18.78,18-39.16,34.58-37.76,11.33,1,20.17,9.33,21.4,20.27,1.1,9.77-4.75,19.72-14.11,21.19-4.66.73-10.39-1.15-14.63-3.59-2.32-1.34-2.54-6.31-3.72-9.65Z"/><path class="e" d="M388.67,429.28c1.14.54,2.37,1.66,3.4,1.5,2.55-.41,5.86-.72,7.22-2.4,1-1.2,0-5.09-1.33-6.85-3.86-5.12-11.82-6.07-18.06-1.6-4.42,3.17-7.91,7.7-11.56,11.85-1.81,2.05-3,4.61-5.25,8.05-1.62-18.79,18-39.17,34.58-37.77,11.32,1,20.16,9.34,21.4,20.28,1.1,9.77-4.75,19.71-14.11,21.18-4.66.74-10.39-1.14-14.63-3.59-2.32-1.34-2.55-6.31-3.72-9.64Z"/><path class="e" d="M1555.51,257c1.14.54,2.38,1.66,3.4,1.5,2.56-.41,5.86-.72,7.22-2.4,1-1.2,0-5.09-1.33-6.85-3.85-5.12-11.82-6.07-18-1.6-4.42,3.17-7.92,7.7-11.57,11.85-1.81,2-3,4.61-5.24,8-1.62-18.78,18-39.16,34.57-37.76,11.33,1,20.17,9.33,21.4,20.27,1.1,9.78-4.75,19.72-14.1,21.19-4.66.73-10.39-1.15-14.63-3.59-2.32-1.34-2.55-6.31-3.72-9.64Z"/><path class="e" d="M1937.33,173.47c-13.49,0-27-.17-40.46.1-5.08.09-7.08-1.33-6.71-6.73,2.14-31,16.74-54.06,43.55-69.42a8.23,8.23,0,0,1,6.91-.13c26.82,15.33,41.45,38.44,43.7,69.36.37,5.1-1.16,7-6.53,6.92C1964.31,173.25,1950.82,173.47,1937.33,173.47Zm-1.93-5.64v-65c-23.51,11.77-42.37,43.46-39,65Zm30.89-40.19c-8.19,8.47-15.38,16.36-23.11,23.7-4.13,3.93-5.81,7.89-4.18,12.7l30.72-30.46Zm-28,22.09,25.88-25.14-4.29-4.84C1953.43,131,1938.09,134.92,1938.33,149.73Zm34.32-10.19-29.18,28.74c4.15-.66,8.48-1.91,11.64-4.56,5.66-4.74,10.42-10.53,15.92-15.49C1974.82,144.82,1974.72,141.87,1972.65,139.54Zm-19.48-26.87c-4.8,8.27-17.4,11.11-14.49,22.51l19.19-18.1Zm3.45,55c10.22,3.28,14-5.36,19.21-10.55,1.55-1.54.61-5.58.91-9.78Zm-10.43-60.7c-6,3.78-9.57,8.24-7.15,15l12.14-11.11Z"/><path class="d" d="M64,809.92c31.14-.4,62.28-1,93.42-1,7.94,0,9.76-2.88,9.27-10.29-3.49-53.45-50.19-96.22-104.5-95.37-54.56.86-99.49,44.58-101.54,98.32-.31,8.06,2.58,9.79,9.92,9.63C1.73,810.52,32.88,810.31,64,809.92Zm79.49-8.34c-.38-2.86-.59-4.65-.86-6.44-5.88-38.34-38.68-67.83-75.93-68.3-40.64-.51-74.49,26.53-81.44,65C-17.2,805.64-17.2,805.64-32.39,803c2.1-34.81,17.55-62,47.65-79.39,33.55-19.43,68-18.51,100.64,2.3,27.09,17.25,41.26,42.85,43.94,75.52ZM.31,804.27C-4,784.66,12,758.85,33.54,747.76a65.55,65.55,0,0,1,77.53,12.84c12.81,13.22,20.39,33,14.91,43.27-6.92-35.69-26.08-58.35-62.71-58.07C26.27,746.08,7.55,769.45.31,804.27Zm98.27-2.73c-5.74,2.21-8.78,1.15-11-4.54-4.15-10.71-12.67-16.5-24.09-16.38s-19.94,5.9-23.84,16.75c-2.2,6.15-5.37,7.18-10.76,5.07a34.13,34.13,0,0,1,33.26-31.59C80.89,770.21,95.79,782.55,98.58,801.54Zm39.25-.37c-7.42-38.31-28.44-64.2-68.19-66.76-47-3-71.67,24.45-80.53,68.75-2.71-38.37,34.29-73.36,76-72.81C104.55,730.87,141.58,766.39,137.83,801.17Zm-95.3,1.62c2.24-12.15,10.88-19.16,22.38-18.58,10.43.53,18.19,7.63,19.39,18.06Zm-9.88-27.12c-5.12,7.83-7,7.63-16.76-1.67l7.62-8.79Zm5.61-4.14-9.49-11.14,12.9-7.3C40.08,760.51,50.7,766.52,38.26,771.53Zm7.2-20.17,13.85-2.11.17,14C47.79,768,50.58,757,45.46,751.36Zm52,8.2-9.18,11.31c-12.46-4.79-2.66-11.06-2.42-17.71Zm21.73,31.24c-.38,1.11-.75,2.23-1.12,3.34l-14.52-2.93,10.68-13.1C116.67,784.29,118,787.55,119.22,790.8Zm-108.08-8,3.21-1.69,9,11.53L6.94,795.47Zm87.74-1.25c-9.23-8.92,1-11.51,4.1-17.37,3,3.6,5.4,6.43,8.35,10Zm-32-32.88,13,2.66c-4.09,5.43-1.13,16-12.79,11.85Z"/><path class="f" d="M499.22,347.78c-23.37.29-46.74.75-70.1.75-6,0-7.33,2.16-7,7.72,2.62,40.11,37.66,72.21,78.41,71.57,40.95-.65,74.66-33.46,76.2-73.78.24-6.05-1.94-7.35-7.45-7.23C546,347.32,522.59,347.48,499.22,347.78ZM439.57,354c.29,2.15.44,3.49.65,4.83,4.41,28.77,29,50.91,57,51.25,30.49.38,55.89-19.9,61.1-48.8C560.17,351,560.17,351,571.56,353c-1.57,26.12-13.16,46.5-35.75,59.57-25.18,14.58-51,13.89-75.52-1.72-20.33-12.94-31-32.15-33-56.67ZM547,352c3.26,14.72-8.73,34.09-24.93,42.41a49.19,49.19,0,0,1-58.18-9.64c-9.61-9.92-15.3-24.76-11.19-32.47,5.2,26.78,19.57,43.79,47.06,43.58C527.54,395.68,541.59,378.14,547,352Zm-73.73,2.05c4.3-1.65,6.59-.86,8.24,3.41,3.12,8,9.51,12.38,18.08,12.29s15-4.43,17.89-12.57c1.65-4.61,4-5.39,8.07-3.8a25.61,25.61,0,0,1-25,23.7C486.56,377.57,475.38,368.31,473.29,354.06Zm-29.46.28c5.57,28.74,21.34,48.17,51.17,50.1,35.26,2.28,53.78-18.35,60.43-51.59,2,28.79-25.73,55-57,54.63C468.8,407.09,441,380.43,443.83,354.34Zm71.51-1.21c-1.67,9.11-8.16,14.37-16.79,13.93A14.87,14.87,0,0,1,484,353.51Zm7.42,20.34c3.84-5.87,5.24-5.73,12.58,1.25l-5.72,6.6Zm-4.21,3.11,7.12,8.36L516,390.42C517.19,384.85,509.22,380.34,518.55,376.58Zm-5.41,15.13-10.39,1.59-.13-10.47C511.39,379.2,509.3,387.51,513.14,391.71Zm-39-6.15,6.89-8.48c9.35,3.59,2,8.29,1.82,13.28Zm-16.3-23.44.84-2.51,10.89,2.2c-2.32,2.86-4.65,5.72-8,9.83Zm81.1,6-2.41,1.27q-3.36-4.32-6.73-8.65l12.29-2.15C540.55,363.14,539.72,365.64,538.9,368.14Zm-65.84.95c6.93,6.69-.77,8.63-3.08,13l-6.26-7.47Zm24.05,24.67-9.73-2c3.07-4.08.84-12,9.59-8.89Z"/><polygon class="d" points="1879.54 356.49 1879.54 996.16 1500.63 996.16 1500.63 1018.14 1478.89 1018.14 1478.89 1039.88 1457.14 1039.88 1457.14 1061.63 1435.39 1061.63 1435.39 1083.38 1413.64 1083.38 1413.64 1105.13 1391.89 1105.13 1391.89 1126.88 1239.98 1126.88 1239.98 1207.69 1879.54 1207.69 1883.37 1207.69 1919.91 1207.69 1919.91 356.49 1879.54 356.49"/><rect class="e" x="80.16" y="371.52" width="21.75" height="21.75" transform="translate(182.06 764.78) rotate(180)"/><rect class="e" x="58.41" y="393.49" width="21.75" height="21.75" transform="translate(138.56 808.74) rotate(180)"/></g></svg>