<svg xmlns="http://www.w3.org/2000/svg" width="471" height="472" viewBox="0 0 471 472"><defs><style>.a{isolation:isolate;}.b{mix-blend-mode:multiply;}.c{fill:#bf3b2a;}.d{fill:#f2994a;}.e{fill:#fff;}</style></defs><g class="a"><g class="b"><path class="c" d="M229.21,465.72c-11.93-.42-23.86-.79-35.75-2a116.23,116.23,0,0,1-19.61-3.38A49.06,49.06,0,0,1,154.23,450C143,440.1,130.05,434.62,115,432.81c-14.7-1.76-26.28-10-34.31-22.49a115.28,115.28,0,0,0-24.61-27c-8.72-7.08-15.49-15.86-21.77-25-14.55-21.28-25-44.36-30.6-69.61A49.48,49.48,0,0,1,3,271.26,82.6,82.6,0,0,0,2.24,244c-4.61-23.5.17-45.82,6.6-68.34C14,157.7,23.36,142,31.46,125.59c3.67-7.42,6.14-15.42,11.08-22.24,6.29-8.7,13.1-16.85,22-23.1,7.56-5.34,14.15-11.87,21.35-17.65a83.21,83.21,0,0,1,14-9.18c8.16-4.19,15.36-9.88,23.13-14.68,8.48-5.24,17-10.31,26.69-13.24a44.06,44.06,0,0,0,13.63-7.4c14.5-11,31-13.41,48.43-11.52a189.53,189.53,0,0,0,35.41.69c14.27-1.12,28.49.78,42.28,4.37,24,6.25,47.53,14.06,69.45,26,9.54,5.22,19.94,8.84,28.78,15.39,8.09,6,15.06,12.92,19.87,22a78.42,78.42,0,0,0,17.67,22.74c3,2.63,6.54,4.39,9.88,6.47,8.92,5.57,14,14.24,18.92,23.08,6.76,12.16,10.49,25.47,14.6,38.63a24.61,24.61,0,0,1,.48,11.11,72.82,72.82,0,0,0,.39,25.42c2.31,11.35,1.9,22.7,1.44,34.12a163.35,163.35,0,0,0,.2,19.91,60.1,60.1,0,0,1-1.56,19.5c-2,8-2.37,16.2-3.46,24.31-2,15.14-7.54,28.69-18.67,39.73a80.61,80.61,0,0,0-18.86,28.68,67.72,67.72,0,0,1-25,32.13c-15.44,10.87-30.5,22.31-46.72,32-13.71,8.21-28.15,14.55-44.24,16.64-7.55,1-14.73,3.77-21.56,7-10.67,5.08-21.95,7.39-33.52,8.93C248.06,466.73,238.65,466.28,229.21,465.72ZM190.13,340.28a133.13,133.13,0,0,1-21.58,2.42,118.45,118.45,0,0,1-43.73-6.32c-7-2.47-13.92-5.37-18.63-11.74-2.28-3.08-3.15-6.35-2.12-9.91,2.93-10.15,11.22-17.8,23.25-17.18,4.17.22,7.84,2,9.82,6.12,1.22,2.54.18,5.06-.09,7.59s0,5,2.49,6.18,4.66.19,6.49-1.67a9.67,9.67,0,0,0,1.47-11.22c-4.5-8.48-18.6-15.74-29-12.88-11.66,3.18-19.82,11.65-20.67,23.63C97.1,325.08,101.7,333,109.27,339c8.18,6.51,17.62,10.42,27.7,12.95.74.19,1.87,0,2.1,1,.18.81-.78,1.12-1.28,1.6-7.15,6.7-13.42,14.09-18,22.83a20.71,20.71,0,0,1-7.47,8.17,10.75,10.75,0,0,1-12.26-.51,11.19,11.19,0,0,1-3.16-12.45c.58-1.48,1.38-3.18,3-3.29,1.83-.13,1.85,1.95,2.34,3.22,1.64,4.3,3.18,5.07,7.14,3.4,3.74-1.59,5.15-4.88,3.55-8.29-3-6.29-11.91-7.47-17.59-2.32-4.75,4.31-5.93,12.49-2.73,19,2.31,4.69,9.16,7.47,15.7,6.34a41.72,41.72,0,0,0,9-2.47c1.54-.64,2.38-.85,2.16,1.58-.19,2-1.46,4-.37,6.05,2.18,4.16,4.73,8,8.73,10.69,6.23,4.23,12.76,7,20.45,4.84,8.85-2.48,18.42-10.53,17.28-21.73-1-10.06-10.54-17-19.95-13.84-4,1.31-6.86,5.85-6.15,9.64.74,4,4.47,6.43,9.2,6.06a6,6,0,0,0,5.57-5.66c.27-2.82-1.14-4.31-3.68-4.89-2.1-.48-4.42,1.33-5.06,3.65-.21.77.62,2.21-.86,2.21-1.1,0-1.67-1.2-2-2.19a5,5,0,0,1,2.25-6.18c5.23-3.38,12.26-.54,14.21,5.76a22.45,22.45,0,0,1,.75,7.39c-.22,7.45-5,11.79-12.3,11.05a12,12,0,0,1-7.44-3.55c-3-3-6.27-4.24-10.38-2.26-2.2,1.06-3.6.11-4.65-2.1a16.14,16.14,0,0,1-1.08-11.2,35.53,35.53,0,0,1,15.21-21.29c6.41-4.32,13.4-7.17,21.43-7.28a126.22,126.22,0,0,0,18-1.21A159.82,159.82,0,0,0,232,334.73c.71-.4,1.4-1,2.36-.32-3,5.41-6.64,10.51-8.73,16.42-2.28,6.48-4.38,12.9-3,20,1.22,6.41,4.06,12.17,6.58,18.05,1.86,4.34,1.08,8.1-1.22,11.79-1.39,2.26-3.14,4.29-6.21,3.87a10.53,10.53,0,0,1-7.64-4.8c-.61-.91-.88-2,.25-2.76,1.38-.88,1.42.64,1.89,1.27,1.91,2.58,4.06,3.2,6.06,1.71s2.65-5.29,1.2-7.29c-2.29-3.16-8.44-3.51-11.84-.68-3.74,3.11-4.41,7.79-1.26,10.92,7.9,7.86,18.13,5.46,22.61-3.51,1.61-3.24,1.49-3.28,4.48-1,5.56,4.25,11.4,8,18.36,9.48a5,5,0,0,1,3.13,2.32,11.41,11.41,0,0,0,9.87,4.9c4.64,0,8.7-1.71,12.63-3.86,7.6-4.15,13.11-11.09,20.56-15.49,1.68-1,1.31-2.43-.68-3.12s-3.92-1.33-5.83-2.13c-8.07-3.4-16.27-5.81-25.2-6.13-8.15-.29-15,7.56-13.57,15.5.29,1.57-.26,3.2-2.35,2.51-7.14-2.34-14-5.18-18.83-11.41-3-3.88-4.32-8.47-5.55-13.07-4.1-15.28.4-28.5,10.31-40.09,6-7.06,13.77-12.2,21.63-17.12,10.78-6.75,22.68-10,35-12.24,2.49-.45,4,0,3.7,3.07a3.58,3.58,0,0,0,2.25,4c3.21,1.46,4.92.6,6.24-3.52.43-1.32,1-2.34,2.37-2.57a3.18,3.18,0,0,1,3.11,1.7c.63.94,1,2.05,1.62,3s1.58,1.95,2.74,1.4.74-1.75.3-2.76c-.32-.73-1-1.62-.17-2.26s1.56.23,2.24.62c.89.51,1.62,1.32,2.53,1.78,2,1,4.37,1.43,5.67-.56s2.64-1.65,4.19-1.17a58.57,58.57,0,0,1,12.82,5.53,8.2,8.2,0,0,1,4.24,6.11c1,10.5-2,20.08-14.84,21.74-4.79.62-9.89-1.55-11.61-5-3.07-6.16-2.5-10.74,1.83-15.1.69-.7,1.75-1.2,1.67-2.45-5-.17-10.69,6.47-10.14,11.86a17,17,0,0,0,19.72,15.22A20.64,20.64,0,0,0,354.86,329c0-1.5,0-3,0-5.06,4.5,4.93,6.26,10.51,7.72,16.21,5,19.45-8.73,35.21-25.46,38.65-8.3,1.7-13-2-14.07-10.41-.35-2.79-3.18-5.33-6.28-5.6s-4.18,1.94-5.11,4.42,0,4.75.32,7.23c-1.76-1.52-3.7-2.59-5.2-4.37-4.31-5.13-6.33-11.2-7.28-17.6-.86-5.83-.4-11.52,5.49-15.05a14.84,14.84,0,0,1,6.44-2.09c1.06-.09,2.29-.19,2.22-1.6s-1.26-1.46-2.33-1.56c-.82-.08-1.65-.12-2.47-.26a16.53,16.53,0,0,0-18.34,10.57c-2.34,6.25-2.33,12.65-1,19,2.31,10.92,8.72,18.44,19.52,21.77,10.41,3.22,20.92,2.28,31.4.28,1.92-.36,2.89-.42,1.89,2a14.21,14.21,0,0,0-1,4.22c-.63,7.43,2.38,13,10.83,15.53,7.37,2.22,14.3-1,17-7.64a9,9,0,0,0-8.92-12.45,5.16,5.16,0,0,0-4.78,3.37c-2,4.86,1.63,8.79,7.85,8.14-2.26,4.25-6,4.81-10.09,4.7a8.64,8.64,0,0,1-8.22-6c-2.22-6.35-.39-11.94,5.27-15.74a42.26,42.26,0,0,0,17.45-24.2c.29-1-.26-2.71,1.1-2.93,1.19-.18,1.53,1.51,2.27,2.32a13.75,13.75,0,0,0,7.55,4.65c2.45.47,5.42-1,5.91-3,.64-2.65-.94-4.08-3.16-5a50,50,0,0,0-4.94-1.86,14.77,14.77,0,0,1-9.14-8c-1.78-3.6-2.6-7.68-3.95-11.9,2.45.43,4.38.7,6.27,1.11,13,2.82,19-4.72,18.89-16.12a7.59,7.59,0,0,0-2.28-5.28c-4.15-4.49-9.44-5.36-15.15-4.44a5.62,5.62,0,0,0-4.42,5.67c0,2.87,2.48,6.59,4.72,7.09,3.22.73,5.54-1.63,5.83-5.89,0-.6-.28-1.33.37-1.71s1.14.22,1.59.61c2.73,2.34,5.47,4.78,4.76,8.85s-3.42,6.78-7.32,8.16c-5.66,2-13-.25-17.4-5.3a52.51,52.51,0,0,0-24.3-16c-1.82-.57-3.08-1.19-3.68-3.16a4.26,4.26,0,0,0-4.1-2.86,15.13,15.13,0,0,0-6.17.37c-1.81.62-2.74.44-2.27-1.88a4.42,4.42,0,0,0-1.08-4.35c-1-.94-1.8-1.52-2.21.55a20.63,20.63,0,0,1-1.61,4.36c-1,2.17-2.32,2.84-4.21.78a9,9,0,0,0-6.33-3c-2.94-.16-5,1.79-4.38,4.62s-.58,2.79-2.63,2.8a78.87,78.87,0,0,0-25,4.33C260.7,312.64,251.38,318.94,241,323c-11.24,4.42-21.86,10.29-34.1,12.28-9.1,1.47-17.22,1.66-24.19-5.39-1.78-1.8-2.2-2.64.43-3.85,3.75-1.73,6.42-4.41,6.84-8.89a7.22,7.22,0,0,0-.6-3.57c-3.24-8-10.23-12.62-16.26-18.08-1.35-1.22-2,.14-2.29,1.33-1,4.88-2.63,9.58-4.06,14.34a18,18,0,0,0-.64,6.15c.23,3.9.79,8.16,5,9.56a16.68,16.68,0,0,1,8.5,6.07c.18.24.51.36.73.58C183.27,336.3,186.89,337.91,190.13,340.28Zm147.55-224.4c.18-.47.2-.71.33-.83A86,86,0,0,0,357.7,90.16a19,19,0,0,1,7.08-7.24c4.29-2.59,9.37-2.22,12.46.68a11.23,11.23,0,0,1,2.61,12.84c-.64,1.32-1.44,2.89-3,2.87s-1.44-1.84-1.83-3c-.76-2.15-1.65-4.36-4.17-4.49a7.15,7.15,0,0,0-6.73,3.73c-1.33,2.32-.75,4.63.89,6.64a11,11,0,0,0,16.48,1c4.65-4.32,5.16-9.62,4-15.45s-5.37-9.57-11.16-9.87c-5-.25-9.95.17-14.53,2.49-2.51,1.28-2.79-.18-2.31-2,1.17-4.39-.45-7.9-3-11.24a24.58,24.58,0,0,0-4.3-4.46C345.34,59,340,56.07,333.7,56.34c-7.91.34-14.23,4.28-19,10.51s-4.56,14.25.16,20.54c4.48,6,10.35,7.71,17.3,5.11,3.94-1.48,6.44-6.79,5.08-10.76-1.2-3.52-6.11-5.81-10.1-4.71a6.15,6.15,0,0,0-4.37,6.39c.16,2.39,1.27,4.08,3.72,4.21,3.1.17,4.74-1.7,5.19-4.62.27-1.69,1-1.22,1.85-.53,1.82,1.57,1.73,4.68-.17,6.72-2.7,2.91-8,3.17-11.38.55-6.12-4.79-6.86-15.64-1.41-21.19a8.2,8.2,0,0,1,5.47-2.6c4-.27,7.8.38,10.69,3.25,3.31,3.29,6.78,4.5,11.15,2.36,1-.5,2.37-.86,3,.52,1.33,2.88,3.06,5.59,2.77,9.06a31,31,0,0,1-6.92,16.71c-7.28,9.29-16.88,14.87-28.65,15.52-8.6.47-17.16.85-25.61,2.56-17,3.43-33.15,9-47.79,18.56-.83.54-1.86,1.43-3.07.2a67.37,67.37,0,0,0,11.64-22.53c1.46-4.7,2.21-9.49,1.15-14.4a57,57,0,0,0-4.62-13.48c-2.52-5.09-4.79-10.19-1.17-15.8,1.54-2.39,3.39-4.64,6.24-4.58,3.13.06,5.74,2,7.8,4.39.79.91,1.15,2.37.13,3.09-1.37,1-1.57-.76-2.09-1.49A4.28,4.28,0,0,0,256.42,68c-1.76.21-2.66,1.44-3.28,3-1.34,3.25.17,5.81,4.23,7.16a8.53,8.53,0,0,0,10.14-4c2-3.64,1.07-7.4-2.51-10.12-7.4-5.62-17.46-3.19-21,5.37-1.24,3-2,2.37-4,.87-5.8-4.41-11.87-8.39-19.24-9.74A2.42,2.42,0,0,1,219,59.28c-3.92-6.29-10.78-7.05-17.32-4.93-10.74,3.49-17.41,12.86-26.74,18.4-1.67,1-.71,2.34.84,3,2.21.88,4.49,1.61,6.66,2.57a70.19,70.19,0,0,0,22.47,5.77c7.47.64,13.1-3,15-10.16a25.9,25.9,0,0,0,.79-6.14c0-1.81.6-2.09,2.22-1.58,10.65,3.34,19.21,8.65,22.85,20.26,4.65,14.88,2.81,28.35-6.52,40.87-6.53,8.76-15.21,14.83-24.36,20.46a91.25,91.25,0,0,1-35.76,12.47c-1.7.23-3.3.64-2.67-2.32.55-2.58-1.73-5.15-4.27-5.67-2.93-.61-3.4,1.65-4.19,3.56-.11.29-.14.61-.26.89a3,3,0,0,1-2.4,2.2,3.16,3.16,0,0,1-3.05-1.78c-.62-1-1.17-2-1.76-2.93s-1.36-1.79-2.5-1.28c-1.37.61-.47,1.73-.37,2.7s1.26,1.85.21,2.51-1.6-.62-2.35-1.1c-.35-.22-.69-.46-1-.69-3.6-2.44-4.71-2.41-7.71.6a2.2,2.2,0,0,1-2.5.54A53.9,53.9,0,0,1,129,150.75a5,5,0,0,1-1.91-2.36C123,139,128.52,127,138.33,124.54c4.73-1.21,9.75-1.35,13.21,2.89,3.1,3.79,4.13,8.29,2,13.09-.87,2-2.66,3.14-4,4.69-.34.39-.79.8-.42,1.34s.87.36,1.4.21c4.27-1.24,8.55-6.72,8.67-11.15.25-9-6.79-16.06-16.32-16.45-10.35-.43-20.25,8.91-20.61,19.29-.06,2,.65,4-.31,6.07a36.89,36.89,0,0,1-6.5-12.49c-2.54-7.61-3.12-15.45,0-22.82,4-9.52,11.58-15.69,21.41-18.78,4.41-1.38,9.09-1.55,13.28.85,3.4,2,4.15,5.3,4.14,9.1,0,2.84,3,4.91,6.13,5.07s4.23-1.88,5-4.46-.13-4.78-1.42-7.68A17.72,17.72,0,0,1,170.85,99a38,38,0,0,1,6.89,18c.61,5-.22,9.76-4.52,13.22-2.44,2-5.46,2.38-8.33,3.2-.65.18-1.61-.16-1.76.84s.61,1.47,1.46,1.7c6.15,1.61,15.61.87,19.88-6.41,5.12-8.71,4.72-17.71,1.74-26.94A25.22,25.22,0,0,0,173.07,87.2c-7.62-3.79-15.84-4.75-24.23-4-4.79.45-9.54,1.27-14.7,2a23,23,0,0,0,1.43-8.83c-.14-7-3.54-11.17-10.6-13.07-6.78-1.82-13,.38-16.36,5.77a9.19,9.19,0,0,0,7.52,14.27,5.17,5.17,0,0,0,5.71-4.9c.48-4.73-2.25-7.18-7.8-7,3.66-5.78,13.13-6,16.86-.49a12.75,12.75,0,0,1-3.66,17.57c-9.19,6.15-15.36,14.35-18.11,25.12-.22.86,0,2.12-1.19,2.72a31.45,31.45,0,0,0-2.28-3c-2.26-2.35-4.72-4.38-8.27-4.35-2.44,0-4.31.94-4.85,3.45s1.22,3.57,3.1,4.38,3.67,1.44,5.54,2.08a14.21,14.21,0,0,1,7.66,6.48c2.49,4.15,3.65,8.76,5.07,13.57-4.56-1.07-8.79-2-13.18-1.89-8.62.27-15.54,12.55-11.29,20.1,3.07,5.46,12.35,8.3,17.88,5.48,2.51-1.29,3.37-3.59,2.61-7-.63-2.79-3.14-5-5.68-4.92-2.7.06-4.11,1.82-4.36,5.32-.08,1.08.5,3-1.85,1.7a9.45,9.45,0,0,1-4.91-9.34c.59-3.57,4.59-7.73,8.14-8.14,6.39-.74,12.07.48,16.63,5.61,6.81,7.66,14.92,13.47,25,16.16a3.15,3.15,0,0,1,2.62,2.3c.72,2.54,2.82,3.41,5.21,3.75a13.43,13.43,0,0,0,4.93-.52c1.77-.4,3.37-.84,2.47,2-.4,1.26.45,2.41.69,3.61a1.86,1.86,0,0,0,1.82,1.46c1,0,.83-1,1-1.63a36.93,36.93,0,0,1,1.45-4.1c1-2.17,2.35-2.86,4.26-.89a9.78,9.78,0,0,0,5.7,2.93c3.3.47,5.71-1.57,5.14-4.84-.4-2.24.33-2.33,2.12-2.32A78,78,0,0,0,212,157c5.79-2.54,11.26-5.81,17.05-8.33,15.16-6.6,29.81-14.62,46.74-16.34,4.66-.48,8.8-.18,12.8,2.2a53.27,53.27,0,0,1,5.89,4.57c2,1.59,1.74,2.17-.5,3.19-7.25,3.32-8.89,8.9-4.74,15.69,3.35,5.5,8.32,9.48,13.13,13.6.82.7,1.45,2.07,2.8,1.51,1.18-.48,1.29-1.86,1.46-2.94a42.86,42.86,0,0,1,2.74-9.86c1.63-3.95,1.47-8.15,1.13-12.28a9,9,0,0,0-7.18-7.62,4.56,4.56,0,0,1-3.11-1.77,30.34,30.34,0,0,0-9.79-8c-1.17-.66-2.33-1.35-3.49-2a78.07,78.07,0,0,1,14.63-2.46c18-1,35.67.31,52.69,6.78a46.09,46.09,0,0,1,12.79,7c3.87,3.13,6.73,7,6.17,12.2-1.2,11.2-14,20.69-25,18.64-6.54-1.21-10.49-6-8.54-12.23a7.06,7.06,0,0,0,.19-1.54c.21-2.39,0-4.69-2.47-5.86-2.28-1.06-5.43.12-7.13,2.46a9.45,9.45,0,0,0-.05,11.58c6.25,8.87,19.81,15.48,32.32,10.46,15.89-6.37,21.88-25.68,11.61-39.44-5.41-7.25-12.81-11.65-20.9-15.17A111.64,111.64,0,0,0,337.68,115.88ZM214.38,255.5c3.85-3,8.12-3.29,12.38-3.47a36.75,36.75,0,0,0,15.35-3.57c10.67-5.42,16-14.47,17-26.14,1.1-12.89-1.5-24.45-12.74-32.52-1.78-1.28-.9-1.74.31-2.54,4.65-3.08,6.87-7.48,7.36-13,.15-1.68-.43-1.73-1.54-1.75q-3.58,0-7.17,0c-5.07,0-5.07,0-6.21,4.92-1.19,5.08-3.83,7.13-9,7-2,0-3.95-.09-5.92,0-7.71.19-15.13,1.85-21.16,6.74-12.24,9.92-14.08,28.12-10.12,40.48a27.14,27.14,0,0,0,11.84,15c1.89,1.18,1.77,1.81,0,3-2.61,1.69-5.1,3.57-7.62,5.4-6.6,4.79-6.51,4.76-3.43,12.28.93,2.28,1.84,2.88,4.32,2.11,12-3.73,24.26-5.6,36.87-4a26.72,26.72,0,0,1,9.84,2.73c4,2.2,4.13,5.69.44,8.3a19.72,19.72,0,0,1-6.8,3c-6.55,1.6-13.18,1.39-19.82.85-7.9-.64-15.54-2.57-23.19-4.51-.7-.18-1.67-1.25-2.47-.12-1.35,1.92.24,7.07,2.42,7.79,12.8,4.24,25.84,7,39.42,6.43,7.86-.35,15.57-1.42,22-6.51a13.44,13.44,0,0,0,.84-20.73,23.11,23.11,0,0,0-10-5.49,71.34,71.34,0,0,0-28.39-1.64C217.78,255.62,216.3,256.15,214.38,255.5Zm-33.31-5.29c-1.84,1.22-3.08,2.12-4.41,2.88s-2.55,2.23-4.21,1.28-1.47-2.83-1.54-4.48c0-.62,0-1.25,0-1.87,0-14.85-.07-29.7,0-44.55,0-8.64-4.05-15.05-13.08-17.6-13.1-3.69-25.25-.94-36.75,5.82a2.12,2.12,0,0,0-.93,2.92c1.52,2.46,1.87,5.26,2.63,7.91.64,2.24,1.36,1.67,2.65.69a77.86,77.86,0,0,1,7.87-5.58c5.84-3.36,12.1-4.33,18.55-1.94,4.14,1.53,6.38,4.89,6.27,8.76-.12,4.2-2.83,6.23-6.36,7.53-.78.29-1.59.48-2.38.74-8.63,2.9-17.57,4.85-25.73,9.23-13.3,7.14-14.38,25.24-7.56,34.62,6.25,8.62,15.07,10,24.72,8.56a30,30,0,0,0,17.47-9.27c1.07.88,1,2,1.43,2.94a10,10,0,0,0,6.5,6.2c5.05,1.5,9.62.19,13.88-2.66a2.26,2.26,0,0,0,1-2.14C181.06,257.09,181.07,254,181.07,250.21Zm91.39-23.87c-.41,4.71,1,10.21,2.78,15.6,4.62,13.93,15.31,22.62,28.73,23.54,16.28,1.11,28.46-5.37,34.92-19.18,5.61-12,5.68-24.63,2.08-37.13-7.17-24.84-37.77-33.56-56.56-16.13C275.12,201.66,272.06,212.91,272.46,226.34Zm153.2-.32c-.16-12-2.32-22.11-9.59-30.47-9.23-10.6-21.2-13-34.28-10.27-13.93,2.95-21.89,12.55-25.42,25.83-3.09,11.65-1.87,23.21,2.63,34.36,9.91,24.51,41.72,24.94,55.22,10.93C422.81,247.5,425.62,236.68,425.66,226ZM51.6,245.54c-.49,1.73-.91,3.12-1.26,4.52-2.15,8.5-2.19,8.63,5.88,12,11,4.54,22.23,5.55,33.15,0,7.89-4,12.11-10.75,12.57-19.75s-4-14.94-11.51-19.05c-1.09-.59-2.2-1.16-3.29-1.76-5.75-3.12-12-5.06-17.82-8.14-7.11-3.77-6.13-13.56-.09-17.21,4.07-2.46,8.39-2.81,12.92-2,4.81.91,8.9,3.41,12.77,6.2C97.2,202,98,201.57,98.45,199a39,39,0,0,1,1.67-6c.65-1.8.27-2.77-1.56-3.6a51.63,51.63,0,0,0-16.34-4.87c-8.83-.88-17.18.16-24.32,6.21a20.61,20.61,0,0,0-5.22,23.46c2.25,5.47,6.67,8.81,11.73,11.48,5.88,3.1,12.33,4.93,18.12,8.24,4.14,2.36,6.88,5.6,6.11,10.56s-3.46,9.06-8.66,10.67a22.6,22.6,0,0,1-18-2C58.27,251.16,55.34,248.16,51.6,245.54Z"/><path class="d" d="M190.13,340.28c-3.24-2.37-6.86-4-9.69-6.74-.22-.22-.55-.34-.73-.58a16.68,16.68,0,0,0-8.5-6.07c-4.25-1.4-4.81-5.66-5-9.56a18,18,0,0,1,.64-6.15c1.43-4.76,3-9.46,4.06-14.34.25-1.19.94-2.55,2.29-1.33,6,5.46,13,10.1,16.26,18.08a7.22,7.22,0,0,1,.6,3.57c-.42,4.48-3.09,7.16-6.84,8.89-2.63,1.21-2.21,2.05-.43,3.85,7,7.05,15.09,6.86,24.19,5.39,12.24-2,22.86-7.86,34.1-12.28,10.34-4.07,19.66-10.37,30.23-13.92a78.87,78.87,0,0,1,25-4.33c2.05,0,3.29,0,2.63-2.8s1.44-4.78,4.38-4.62a9,9,0,0,1,6.33,3c1.89,2.06,3.22,1.39,4.21-.78a20.63,20.63,0,0,0,1.61-4.36c.41-2.07,1.2-1.49,2.21-.55a4.42,4.42,0,0,1,1.08,4.35c-.47,2.32.46,2.5,2.27,1.88a15.13,15.13,0,0,1,6.17-.37,4.26,4.26,0,0,1,4.1,2.86c.6,2,1.86,2.59,3.68,3.16a52.51,52.51,0,0,1,24.3,16c4.38,5.05,11.74,7.29,17.4,5.3,3.9-1.38,6.59-4,7.32-8.16s-2-6.51-4.76-8.85c-.45-.39-.9-1-1.59-.61s-.34,1.11-.37,1.71c-.29,4.26-2.61,6.62-5.83,5.89-2.24-.5-4.72-4.22-4.72-7.09a5.62,5.62,0,0,1,4.42-5.67c5.71-.92,11,0,15.15,4.44a7.59,7.59,0,0,1,2.28,5.28c.07,11.4-5.86,18.94-18.89,16.12-1.89-.41-3.82-.68-6.27-1.11,1.35,4.22,2.17,8.3,3.95,11.9a14.77,14.77,0,0,0,9.14,8,50,50,0,0,1,4.94,1.86c2.22.9,3.8,2.33,3.16,5-.49,2-3.46,3.49-5.91,3a13.75,13.75,0,0,1-7.55-4.65c-.74-.81-1.08-2.5-2.27-2.32-1.36.22-.81,1.91-1.1,2.93a42.26,42.26,0,0,1-17.45,24.2c-5.66,3.8-7.49,9.39-5.27,15.74a8.64,8.64,0,0,0,8.22,6c4.05.11,7.83-.45,10.09-4.7-6.22.65-9.89-3.28-7.85-8.14a5.16,5.16,0,0,1,4.78-3.37,9,9,0,0,1,8.92,12.45c-2.73,6.67-9.66,9.86-17,7.64-8.45-2.55-11.46-8.1-10.83-15.53a14.21,14.21,0,0,1,1-4.22c1-2.39,0-2.33-1.89-2-10.48,2-21,2.94-31.4-.28-10.8-3.33-17.21-10.85-19.52-21.77-1.34-6.35-1.35-12.75,1-19a16.53,16.53,0,0,1,18.34-10.57c.82.14,1.65.18,2.47.26,1.07.1,2.27.25,2.33,1.56s-1.16,1.51-2.22,1.6a14.84,14.84,0,0,0-6.44,2.09c-5.89,3.53-6.35,9.22-5.49,15.05.95,6.4,3,12.47,7.28,17.6,1.5,1.78,3.44,2.85,5.2,4.37-.34-2.48-1.25-4.75-.32-7.23s1.9-4.7,5.11-4.42,5.93,2.81,6.28,5.6c1.08,8.43,5.77,12.11,14.07,10.41,16.73-3.44,30.45-19.2,25.46-38.65-1.46-5.7-3.22-11.28-7.72-16.21,0,2.07,0,3.56,0,5.06a20.64,20.64,0,0,1-17.41,20.12,17,17,0,0,1-19.72-15.22c-.55-5.39,5.11-12,10.14-11.86.08,1.25-1,1.75-1.67,2.45-4.33,4.36-4.9,8.94-1.83,15.1,1.72,3.42,6.82,5.59,11.61,5,12.84-1.66,15.85-11.24,14.84-21.74a8.2,8.2,0,0,0-4.24-6.11,58.57,58.57,0,0,0-12.82-5.53c-1.55-.48-2.91-.8-4.19,1.17s-3.69,1.54-5.67.56c-.91-.46-1.64-1.27-2.53-1.78-.68-.39-1.45-1.24-2.24-.62s-.15,1.53.17,2.26c.44,1,.81,2.23-.3,2.76s-2.13-.41-2.74-1.4-1-2.08-1.62-3a3.18,3.18,0,0,0-3.11-1.7c-1.35.23-1.94,1.25-2.37,2.57-1.32,4.12-3,5-6.24,3.52a3.58,3.58,0,0,1-2.25-4c.35-3-1.21-3.52-3.7-3.07-12.32,2.2-24.22,5.49-35,12.24-7.86,4.92-15.59,10.06-21.63,17.12-9.91,11.59-14.41,24.81-10.31,40.09,1.23,4.6,2.54,9.19,5.55,13.07,4.82,6.23,11.69,9.07,18.83,11.41,2.09.69,2.64-.94,2.35-2.51-1.46-7.94,5.42-15.79,13.57-15.5,8.93.32,17.13,2.73,25.2,6.13,1.91.8,3.88,1.44,5.83,2.13s2.36,2.12.68,3.12c-7.45,4.4-13,11.34-20.56,15.49-3.93,2.15-8,3.9-12.63,3.86a11.41,11.41,0,0,1-9.87-4.9,5,5,0,0,0-3.13-2.32c-7-1.5-12.8-5.23-18.36-9.48-3-2.29-2.87-2.25-4.48,1-4.48,9-14.71,11.37-22.61,3.51-3.15-3.13-2.48-7.81,1.26-10.92,3.4-2.83,9.55-2.48,11.84.68,1.45,2,.83,5.78-1.2,7.29s-4.15.87-6.06-1.71c-.47-.63-.51-2.15-1.89-1.27-1.13.72-.86,1.85-.25,2.76a10.53,10.53,0,0,0,7.64,4.8c3.07.42,4.82-1.61,6.21-3.87,2.3-3.69,3.08-7.45,1.22-11.79-2.52-5.88-5.36-11.64-6.58-18.05-1.34-7.11.76-13.53,3-20,2.09-5.91,5.71-11,8.73-16.42-1-.66-1.65-.08-2.36.32a159.82,159.82,0,0,1-53.38,18.93,126.22,126.22,0,0,1-18,1.21c-8,.11-15,3-21.43,7.28A35.53,35.53,0,0,0,124,383.44a16.14,16.14,0,0,0,1.08,11.2c1,2.21,2.45,3.16,4.65,2.1,4.11-2,7.39-.72,10.38,2.26a12,12,0,0,0,7.44,3.55c7.32.74,12.08-3.6,12.3-11.05a22.45,22.45,0,0,0-.75-7.39c-1.95-6.3-9-9.14-14.21-5.76a5,5,0,0,0-2.25,6.18c.3,1,.87,2.19,2,2.19,1.48,0,.65-1.44.86-2.21.64-2.32,3-4.13,5.06-3.65,2.54.58,3.95,2.07,3.68,4.89a6,6,0,0,1-5.57,5.66c-4.73.37-8.46-2.09-9.2-6.06-.71-3.79,2.19-8.33,6.15-9.64,9.41-3.12,18.93,3.78,19.95,13.84,1.14,11.2-8.43,19.25-17.28,21.73-7.69,2.15-14.22-.61-20.45-4.84-4-2.72-6.55-6.53-8.73-10.69-1.09-2.09.18-4.07.37-6.05.22-2.43-.62-2.22-2.16-1.58a41.72,41.72,0,0,1-9,2.47c-6.54,1.13-13.39-1.65-15.7-6.34-3.2-6.5-2-14.68,2.73-19,5.68-5.15,14.63-4,17.59,2.32,1.6,3.41.19,6.7-3.55,8.29-4,1.67-5.5.9-7.14-3.4-.49-1.27-.51-3.35-2.34-3.22-1.6.11-2.4,1.81-3,3.29A11.19,11.19,0,0,0,100.09,385a10.75,10.75,0,0,0,12.26.51,20.71,20.71,0,0,0,7.47-8.17c4.55-8.74,10.82-16.13,18-22.83.5-.48,1.46-.79,1.28-1.6-.23-1-1.36-.79-2.1-1-10.08-2.53-19.52-6.44-27.7-12.95-7.57-6-12.17-13.89-11.48-23.67.85-12,9-20.45,20.67-23.63,10.44-2.86,24.54,4.4,29,12.88A9.67,9.67,0,0,1,146,315.77c-1.83,1.86-4.1,2.8-6.49,1.67s-2.75-3.69-2.49-6.18,1.31-5.05.09-7.59c-2-4.1-5.65-5.9-9.82-6.12-12-.62-20.32,7-23.25,17.18-1,3.56-.16,6.83,2.12,9.91,4.71,6.37,11.63,9.27,18.63,11.74a118.45,118.45,0,0,0,43.73,6.32A133.13,133.13,0,0,0,190.13,340.28ZM284.6,400c-2.85-4.27-13.43-.5-22,4.12,3,.65,5.84,1.06,8.35-.19A41.55,41.55,0,0,1,284.6,400ZM174,309c2.4,4.39-1.08,10.21,3.89,14.79C177.12,318.11,178.45,312.83,174,309Z"/><path class="d" d="M337.68,115.88a111.64,111.64,0,0,1,15.56,5c8.09,3.52,15.49,7.92,20.9,15.17,10.27,13.76,4.28,33.07-11.61,39.44-12.51,5-26.07-1.59-32.32-10.46a9.45,9.45,0,0,1,.05-11.58c1.7-2.34,4.85-3.52,7.13-2.46,2.5,1.17,2.68,3.47,2.47,5.86a7.06,7.06,0,0,1-.19,1.54c-1.95,6.25,2,11,8.54,12.23,11,2.05,23.8-7.44,25-18.64.56-5.2-2.3-9.07-6.17-12.2a46.09,46.09,0,0,0-12.79-7c-17-6.47-34.72-7.82-52.69-6.78a78.07,78.07,0,0,0-14.63,2.46c1.16.68,2.32,1.37,3.49,2a30.34,30.34,0,0,1,9.79,8,4.56,4.56,0,0,0,3.11,1.77A9,9,0,0,1,310.5,148c.34,4.13.5,8.33-1.13,12.28a42.86,42.86,0,0,0-2.74,9.86c-.17,1.08-.28,2.46-1.46,2.94-1.35.56-2-.81-2.8-1.51-4.81-4.12-9.78-8.1-13.13-13.6-4.15-6.79-2.51-12.37,4.74-15.69,2.24-1,2.49-1.6.5-3.19a53.27,53.27,0,0,0-5.89-4.57c-4-2.38-8.14-2.68-12.8-2.2-16.93,1.72-31.58,9.74-46.74,16.34-5.79,2.52-11.26,5.79-17.05,8.33a78,78,0,0,1-31.66,6.95c-1.79,0-2.52.08-2.12,2.32.57,3.27-1.84,5.31-5.14,4.84a9.78,9.78,0,0,1-5.7-2.93c-1.91-2-3.29-1.28-4.26.89a36.93,36.93,0,0,0-1.45,4.1c-.21.66,0,1.63-1,1.63a1.86,1.86,0,0,1-1.82-1.46c-.24-1.2-1.09-2.35-.69-3.61.9-2.87-.7-2.43-2.47-2a13.43,13.43,0,0,1-4.93.52c-2.39-.34-4.49-1.21-5.21-3.75a3.15,3.15,0,0,0-2.62-2.3c-10.07-2.69-18.18-8.5-25-16.16-4.56-5.13-10.24-6.35-16.63-5.61-3.55.41-7.55,4.57-8.14,8.14A9.45,9.45,0,0,0,98,157.85c2.35,1.33,1.77-.62,1.85-1.7.25-3.5,1.66-5.26,4.36-5.32,2.54-.05,5,2.13,5.68,4.92.76,3.38-.1,5.68-2.61,7-5.53,2.82-14.81,0-17.88-5.48-4.25-7.55,2.67-19.83,11.29-20.1,4.39-.13,8.62.82,13.18,1.89-1.42-4.81-2.58-9.42-5.07-13.57a14.21,14.21,0,0,0-7.66-6.48c-1.87-.64-3.73-1.29-5.54-2.08S92,115,92.54,112.52s2.41-3.43,4.85-3.45c3.55,0,6,2,8.27,4.35a31.45,31.45,0,0,1,2.28,3c1.23-.6,1-1.86,1.19-2.72,2.75-10.77,8.92-19,18.11-25.12A12.75,12.75,0,0,0,130.9,71c-3.73-5.56-13.2-5.29-16.86.49,5.55-.18,8.28,2.27,7.8,7a5.17,5.17,0,0,1-5.71,4.9,9.19,9.19,0,0,1-7.52-14.27c3.34-5.39,9.58-7.59,16.36-5.77,7.06,1.9,10.46,6.11,10.6,13.07a23,23,0,0,1-1.43,8.83c5.16-.72,9.91-1.54,14.7-2,8.39-.79,16.61.17,24.23,4a25.22,25.22,0,0,1,13.14,15.43c3,9.23,3.38,18.23-1.74,26.94-4.27,7.28-13.73,8-19.88,6.41-.85-.23-1.62-.66-1.46-1.7s1.11-.66,1.76-.84c2.87-.82,5.89-1.24,8.33-3.2,4.3-3.46,5.13-8.22,4.52-13.22a38,38,0,0,0-6.89-18A17.72,17.72,0,0,0,164,93.31c1.29,2.9,2.23,5.13,1.42,7.68s-1.84,4.63-5,4.46-6.14-2.23-6.13-5.07c0-3.8-.74-7.15-4.14-9.1-4.19-2.4-8.87-2.23-13.28-.85-9.83,3.09-17.41,9.26-21.41,18.78-3.09,7.37-2.51,15.21,0,22.82a36.89,36.89,0,0,0,6.5,12.49c1-2.06.25-4.11.31-6.07.36-10.38,10.26-19.72,20.61-19.29,9.53.39,16.57,7.48,16.32,16.45-.12,4.43-4.4,9.91-8.67,11.15-.53.15-1.06.28-1.4-.21s.08-1,.42-1.34c1.36-1.55,3.15-2.7,4-4.69,2.12-4.8,1.09-9.3-2-13.09-3.46-4.24-8.48-4.1-13.21-2.89C128.52,127,123,139,127.07,148.39a5,5,0,0,0,1.91,2.36,53.9,53.9,0,0,0,15.33,6.71,2.2,2.2,0,0,0,2.5-.54c3-3,4.11-3,7.71-.6.34.23.68.47,1,.69.75.48,1.42,1.7,2.35,1.1s-.12-1.65-.21-2.51-1-2.09.37-2.7c1.14-.51,1.93.33,2.5,1.28s1.14,2,1.76,2.93a3.16,3.16,0,0,0,3.05,1.78,3,3,0,0,0,2.4-2.2c.12-.28.15-.6.26-.89.79-1.91,1.26-4.17,4.19-3.56,2.54.52,4.82,3.09,4.27,5.67-.63,3,1,2.55,2.67,2.32a91.25,91.25,0,0,0,35.76-12.47c9.15-5.63,17.83-11.7,24.36-20.46,9.33-12.52,11.17-26,6.52-40.87C242.16,74.82,233.6,69.51,223,66.17c-1.62-.51-2.18-.23-2.22,1.58a25.9,25.9,0,0,1-.79,6.14c-1.94,7.17-7.57,10.8-15,10.16a70.19,70.19,0,0,1-22.47-5.77c-2.17-1-4.45-1.69-6.66-2.57-1.55-.62-2.51-2-.84-3,9.33-5.54,16-14.91,26.74-18.4,6.54-2.12,13.4-1.36,17.32,4.93a2.42,2.42,0,0,0,1.72,1.19c7.37,1.35,13.44,5.33,19.24,9.74,2,1.5,2.78,2.11,4-.87,3.57-8.56,13.63-11,21-5.37,3.58,2.72,4.52,6.48,2.51,10.12a8.53,8.53,0,0,1-10.14,4c-4.06-1.35-5.57-3.91-4.23-7.16.62-1.51,1.52-2.74,3.28-3a4.28,4.28,0,0,1,4.29,1.93c.52.73.72,2.47,2.09,1.49,1-.72.66-2.18-.13-3.09-2.06-2.39-4.67-4.33-7.8-4.39-2.85-.06-4.7,2.19-6.24,4.58-3.62,5.61-1.35,10.71,1.17,15.8a57,57,0,0,1,4.62,13.48c1.06,4.91.31,9.7-1.15,14.4a67.37,67.37,0,0,1-11.64,22.53c1.21,1.23,2.24.34,3.07-.2,14.64-9.52,30.8-15.13,47.79-18.56,8.45-1.71,17-2.09,25.61-2.56,11.77-.65,21.37-6.23,28.65-15.52a31,31,0,0,0,6.92-16.71c.29-3.47-1.44-6.18-2.77-9.06-.64-1.38-2-1-3-.52-4.37,2.14-7.84.93-11.15-2.36-2.89-2.87-6.68-3.52-10.69-3.25a8.2,8.2,0,0,0-5.47,2.6c-5.45,5.55-4.71,16.4,1.41,21.19,3.34,2.62,8.68,2.36,11.38-.55,1.9-2,2-5.15.17-6.72-.82-.69-1.58-1.16-1.85.53-.45,2.92-2.09,4.79-5.19,4.62-2.45-.13-3.56-1.82-3.72-4.21A6.15,6.15,0,0,1,327.15,77c4-1.1,8.9,1.19,10.1,4.71,1.36,4-1.14,9.28-5.08,10.76-6.95,2.6-12.82.86-17.3-5.11C310.15,81.1,310,73,314.71,66.85s11.08-10.17,19-10.51c6.25-.27,11.64,2.61,16.49,6.41a24.58,24.58,0,0,1,4.3,4.46c2.59,3.34,4.21,6.85,3,11.24-.48,1.81-.2,3.27,2.31,2,4.58-2.32,9.5-2.74,14.53-2.49,5.79.3,10,4.13,11.16,9.87s.65,11.13-4,15.45a11,11,0,0,1-16.48-1c-1.64-2-2.22-4.32-.89-6.64a7.15,7.15,0,0,1,6.73-3.73c2.52.13,3.41,2.34,4.17,4.49.39,1.11.36,2.93,1.83,3s2.32-1.55,3-2.87a11.23,11.23,0,0,0-2.61-12.84c-3.09-2.9-8.17-3.27-12.46-.68a19,19,0,0,0-7.08,7.24A86,86,0,0,1,338,115.05C337.88,115.17,337.86,115.41,337.68,115.88ZM192.48,68.56c2,1.82,4.23,2,6.62,1.71,5-.72,9.33-3.29,14-4.86.39-.14.82-.31.78-.81-.05-.66-.61-.78-1.12-.81-1.95-.11-4-.52-5.82.36C202.39,66.35,197.72,68.17,192.48,68.56Zm107.3,76.54c-.95,8.09.22,12.82,4,14.55C300.76,155.06,303.69,149.59,299.78,145.1Z"/><path class="e" d="M214.38,255.5c1.92.65,3.4.12,4.83-.06a71.34,71.34,0,0,1,28.39,1.64,23.11,23.11,0,0,1,10,5.49,13.44,13.44,0,0,1-.84,20.73c-6.45,5.09-14.16,6.16-22,6.51-13.58.61-26.62-2.19-39.42-6.43-2.18-.72-3.77-5.87-2.42-7.79.8-1.13,1.77-.06,2.47.12,7.65,1.94,15.29,3.87,23.19,4.51,6.64.54,13.27.75,19.82-.85a19.72,19.72,0,0,0,6.8-3c3.69-2.61,3.53-6.1-.44-8.3a26.72,26.72,0,0,0-9.84-2.73c-12.61-1.59-24.86.28-36.87,4-2.48.77-3.39.17-4.32-2.11-3.08-7.52-3.17-7.49,3.43-12.28,2.52-1.83,5-3.71,7.62-5.4,1.74-1.14,1.86-1.77,0-3a27.14,27.14,0,0,1-11.84-15c-4-12.36-2.12-30.56,10.12-40.48,6-4.89,13.45-6.55,21.16-6.74,2-.05,3.94,0,5.92,0,5.2.1,7.84-2,9-7,1.14-4.91,1.14-4.91,6.21-4.92q3.58,0,7.17,0c1.11,0,1.69.07,1.54,1.75-.49,5.55-2.71,10-7.36,13-1.21.8-2.09,1.26-.31,2.54,11.24,8.07,13.84,19.63,12.74,32.52-1,11.67-6.31,20.72-17,26.14A36.75,36.75,0,0,1,226.76,252C222.5,252.21,218.23,252.48,214.38,255.5Zm-9.5-37.07a41.67,41.67,0,0,0,1.2,10.19c2.4,9,7.94,13.59,17.29,14.13,11.28.66,18.43-4.49,21.2-15.39a36.79,36.79,0,0,0-.51-20c-2.38-7.92-8.73-13-16.78-13.49-9.69-.56-16.3,3.21-19.93,11.2A32.81,32.81,0,0,0,204.88,218.43Z"/><path class="e" d="M181.07,250.21c0,3.77,0,6.88,0,10a2.26,2.26,0,0,1-1,2.14c-4.26,2.85-8.83,4.16-13.88,2.66a10,10,0,0,1-6.5-6.2c-.38-.93-.36-2.06-1.43-2.94a30,30,0,0,1-17.47,9.27c-9.65,1.43-18.47.06-24.72-8.56-6.82-9.38-5.74-27.48,7.56-34.62,8.16-4.38,17.1-6.33,25.73-9.23.79-.26,1.6-.45,2.38-.74,3.53-1.3,6.24-3.33,6.36-7.53.11-3.87-2.13-7.23-6.27-8.76-6.45-2.39-12.71-1.42-18.55,1.94a77.86,77.86,0,0,0-7.87,5.58c-1.29,1-2,1.55-2.65-.69-.76-2.65-1.11-5.45-2.63-7.91a2.12,2.12,0,0,1,.93-2.92c11.5-6.76,23.65-9.51,36.75-5.82,9,2.55,13.13,9,13.08,17.6-.1,14.85,0,29.7,0,44.55,0,.62,0,1.25,0,1.87.07,1.65-.12,3.52,1.54,4.48s2.92-.53,4.21-1.28S179.23,251.43,181.07,250.21Zm-23-21.22h0c0-2.6,0-5.19,0-7.78,0-1.59-.33-2-1.95-1.31a169.33,169.33,0,0,1-16.7,5.85,29.6,29.6,0,0,0-8.38,4c-5.24,3.74-7.32,11.2-4.94,17.58,2,5.49,7.3,8.27,14.19,7.5a20.15,20.15,0,0,0,17.71-19C158.16,233.55,158.08,231.26,158.08,229Z"/><path class="e" d="M272.46,226.34c-.4-13.43,2.66-24.68,12-33.3,18.79-17.43,49.39-8.71,56.56,16.13,3.6,12.5,3.53,25.12-2.08,37.13-6.46,13.81-18.64,20.29-34.92,19.18-13.42-.92-24.11-9.61-28.73-23.54C273.46,236.55,272.05,231.05,272.46,226.34Zm57.6-1.8c-.16-5.92-.69-13.11-4.17-19.73-3.72-7.07-9.07-11.87-17.45-12.17s-14.16,3.84-17.8,10.91c-7.26,14.09-7.05,28.62-.08,42.54,7.54,15,24.85,15.41,33.93,1.2C328.64,240.8,329.89,233.46,330.06,224.54Z"/><path class="e" d="M425.66,226c0,10.66-2.85,21.48-11.44,30.38-13.5,14-45.31,13.58-55.22-10.93-4.5-11.15-5.72-22.71-2.63-34.36,3.53-13.28,11.49-22.88,25.42-25.83,13.08-2.77,25-.33,34.28,10.27C423.34,203.91,425.5,214,425.66,226Zm-13.2.84c.05-9.39-.95-14.78-3.42-20.62-4.15-9.85-12.93-15.07-22.42-13.3-7.08,1.32-11.39,6-14.4,12.14-4.59,9.3-4.93,19.14-3.27,29.17,1,6.24,3.09,12.13,7.25,16.94,8.43,9.73,23.37,7.93,30.59-3.51C411.22,240.66,412.38,232.84,412.46,226.86Z"/><path class="e" d="M51.6,245.54c3.74,2.62,6.67,5.62,10.35,7.6a22.6,22.6,0,0,0,18,2c5.2-1.61,7.87-5.58,8.66-10.67s-2-8.2-6.11-10.56c-5.79-3.31-12.24-5.14-18.12-8.24-5.06-2.67-9.48-6-11.73-11.48a20.61,20.61,0,0,1,5.22-23.46c7.14-6.05,15.49-7.09,24.32-6.21a51.63,51.63,0,0,1,16.34,4.87c1.83.83,2.21,1.8,1.56,3.6a39,39,0,0,0-1.67,6c-.47,2.56-1.25,3-3.53,1.39-3.87-2.79-8-5.29-12.77-6.2-4.53-.86-8.85-.51-12.92,2-6,3.65-7,13.44.09,17.21,5.8,3.08,12.07,5,17.82,8.14,1.09.6,2.2,1.17,3.29,1.76,7.54,4.11,12,10.05,11.51,19.05s-4.68,15.76-12.57,19.75c-10.92,5.51-22.15,4.5-33.15,0-8.07-3.33-8-3.46-5.88-12C50.69,248.66,51.11,247.27,51.6,245.54Z"/><path class="c" d="M284.6,400A41.55,41.55,0,0,0,271,404c-2.51,1.25-5.32.84-8.35.19C271.17,399.53,281.75,395.76,284.6,400Z"/><path class="c" d="M174,309c4.45,3.83,3.12,9.11,3.89,14.79C172.92,319.21,176.4,313.39,174,309Z"/><path class="c" d="M192.48,68.56c5.24-.39,9.91-2.21,14.48-4.41,1.84-.88,3.87-.47,5.82-.36.51,0,1.07.15,1.12.81,0,.5-.39.67-.78.81-4.69,1.57-9,4.14-14,4.86C196.71,70.61,194.44,70.38,192.48,68.56Z"/><path class="c" d="M299.78,145.1c3.91,4.49,1,10,4,14.55C300,157.92,298.83,153.19,299.78,145.1Z"/><path class="c" d="M204.88,218.43a32.81,32.81,0,0,1,2.47-13.32c3.63-8,10.24-11.76,19.93-11.2,8.05.46,14.4,5.57,16.78,13.49a36.79,36.79,0,0,1,.51,20c-2.77,10.9-9.92,16-21.2,15.39-9.35-.54-14.89-5.1-17.29-14.13A41.67,41.67,0,0,1,204.88,218.43Z"/><path class="c" d="M158.08,229c0,2.27.08,4.56,0,6.83a20.15,20.15,0,0,1-17.71,19c-6.89.77-12.14-2-14.19-7.5-2.38-6.38-.3-13.84,4.94-17.58a29.6,29.6,0,0,1,8.38-4,169.33,169.33,0,0,0,16.7-5.85c1.62-.71,2-.28,1.95,1.31-.06,2.59,0,5.18,0,7.78Z"/><path class="c" d="M330.06,224.54c-.17,8.92-1.42,16.26-5.57,22.75-9.08,14.21-26.39,13.85-33.93-1.2-7-13.92-7.18-28.45.08-42.54,3.64-7.07,9.51-11.21,17.8-10.91s13.73,5.1,17.45,12.17C329.37,211.43,329.9,218.62,330.06,224.54Z"/><path class="c" d="M412.46,226.86c-.08,6-1.24,13.8-5.67,20.82-7.22,11.44-22.16,13.24-30.59,3.51-4.16-4.81-6.22-10.7-7.25-16.94-1.66-10-1.32-19.87,3.27-29.17,3-6.1,7.32-10.82,14.4-12.14,9.49-1.77,18.27,3.45,22.42,13.3C411.51,212.08,412.51,217.47,412.46,226.86Z"/></g></g></svg>