<svg xmlns="http://www.w3.org/2000/svg" width="935" height="472" viewBox="0 0 935 472"><defs><style>.a{fill:#0043ec;}</style></defs><path class="a" d="M147.05,104.27a3.4,3.4,0,0,0-.68,1.72,2.59,2.59,0,0,0,.72,1.56,1.32,1.32,0,0,0,1.18,0c.88-.54,1.68-1.21,2.51-1.83a8,8,0,0,1,1.54-1c.22-.09.76.27,1,.55a1.9,1.9,0,0,1,.22,1.2c-1.52,11-7.21,19-17.41,23.61a.89.89,0,0,1-.91-1.47c1-1,2.14-2,3.16-3a26.4,26.4,0,0,0,2.45-2.84,4.75,4.75,0,0,0,.51-1.76c.11-.49-.66-1.33-1.13-1.25a5.71,5.71,0,0,0-1.8.4c-2.52,1.5-5.05,3-7.45,4.66-2.24,1.55-4.32,3.32-6.49,5a30.4,30.4,0,0,1-2.55,1.83,3.93,3.93,0,0,1-3.61.51,27,27,0,0,0-5.38-1.56c-3.15-.62-5.72-2.52-8.14-4.56a2.58,2.58,0,0,1-.89-3.32,2.22,2.22,0,0,0,.22-1.2,1.39,1.39,0,0,0-.65-.92,1.49,1.49,0,0,0-1.19,0,3.56,3.56,0,0,0-1.38,1.19c-2.25,4.07-6,6.37-10,8.31a27,27,0,0,1-13.4,2.82c-7.1-.39-13.61-2.48-19-7.35a29.71,29.71,0,0,1-10.19-20.26c-.17-2.08-.11-4.19-.16-6.28,0-.42,0-.84,0-1.26V71.27c0-9.85,0-19.7,0-29.55a32,32,0,0,1,.33-5.63,6.94,6.94,0,0,1,10.76-4.45,6.3,6.3,0,0,1,2.92,4.64c.22,2.29.23,4.6.26,6.9,0,2.93,0,5.86,0,8.79,0,1.88.08,3.78-.1,5.65-.16,1.65-.85,3.26-.87,4.89,0,1.42.65,2.83.9,4.27a14,14,0,0,1,.08,2.51c-.15,7.95.18,15.91-.27,23.87-.23,4.16.42,8.36.68,12.53a23.56,23.56,0,0,1,.19,2.5,2.35,2.35,0,0,1-1.21,2.07c-1.47.8-3,1.47-4.43,2.34a14.56,14.56,0,0,0-2.31,2.07,1.24,1.24,0,0,0,0,1.67c.34.21.81.48,1.12.39,1.4-.41,2.77-.9,4.13-1.43,1-.38,1.92-.84,2.86-1.31a3.51,3.51,0,0,1,4.1.26c.65.52,1.33,1,2,1.48a15.6,15.6,0,0,0,24.35-12.44c.11-2.73.13-5.45.14-8.18Q93.92,74,93.94,53c0-4.4-.13-8.79-.12-13.19a18.6,18.6,0,0,1,.49-4.35,6.92,6.92,0,0,1,6.49-5.05,6.84,6.84,0,0,1,6.46,4.14,2.36,2.36,0,0,1-.68,2.81,21.92,21.92,0,0,0-2.72,1.54,6.15,6.15,0,0,0-1.4,2,1.86,1.86,0,0,0,.81,2.16,11.1,11.1,0,0,0,2.37.7c1.8.23,2.43,1.18,2.49,3s.06,3.77.06,5.66q0,22.64,0,45.27c0,2.09,0,4.2.13,6.28a15.51,15.51,0,0,0,21,13.44c4.29-1.56,5.62-2.68,7.91-6.66a15.23,15.23,0,0,0,2.08-6.54c.15-1.87.21-3.76.21-5.65,0-8.38,0-16.76,0-25.15,0-3.34.33-6.69.36-10,0-3.76-.15-7.51-.21-11.26,0-2.93-.06-5.87,0-8.8a3.45,3.45,0,0,1,1.9-3,34.09,34.09,0,0,0,3.74-2.3,5.87,5.87,0,0,0,1.46-2,1.35,1.35,0,0,0-.24-1.12c-.22-.3-.73-.67-1-.6a28.42,28.42,0,0,0-3,1,1.26,1.26,0,0,1-1.66-.37,1.3,1.3,0,0,1,.59-1.58,29.64,29.64,0,0,0,5.7-2.39,3.46,3.46,0,0,1,2.4.23,6.38,6.38,0,0,1,3.84,4.66,13,13,0,0,1,.31,3.12c0,5.45,0,10.9,0,16.35a7.06,7.06,0,0,1-1.65,5.24,7.51,7.51,0,0,0-1.8,3.95,5,5,0,0,1-1.43,2.73c-.43.44-.87,1-.49,1.61s1,.23,1.63.06A2.47,2.47,0,0,1,153.14,70a8.8,8.8,0,0,1,.45,1.17,5.74,5.74,0,0,1,.13,1.24q0,12.58,0,25.15a3.52,3.52,0,0,1-2.71,3.72A7.31,7.31,0,0,0,147.05,104.27ZM56.19,42.56a3.65,3.65,0,0,0,2.87-3.84,7.18,7.18,0,0,0-.68-1.44,2.5,2.5,0,0,0-2.7-1.15,2.69,2.69,0,0,0-1.91,2.24,5.4,5.4,0,0,0,.37,3.07A2.16,2.16,0,0,0,56.19,42.56Zm10.44,75-.4-.17c-.06.14-.12.27-.19.41.14,0,.31.19.39.15S66.57,117.66,66.63,117.53ZM100,95.64a2.49,2.49,0,0,0-.21-.56,2.33,2.33,0,0,0-2.69-.73,1.51,1.51,0,0,0-.58,2.43,2.1,2.1,0,0,0,3.15,0A3.31,3.31,0,0,0,100,95.64ZM144.58,54.1c-.26-.47-.36-.93-.65-1.11a1.67,1.67,0,1,0-1.77,2.82,1.31,1.31,0,0,0,1.64-.26A6.41,6.41,0,0,0,144.58,54.1Z"/><path class="a" d="M223.55,132a3.77,3.77,0,0,1-3.61.26,10.46,10.46,0,0,0-1.69-.81c-.57-.15-1.39-.33-1.77-.05-2,1.49-4.24,1.6-6.56,1.56-5.87-.11-11.73-.21-17.59-.26-1.67,0-3.34.18-5,.21a46.68,46.68,0,0,1-5-.08,7.46,7.46,0,0,1-7-6.84,42.84,42.84,0,0,1-.17-4.39q0-38.66,0-77.31c0-2.51.15-5,.31-7.52a7,7,0,0,1,6.37-6.66c3.73-.31,7.52-.79,11.15.77a3.52,3.52,0,0,0,3-.09,9.64,9.64,0,0,1,4.26-.88c6.29,0,12.57,0,18.86,0a16,16,0,0,1,2.49.23,7,7,0,0,1,5.78,7.18,6.94,6.94,0,0,1-5.74,6.56,30.38,30.38,0,0,1-4.37.31c-3.56,0-7.13,0-10.69,0v0c-3.77,0-7.54,0-11.31,0a18,18,0,0,0-3.1.36,2.19,2.19,0,0,0-1.74,1.63,9.71,9.71,0,0,0-.38,2.46q0,9.42,0,18.85a13,13,0,0,0,.23,1.86,2.73,2.73,0,0,0,2.07,2.11c1.46.17,2.92.3,4.38.37a5.13,5.13,0,0,1,3.43,1.26c2.39,2.17,5,1.51,7.62.49,3.72-3,8-2.13,12-1.29,2.89.59,4.57,2.88,4.92,5.87a6.72,6.72,0,0,1-3,6.52,4.75,4.75,0,0,1-4.15,1,11,11,0,0,0-6.75.14,15.45,15.45,0,0,1-4.37.31c-3.35,0-6.7,0-10.05,0-1,0-2.1,0-3.14.11A3.4,3.4,0,0,0,189.89,90q0,11.94.15,23.88a12.21,12.21,0,0,0,.32,2.48,2.15,2.15,0,0,0,1.63,1.73,19.37,19.37,0,0,0,3.72.43c6.07,0,12.15,0,18.22,0,1.68,0,3.35,0,5,0a17.6,17.6,0,0,1,2.5.23,7.06,7.06,0,0,1,5.83,5.82A7,7,0,0,1,223.55,132ZM185.91,73.51c-.06-.15-.08-.38-.19-.44a.49.49,0,0,0-.47.05c-.29.32-.18.59.28.65C185.64,73.79,185.78,73.6,185.91,73.51ZM205.54,39l.44.08-.16-.5Zm1.54,40a1.15,1.15,0,0,0,1.58.44A2.92,2.92,0,0,0,210,77.26a4.47,4.47,0,0,0-.86-1.29,1.29,1.29,0,0,0-1.65.26A2.19,2.19,0,0,0,207.08,79Z"/><path class="a" d="M300.82,125.34a6.87,6.87,0,0,1-5.61,6.65,25.5,25.5,0,0,1-4.37.34c-8,0-15.92-.05-23.87-.07-2.1,0-4.19.09-6.28.07a50.47,50.47,0,0,1-5.64-.25,6.85,6.85,0,0,1-5.94-5.68,23.4,23.4,0,0,1-.31-3.74c-.05-3.15,0-6.29,0-9.43v-32q0-19.47,0-38.95c0-1.88.08-3.77.27-5.64a6.46,6.46,0,0,1,1.83-3.91,6.56,6.56,0,0,1,6.85-2,7.07,7.07,0,0,1,5.17,5.77,29.29,29.29,0,0,1,.26,5.63q0,26.07,0,52.15c0,5.65,0,11.31,0,17,0,1.46.11,2.93.23,4.39a2.69,2.69,0,0,0,2,2.13,42.57,42.57,0,0,0,4.37.3c6.7,0,13.4,0,20.1,0a36.32,36.32,0,0,1,5,.26A7,7,0,0,1,300.82,125.34Z"/><path class="a" d="M374.27,125.34a6.87,6.87,0,0,1-5.61,6.65,25.5,25.5,0,0,1-4.37.34c-8,0-15.91-.05-23.87-.07-2.1,0-4.19.09-6.28.07a50.47,50.47,0,0,1-5.64-.25,6.83,6.83,0,0,1-5.93-5.68,22.3,22.3,0,0,1-.32-3.74c-.05-3.15,0-6.29,0-9.43v-32q0-19.47,0-38.95c0-1.88.08-3.77.27-5.64a6.46,6.46,0,0,1,1.83-3.91,6.56,6.56,0,0,1,6.85-2,7.07,7.07,0,0,1,5.17,5.77,29.29,29.29,0,0,1,.26,5.63q0,26.07,0,52.15c0,5.65,0,11.31,0,17,0,1.46.12,2.93.24,4.39a2.67,2.67,0,0,0,2,2.13,42.57,42.57,0,0,0,4.37.3c6.7,0,13.4,0,20.1,0a36.32,36.32,0,0,1,5,.26A7,7,0,0,1,374.27,125.34Z"/><path class="a" d="M407.38,127.35a11,11,0,0,1-4.26,8.11A5.28,5.28,0,0,1,402,136a3.1,3.1,0,0,1-4.13-3.69,4.31,4.31,0,0,1,.78-1.68,7.92,7.92,0,0,0,1.56-5.88,4.36,4.36,0,0,1,.13-1.24,3.13,3.13,0,0,1,2-2.25,3.35,3.35,0,0,1,3.42.88A7.87,7.87,0,0,1,407.38,127.35Z"/><path class="a" d="M493.52,37a7,7,0,0,1-5.46,6.79,27.59,27.59,0,0,1-4.36.38c-2.72.06-5.45,0-8.17,0-1,0-2.09.07-3.13.16a2.85,2.85,0,0,0-2.69,2.93c-.07.83-.12,1.67-.13,2.5,0,1.89,0,3.77,0,5.66q0,16.65,0,33.29c0,1.67-.06,3.35-.15,5a1.66,1.66,0,0,1-2,1.74c-.81-.18-1.61-.48-2.42-.63a5.24,5.24,0,0,0-4.63,1.43,8.94,8.94,0,0,0-3,7.28A3.3,3.3,0,0,0,460,106.7a2.43,2.43,0,0,0,2.21-.86c.54-1.36,1-2.76,1.56-4.1A4.56,4.56,0,0,1,466.94,99a1.88,1.88,0,0,1,2.35,1.43,20.77,20.77,0,0,1,.24,2.49q0,9.73,0,19.47a32,32,0,0,1-.29,4.38,7.15,7.15,0,0,1-7.07,5.95,7.26,7.26,0,0,1-7-5.32,17,17,0,0,1-.43-3.1c-.07-1.88-.05-3.77-.05-5.65q0-32.67,0-65.33,0-3.15-.19-6.28a2.84,2.84,0,0,0-2.92-2.69c-2.09-.1-4.19-.12-6.28-.14s-4.19,0-6.28-.07a15.42,15.42,0,0,1-3.1-.42A7,7,0,0,1,436,30.31a25.93,25.93,0,0,1,5-.41c7.11,0,14.23,0,21.35,0,6.91,0,13.82,0,20.73,0a29.81,29.81,0,0,1,5,.35A7,7,0,0,1,493.52,37Z"/><path class="a" d="M576.4,102.86c-.94,1.41-.81,3.6.86,4.34a3.39,3.39,0,0,1,2.29,3.36c0,4.6,0,9.21,0,13.82a13.12,13.12,0,0,1-.29,2.49,7.33,7.33,0,0,1-7.19,5.87,7.23,7.23,0,0,1-7.05-6,39.18,39.18,0,0,1-.29-5.64c0-9,0-18,0-27,0-1.88-.17-3.76-.34-5.63a2.49,2.49,0,0,0-2.14-2,19,19,0,0,0-2.5-.23q-12.57,0-25.13,0c-.21,0-.42,0-.63,0-3.12.15-4.07,1-4.13,4.24-.09,4.18-.06,8.37-.06,12.56,0,6.29,0,12.57,0,18.86a30.88,30.88,0,0,1-.31,5,7.27,7.27,0,0,1-14.28-.16,32.17,32.17,0,0,1-.28-5c0-9.21,0-18.43,0-27.65q0-13.2,0-26.39a46.26,46.26,0,0,1,.28-5,2.11,2.11,0,0,1,1.59-1.76,11.52,11.52,0,0,1,1.83-.41c4.18-.54,3.7-1.91,3.38-5.17,0-.2-.08-.41-.12-.61a2.56,2.56,0,0,0-2.06-2.08c-.83-.09-1.67,0-2.5-.12A2.39,2.39,0,0,1,515,50.06c0-.21,0-.42,0-.63,0-3.77,0-7.54,0-11.31a11,11,0,0,1,.32-2.48,7.32,7.32,0,0,1,6.84-5.51,7.2,7.2,0,0,1,7.31,5.67,26.89,26.89,0,0,1,.34,5c0,7.12,0,14.25,0,21.37,0,2.3.12,4.6.25,6.9a2.87,2.87,0,0,0,2.46,2.47c1.05.1,2.09.18,3.14.18q11.94,0,23.88,0a14.08,14.08,0,0,0,3.11-.3,2.35,2.35,0,0,0,1.48-1,20.91,20.91,0,0,1,3.11-5.4,1.64,1.64,0,0,0-.11-2.27,6.41,6.41,0,0,1-2.32-5.55c.08-1.67,0-3.35.08-5a4.31,4.31,0,0,1,1.48-3.32,2.32,2.32,0,0,0,.27-3.37c-2-2.76-2-5.86-1.61-9a7.27,7.27,0,0,1,14.38-.16c.22,1.44.14,2.93.27,4.38.2,2.15-1.15,4.13-.92,6.14s.94,4,.93,6.15q0,21.38,0,42.74c0,2.42-.53,4.55-2.43,6.19A4.69,4.69,0,0,0,576.4,102.86Zm-4.17-8.33c-.19,0-.44,0-.56.11a.56.56,0,0,0,.09,1,.54.54,0,0,0,.53-.08A.6.6,0,0,0,572.23,94.53Z"/><path class="a" d="M685.65,126.94a6.89,6.89,0,0,1-5.72,5.87,7,7,0,0,1-7-3.13,21.56,21.56,0,0,1-1.67-3.37c-1.36-3.51-2.71-7-4-10.58a10.45,10.45,0,0,0-1.68-3.33,3.85,3.85,0,0,0-2.63-1.55c-1.24-.12-2.5-.14-3.75-.19l-8.78-.37a11.87,11.87,0,0,0-1.88-.07c-6.89.77-13.8.29-20.7.43l-3.14.08a4,4,0,0,0-3.63,2,29.17,29.17,0,0,0-3.11,6.81,70.88,70.88,0,0,1-3.06,8.23,10.43,10.43,0,0,1-1.23,2.18,7,7,0,0,1-7.81,2.56,7.19,7.19,0,0,1-4.82-7.24,18.39,18.39,0,0,1,.73-3.08q3.5-9.09,7.14-18.11a12.62,12.62,0,0,1,1.56-2.71A8.35,8.35,0,0,0,611.92,98a30.87,30.87,0,0,1,1.53-5.41q10.78-27.46,21.67-54.9a28.85,28.85,0,0,1,2.13-4.53A7.39,7.39,0,0,1,649.48,33a15.54,15.54,0,0,1,1.43,2.78q5.24,13.13,10.41,26.27a11.12,11.12,0,0,1,.88,5.52,3.58,3.58,0,0,0,1.55,3.23,9,9,0,0,1,1.89,2.43c.6,1.09.87,2.37,1.48,3.46,2,3.68,2,8,4.18,11.76s3.4,7.63,5,11.5,3.12,7.77,4.6,11.69c1.1,2.91,2.69,5.68,2.55,9,0,1.08.88,1.84,1.5,2.68A4.71,4.71,0,0,1,685.65,126.94ZM618.9,100.49a3,3,0,0,0-2.3-2.19c-1-.16-2,.82-1.84,1.52a3.32,3.32,0,0,0,1.63,2.47,3.11,3.11,0,0,0,1.73.26C618.76,102.46,619.14,101.22,618.9,100.49Zm39.27-5.77a15.34,15.34,0,0,0-.49-2.48c-2-5.28-3.94-10.56-6-15.8s-4.24-10.46-6.4-15.67a9.49,9.49,0,0,0-1-1.56,1.28,1.28,0,0,0-1.67,0,20,20,0,0,0-1.52,2.7Q636,74.37,631,86.9c-.84,2.13-1.55,4.32-2.27,6.5-.45,1.35.06,2.4,1.64,2.82a6.34,6.34,0,0,1,3.55,2.33,2,2,0,0,0,2.81.27c2-2,4.41-2.23,6.93-2.3,3.13-.08,6.27-.06,9.4-.15a17.66,17.66,0,0,0,3.7-.45C657.27,95.8,657.66,95.18,658.17,94.72Zm-7.45,13.39c-.12-.38-.13-.9-.38-1.1a3.4,3.4,0,0,0-4.07-.36,1.13,1.13,0,0,0-.41,1,3.1,3.1,0,0,0,4.23,1.43C650.39,109,650.52,108.46,650.72,108.11Z"/><path class="a" d="M769.92,37a7,7,0,0,1-5.46,6.79,27.7,27.7,0,0,1-4.36.38c-2.72.06-5.45,0-8.17,0-1,0-2.09.07-3.13.16a2.85,2.85,0,0,0-2.7,2.93c-.06.83-.11,1.67-.12,2.5,0,1.89,0,3.77,0,5.66q0,16.65,0,33.29c0,1.67-.06,3.35-.15,5a1.66,1.66,0,0,1-2,1.74c-.82-.18-1.61-.48-2.43-.63a5.23,5.23,0,0,0-4.62,1.43,8.91,8.91,0,0,0-3,7.28,3.3,3.3,0,0,0,2.65,3.09,2.43,2.43,0,0,0,2.21-.86c.53-1.36,1-2.76,1.55-4.1A4.6,4.6,0,0,1,743.34,99a1.89,1.89,0,0,1,2.35,1.43,20.77,20.77,0,0,1,.24,2.49c0,6.49,0,13,0,19.47a32,32,0,0,1-.29,4.38,7.16,7.16,0,0,1-7.07,5.95,7.26,7.26,0,0,1-7-5.32,16.18,16.18,0,0,1-.43-3.1c-.07-1.88,0-3.77,0-5.65q0-32.67,0-65.33c0-2.1-.07-4.19-.19-6.28a2.85,2.85,0,0,0-2.93-2.69c-2.09-.1-4.18-.12-6.27-.14s-4.19,0-6.28-.07a15.42,15.42,0,0,1-3.1-.42,7,7,0,0,1,.07-13.42,25.89,25.89,0,0,1,5-.41c7.12,0,14.24,0,21.36,0,6.91,0,13.82,0,20.73,0a29.81,29.81,0,0,1,5,.35A7,7,0,0,1,769.92,37Z"/><path class="a" d="M793.39,33.47c.07-.38.16-1,.3-1.59a3.21,3.21,0,0,1,2.74-2.22,3.28,3.28,0,0,1,3.06,1.73,9.39,9.39,0,0,1,.55,1.78,7.12,7.12,0,0,0,2.73,4.72A6.62,6.62,0,0,1,804,39.32c1.06,1.51,0,4-1.89,4.44a4.46,4.46,0,0,1-4.09-.93C795.19,40.45,793.3,37.56,793.39,33.47Z"/><path class="a" d="M886.85,104.54c-.05,14.31-11.43,26.92-26.49,28.47a29.56,29.56,0,0,1-32.16-23.84,25.08,25.08,0,0,1-.37-6.24,7,7,0,0,1,13.67-1.25c.46,1.83.59,3.73,1,5.55a15.17,15.17,0,0,0,15.32,11.5,15.17,15.17,0,0,0,6.7-28.51c-2.2-1.18-4.5-2.19-6.8-3.18a2.41,2.41,0,0,0-1.8-.1c-2.48,1.24-4.91.74-7.33-.06-1.2-.39-2.37-.85-3.53-1.32-2.5-1-4.32-2.44-4.08-5.55a1.75,1.75,0,0,0-2-1.92c-3.54.63-5.5-1.3-7-4-.81-1.47-1.54-3-2.24-4.49-.95-2-1.13-4,.66-5.78a5,5,0,0,0,.69-1.05A2,2,0,0,0,830.5,60a12.36,12.36,0,0,1-1.66-.86,3,3,0,0,1-1-1.5,8.37,8.37,0,0,1,0-2.5,29.65,29.65,0,0,1,41.83-23.5c1.82.84,3.15,2,3.39,4.15a3.06,3.06,0,0,0,.4,1.18A2.16,2.16,0,0,0,876,38.27a3.43,3.43,0,0,1,3.9,1.24,28.27,28.27,0,0,1,6.88,17.18,14.17,14.17,0,0,1-.33,3.73A6.83,6.83,0,0,1,880,65.49a6.67,6.67,0,0,1-6.93-5.16c-.26-1.06.44-1.89,1.69-2a14.17,14.17,0,0,0,1.85-.07,2.69,2.69,0,0,0,1.92-2.88c-.06-.81-.83-1.77-1.53-1.74-1,0-2,.21-3.08.28a2.22,2.22,0,0,1-2.18-.92c-.69-1.05-1.29-2.16-2-3.17-3.7-5-8.66-7.21-14.79-6.28-5.89.89-9.82,4.39-12,9.87-.46,1.16-.81,2.37-1.24,3.55-.18.51-1.09.65-1.58.24-1-.8-1.86-1.68-2.88-2.4a4.63,4.63,0,0,0-1.77-.53,2.12,2.12,0,0,0-2.16,1.84A4,4,0,0,0,835.93,60a8.36,8.36,0,0,0,1.85.33c4.29.11,5.55,3.08,6.12,6.59a1.91,1.91,0,0,1-.92,1.48c-1.26.72-2.66,1.2-4,1.86a1.49,1.49,0,0,0-.72.94,1.31,1.31,0,0,0,.37,1.05,1.68,1.68,0,0,0,1.13.41,13.71,13.71,0,0,0,2.47-.33c1.63-.36,2.76-2.28,4.52-1.87,1.59.37,3,1.39,4.55,2a21.8,21.8,0,0,0,8,1.61,24.06,24.06,0,0,1,6.79,1.11A15,15,0,0,1,871.67,78a5.93,5.93,0,0,0,1.5,1.12c4.7,2,7.6,5.81,10,10A27.5,27.5,0,0,1,886.85,103Zm-23.16,19a1.94,1.94,0,0,0-2.26.39,4,4,0,0,0-1.25,3.32,1.65,1.65,0,0,0,.13.6c.2.32.42.74.73.85a1.23,1.23,0,0,0,1.09-.19,25.9,25.9,0,0,0,2.34-3.55C864.62,124.66,864.11,123.75,863.69,123.52Zm9.88-37.65a2,2,0,0,0-1.79-1.44,2.22,2.22,0,0,0-.59.15.7.7,0,0,0-.33,1,6.84,6.84,0,0,0,1.07,1.47,1.58,1.58,0,0,0,1.1.26C873.53,87.31,873.84,86.43,873.57,85.87Zm4.87,10.87-.44.16.37.31Z"/><path class="a" d="M171.33,219.73c-1.07,25.58-14,48.11-40.26,62-18.48,9.74-38,10.81-57.86,4.05a19.68,19.68,0,0,1-4-2,1.58,1.58,0,0,1-.35-2.38c.49-.75,1.27-1.69.49-2.38-.52-.46-1.69-.37-2.53-.25-1.18.17-2.32.63-3.5.89A5.85,5.85,0,0,1,59,278.9,47.09,47.09,0,0,1,54.42,276C30.9,257.85,20.71,234,24.79,204.62c3.73-26.92,23.36-49.83,49.38-58.39a70.68,70.68,0,0,1,31.21-3.39c19.3,2.43,35.74,10.58,48.31,25.62C165.09,182.09,171.16,197.86,171.33,219.73Zm-130.7,6.54a20.76,20.76,0,0,0,2.62-1.9,19.7,19.7,0,0,0-2.89-1.06c-.35-.08-1,.43-1.24.83a1.75,1.75,0,0,0,.15,1.51C39.54,226,40.35,226.43,40.63,226.27Zm108-27.44A53.9,53.9,0,0,0,43.74,212.75c-.25,3.91-.16,7.84-.27,11.72l-.09,0c.68,1.94,1.35,3.89,2,5.84.88,2.49.69,4.64-1.46,6.55a6.92,6.92,0,0,0-1.57,3.1,1.65,1.65,0,0,0,.71,1.46,4.23,4.23,0,0,0,2.53.44c2.84-.72,4.64.47,6,2.76s2.82,4.63,4.35,6.86a14.4,14.4,0,0,0,3,3.34c3.12,2.37,6.29,4.69,9.58,6.81a53.9,53.9,0,0,0,80-62.76ZM63.45,266.65a2.08,2.08,0,0,0-1.81,2.41A2.27,2.27,0,0,0,64,271a1.79,1.79,0,0,0,1.83-1.49A2.39,2.39,0,0,0,63.45,266.65ZM80.57,153.7c.07.36.8.59,1.22.88A1.6,1.6,0,0,0,83,152.64a1.31,1.31,0,1,0-2.39,1.06Zm45.07,5.9a3.94,3.94,0,0,0,3.11-2.78,2.41,2.41,0,0,0-1.27-2.93,1.93,1.93,0,0,0-2.37.59,14.09,14.09,0,0,0-1.68,3C123.05,158.48,124.55,159.82,125.64,159.6Zm19.55,15a.77.77,0,0,0,.4.59c.61.21,1-.07,1-.71-.13-.21-.23-.55-.41-.61C145.56,173.72,145.17,174,145.19,174.64Zm13.62,53.79a2.9,2.9,0,0,0-3.29,2.14,2.79,2.79,0,0,0,1.94,3.38,3.17,3.17,0,0,0,3.31-2.21A2.66,2.66,0,0,0,158.81,228.43Zm2.66-30.9c-.28-1-1.57-1.38-2.83-.8a1,1,0,0,0-.58,1.45,1.82,1.82,0,0,0,2,1.2A1.71,1.71,0,0,0,161.47,197.53Z"/><path class="a" d="M294.92,255.08c-.25,6.63,0,13.27-.08,19.91a35.9,35.9,0,0,1-.37,6.31,10.07,10.07,0,0,1-7.37,8.34,10.41,10.41,0,0,1-11.49-3.21,34.5,34.5,0,0,1-3.93-6.05c-4.87-8.68-9.68-17.4-14.5-26.1q-12.94-23.35-25.9-46.69c-1.31-2.36-2.81-4.62-4.34-6.86a1.84,1.84,0,0,0-1.62-.28c-.47.15-1.1.72-1.14,1.16a69.21,69.21,0,0,0-.45,7.19q-.06,29.87,0,59.72c0,3.32.09,6.65-.1,10a18,18,0,0,1-1.12,5.27,10.37,10.37,0,0,1-10,6.37c-4.65-.23-8.88-3.59-9.68-8.08a46.43,46.43,0,0,1-.57-8.09c-.06-13.87,0-27.75,0-41.62h0q0-19.47,0-38.92c0-2.41.05-4.82.06-7.23a7.77,7.77,0,0,1,2.24-5.73A7.67,7.67,0,0,0,205.5,179c.86-1.39,1-3.19-.28-4.13-2.49-1.86-3.1-4.29-3.06-7.12,0-2.11.06-4.23,0-6.34a7.1,7.1,0,0,1,3.12-6.15,28.27,28.27,0,0,0,3.8-3.78c.74-.81.12-2.51-1-2.92-.84-.3-1.76-.39-2.61-.68-.67-.23-.91-1.77-.39-2.38a9.2,9.2,0,0,1,1.84-1.94c5.07-3.19,11.07-2.23,14.48,2.43a22.06,22.06,0,0,1,3,5.53,19.72,19.72,0,0,0,3.55,6.22,28.54,28.54,0,0,1,2.91,4.57q13.83,24.93,27.65,49.85c1.35,2.42,2.4,4.83,1.94,7.71a2,2,0,0,0,1.37,2.11,9.22,9.22,0,0,1,4.48,4.28c1.23,2.06,2.55,4.08,4,6,.23.33,1.15.4,1.64.24a1.86,1.86,0,0,0,1.11-1.2c.24-2.09.35-4.2.42-6.3.08-2.71-.05-5.41,1.17-8a3.49,3.49,0,0,0-.08-2.58c-1-2.3-1-4.69-1-7.1q0-24.87-.07-49.75a45.84,45.84,0,0,1,.33-6.31,10,10,0,0,1,4.09-6.8,10.42,10.42,0,0,1,16.46,6,35.94,35.94,0,0,1,.53,7.2c.06,9,0,18.09,0,27.14,0,13.88,0,27.75,0,41.63,0,4.8.56,9.67-1.21,14.33C294.09,245.52,295.1,250.22,294.92,255.08Zm-72.58-69.42a4.2,4.2,0,0,0-5,.51,7.37,7.37,0,0,0-2.07,2.83,27,27,0,0,1-3.34,8.11c-.09.13.09.54.25.74s.51.41.67.34a7.74,7.74,0,0,1,5.18,0c2.91.77,4.13,0,4.68-2.51.45-2,.83-4.08,1.21-6A3.92,3.92,0,0,0,222.34,185.66Zm66.44,56.1a4.23,4.23,0,0,0-1.28-2.09,6.55,6.55,0,0,0-2.14-.79c-1.95-.08-3.37.66-3.92,1.87s.62,2.47,2.5,2.91a11.8,11.8,0,0,0,2.59.27C287.67,243.93,289,242.66,288.78,241.76ZM285.15,220c.45-.14.74-.75,1.11-1.16-.3-.47-.5-1.11-.93-1.37s-1.13,0-1.32.73C283.71,219.26,284.33,220.26,285.15,220Z"/><path class="a" d="M395.57,289.06a5.49,5.49,0,0,1-5.2.37,15.55,15.55,0,0,0-2.44-1.17c-.82-.21-2-.47-2.55-.07-2.86,2.15-6.1,2.3-9.45,2.24-8.44-.16-16.88-.3-25.33-.37-2.4,0-4.8.27-7.21.31a69.73,69.73,0,0,1-7.23-.12A10.75,10.75,0,0,1,326,280.4c-.21-2.09-.23-4.21-.24-6.32q0-55.66,0-111.33c0-3.61.22-7.23.46-10.83a10,10,0,0,1,9.16-9.6c5.38-.44,10.84-1.12,16.07,1.12a5.05,5.05,0,0,0,4.36-.13A13.89,13.89,0,0,1,362,142c9.05,0,18.1,0,27.15,0a21.81,21.81,0,0,1,3.6.33,10.11,10.11,0,0,1,8.31,10.33,10,10,0,0,1-8.26,9.45,42.77,42.77,0,0,1-6.3.45c-5.13.06-10.26,0-15.39,0v0c-5.43,0-10.86,0-16.29,0a24.11,24.11,0,0,0-4.47.51,3.16,3.16,0,0,0-2.5,2.34,13.81,13.81,0,0,0-.54,3.55c0,9.05,0,18.1,0,27.15a17.54,17.54,0,0,0,.34,2.68,3.91,3.91,0,0,0,3,3q3.14.38,6.3.53a7.3,7.3,0,0,1,4.94,1.82c3.44,3.13,7.2,2.18,11,.7,5.37-4.29,11.47-3.06,17.31-1.86,4.16.86,6.58,4.15,7.09,8.46A9.69,9.69,0,0,1,393,221a6.84,6.84,0,0,1-6,1.41,15.93,15.93,0,0,0-9.73.2c-1.95.61-4.17.42-6.28.45-4.83.05-9.66,0-14.48,0-1.51,0-3,0-4.52.16-3.07.24-4.88,2.15-4.88,5.4q0,17.19.21,34.39a17.12,17.12,0,0,0,.47,3.56,3.11,3.11,0,0,0,2.35,2.49,28.31,28.31,0,0,0,5.35.62c8.74.06,17.49,0,26.24,0,2.42,0,4.83,0,7.24.05a24.23,24.23,0,0,1,3.6.34,10.15,10.15,0,0,1,8.39,8.37A10,10,0,0,1,395.57,289.06Zm-54.21-84.22c-.09-.22-.11-.54-.27-.63a.73.73,0,0,0-.69.07c-.41.46-.25.85.41.94C341,205.24,341.17,205,341.36,204.84Zm28.27-49.68.63.11-.22-.72Zm2.22,57.61a1.65,1.65,0,0,0,2.27.62,4.15,4.15,0,0,0,1.95-3.15,5.92,5.92,0,0,0-1.22-1.85,1.85,1.85,0,0,0-2.39.37A3.16,3.16,0,0,0,371.85,212.77Z"/><path class="a" d="M628.7,249.14a5,5,0,0,0-1,2.47,3.67,3.67,0,0,0,1,2.24,1.83,1.83,0,0,0,1.69,0c1.27-.78,2.42-1.74,3.63-2.63a11.22,11.22,0,0,1,2.2-1.49c.32-.12,1.1.38,1.37.8a2.68,2.68,0,0,1,.32,1.72c-2.19,15.87-10.38,27.36-25.08,34a1.27,1.27,0,0,1-1.3-2.11c1.45-1.52,3.08-2.88,4.55-4.38a36.18,36.18,0,0,0,3.53-4.1,7,7,0,0,0,.74-2.52c.15-.71-1-1.92-1.63-1.8a8,8,0,0,0-2.6.58c-3.62,2.15-7.26,4.3-10.73,6.7-3.22,2.23-6.22,4.78-9.33,7.16a44.81,44.81,0,0,1-3.68,2.63,5.6,5.6,0,0,1-5.19.73,40.08,40.08,0,0,0-7.76-2.24c-4.54-.9-8.23-3.63-11.72-6.56-1.52-1.28-2.17-2.82-1.29-4.79a3.11,3.11,0,0,0,.33-1.72,2,2,0,0,0-.94-1.33,2.12,2.12,0,0,0-1.71,0,5.13,5.13,0,0,0-2,1.72c-3.25,5.86-8.64,9.17-14.37,12a38.76,38.76,0,0,1-19.3,4.06c-10.22-.55-19.6-3.57-27.31-10.57-8.61-7.82-13.77-17.47-14.68-29.18-.24-3-.16-6-.23-9,0-.6,0-1.21,0-1.81v-38c0-14.18,0-28.37,0-42.55a46.57,46.57,0,0,1,.48-8.11,10,10,0,0,1,15.5-6.42,9.1,9.1,0,0,1,4.2,6.69c.32,3.3.33,6.62.38,9.94.06,4.21,0,8.43,0,12.65,0,2.72.11,5.45-.14,8.14-.23,2.37-1.23,4.69-1.26,7,0,2,.94,4.07,1.3,6.13a19.84,19.84,0,0,1,.11,3.62c-.21,11.46.27,22.91-.38,34.38-.33,6,.6,12,1,18a33.79,33.79,0,0,1,.29,3.6,3.44,3.44,0,0,1-1.75,3c-2.11,1.15-4.34,2.11-6.39,3.37a21.08,21.08,0,0,0-3.32,3,1.8,1.8,0,0,0,0,2.41c.49.3,1.16.69,1.62.55,2-.58,4-1.29,5.94-2.05,1.4-.54,2.76-1.21,4.11-1.89,2.06-1,4-1.15,5.92.37a33.49,33.49,0,0,0,2.92,2.13,22.44,22.44,0,0,0,35-17.91c.16-3.92.2-7.85.22-11.77q.07-30.33.11-60.65c0-6.34-.2-12.67-.17-19a26.83,26.83,0,0,1,.7-6.26,9.92,9.92,0,0,1,18.65-1.31,3.42,3.42,0,0,1-1,4.05,32.4,32.4,0,0,0-3.91,2.22,8.72,8.72,0,0,0-2,2.89,2.69,2.69,0,0,0,1.18,3.11,15.15,15.15,0,0,0,3.41,1c2.59.35,3.5,1.71,3.58,4.33s.09,5.43.09,8.15q0,32.6,0,65.19c0,3-.08,6,.18,9a22.33,22.33,0,0,0,30.2,19.36c6.18-2.24,8.08-3.86,11.39-9.59a22.2,22.2,0,0,0,3-9.41c.21-2.71.29-5.43.3-8.14,0-12.07,0-24.15,0-36.22,0-4.82.47-9.63.5-14.45,0-5.41-.21-10.81-.29-16.22-.06-4.22-.09-8.44,0-12.66a5,5,0,0,1,2.74-4.38,48.5,48.5,0,0,0,5.38-3.31,8.49,8.49,0,0,0,2.1-2.85,1.93,1.93,0,0,0-.34-1.63c-.32-.43-1-.95-1.46-.86a40.67,40.67,0,0,0-4.25,1.41c-.92.32-1.81.36-2.4-.54a1.87,1.87,0,0,1,.85-2.27,42.82,42.82,0,0,0,8.21-3.44c.89-.45,2.39-.08,3.45.33a9.18,9.18,0,0,1,5.54,6.71,19.22,19.22,0,0,1,.44,4.49c0,7.84,0,15.69,0,23.54,0,2.78-.34,5.4-2.38,7.55a10.73,10.73,0,0,0-2.58,5.69,7.28,7.28,0,0,1-2.07,3.93c-.62.63-1.26,1.49-.71,2.32s1.49.33,2.35.09c2.09-.58,3.87.16,4.51,1.7a9.72,9.72,0,0,1,.64,1.67,7.75,7.75,0,0,1,.19,1.8q0,18.1,0,36.21a5,5,0,0,1-3.9,5.36A10.5,10.5,0,0,0,628.7,249.14ZM497.85,160.28a5.28,5.28,0,0,0,4.15-5.54,11.39,11.39,0,0,0-1-2.08,3.6,3.6,0,0,0-3.88-1.65,3.87,3.87,0,0,0-2.75,3.23,7.67,7.67,0,0,0,.53,4.41A3.1,3.1,0,0,0,497.85,160.28Zm15,108-.58-.24-.27.59c.19.08.44.27.55.21S512.8,268.43,512.9,268.23Zm48-31.52a3,3,0,0,0-.3-.81,3.36,3.36,0,0,0-3.87-1.05,2.18,2.18,0,0,0-.84,3.5,3,3,0,0,0,4.54-.08A4.67,4.67,0,0,0,560.87,236.71Zm64.27-59.83c-.38-.66-.52-1.33-.93-1.59a2.4,2.4,0,1,0-2.55,4.06A1.89,1.89,0,0,0,624,179,9.28,9.28,0,0,0,625.14,176.88Z"/><path class="a" d="M790.91,281.78a9.94,9.94,0,0,1-8.24,8.46,10,10,0,0,1-10.13-4.52,29.91,29.91,0,0,1-2.39-4.85c-2-5.05-3.91-10.12-5.7-15.24a15.36,15.36,0,0,0-2.43-4.79,5.58,5.58,0,0,0-3.78-2.23c-1.8-.17-3.61-.2-5.41-.28l-12.64-.53a17.51,17.51,0,0,0-2.7-.1c-9.93,1.12-19.88.43-29.82.63l-4.52.1a5.74,5.74,0,0,0-5.23,3c-1.75,3.14-3.54,6.21-4.48,9.8a101.19,101.19,0,0,1-4.4,11.85,15.92,15.92,0,0,1-1.77,3.14A10.07,10.07,0,0,1,676,289.87c-4.18-1.38-7-5.24-6.95-10.43a28,28,0,0,1,1-4.43c3.35-8.72,6.8-17.41,10.28-26.08a19.14,19.14,0,0,1,2.24-3.9,11.89,11.89,0,0,0,2.09-4.91,45.75,45.75,0,0,1,2.19-7.79q15.54-39.56,31.22-79.06a39.32,39.32,0,0,1,3.07-6.53c3.91-6.27,13.56-6.33,17.6-.18a22.33,22.33,0,0,1,2.06,4q7.54,18.9,15,37.83a16,16,0,0,1,1.27,7.95c-.23,2,.75,3.36,2.23,4.64a12.78,12.78,0,0,1,2.72,3.51c.86,1.57,1.26,3.4,2.13,5,2.94,5.3,2.91,11.57,6,16.94,3,5.16,4.89,11,7.17,16.55s4.49,11.19,6.62,16.83c1.58,4.2,3.87,8.19,3.67,12.94-.07,1.56,1.27,2.65,2.16,3.86A6.81,6.81,0,0,1,790.91,281.78ZM694.79,243.7a4.34,4.34,0,0,0-3.31-3.16c-1.5-.23-2.86,1.18-2.66,2.19a4.75,4.75,0,0,0,2.35,3.55,4.35,4.35,0,0,0,2.49.38C694.58,246.53,695.13,244.74,694.79,243.7Zm56.55-8.31a22.24,22.24,0,0,0-.71-3.58C747.8,224.2,745,216.6,742,209.05s-6.11-15.05-9.22-22.55a12.92,12.92,0,0,0-1.46-2.25,1.84,1.84,0,0,0-2.41,0,29.89,29.89,0,0,0-2.2,3.88q-7.29,18-14.47,36c-1.22,3.07-2.24,6.23-3.28,9.37-.64,1.93.09,3.46,2.37,4a9.14,9.14,0,0,1,5.1,3.36,2.85,2.85,0,0,0,4.05.39c2.83-2.84,6.35-3.21,10-3.31,4.51-.13,9-.08,13.54-.22a26.4,26.4,0,0,0,5.32-.64C750,237,750.6,236,751.34,235.39Zm-10.73,19.28c-.18-.54-.18-1.31-.56-1.58-1.81-1.37-3.82-1.78-5.86-.53a1.66,1.66,0,0,0-.58,1.5,4.46,4.46,0,0,0,6.09,2.06C740.14,255.89,740.32,255.16,740.61,254.67Z"/><path class="a" d="M910.66,155.68a42.25,42.25,0,0,1-3.33,7.4q-9.33,17.58-18.76,35.11-3.21,6-6.4,12c-4.71,8.84-4.4,7.6-4.42,18.05,0,11.16,0,22.32,0,33.48,0,3.3-.43,6.6-.58,9.9a44.51,44.51,0,0,0,.15,4.47c.07,1.2.31,2.4.29,3.59a10.53,10.53,0,0,1-21,1.24,47.46,47.46,0,0,1-.31-6.31c0-6.94,0-13.87,0-20.81h0c0-7.23,0-14.47,0-21.71a20.74,20.74,0,0,1,1.85-9.66,13.59,13.59,0,0,0,1.18-5.23c.29-5.11.41-10.23.53-15.36.07-2.76-2.23-4.12-5-3-1.11.43-1.74,2.11-1.06,3,.56.7,1.19,1.35,1.8,2,2.56,2.74,2.7,5.92,1.61,9.27a2.15,2.15,0,0,1-1.22,1.2,2.18,2.18,0,0,1-1.58-.33,3.84,3.84,0,0,1-1.19-1.34c-1.22-2.08-2.34-4.22-3.58-6.29a6.91,6.91,0,0,1-.39-6.86,2.27,2.27,0,0,0-2.07-3.2,4.8,4.8,0,0,1-4.41-2.57q-3.76-6.7-7.49-13.43c-3.5-6.33-7-12.66-10.44-19a31.1,31.1,0,0,1-2.51-5.78,10.08,10.08,0,0,1,16.84-9.71,12.45,12.45,0,0,1,3.59,6.18,11.81,11.81,0,0,0,2.95,5.44,35.38,35.38,0,0,1,3.93,6c4.26,7.63,8.43,15.32,12.69,23,.87,1.57,1.93,3,3,4.53a2.39,2.39,0,0,0,3.23,0c1-1.5,2.06-3,2.91-4.55,3.46-6.36,7-12.71,10.24-19.15,1.86-3.62,4-6.58,8.26-7.7,2.32-.6,3-2.68,2.33-5.13a22,22,0,0,1-.91-2.53,5.09,5.09,0,0,1,.31-2.63,10.08,10.08,0,0,1,19,6.54Z"/><path class="a" d="M120.78,314.65a9.3,9.3,0,0,1-7.31,9.1,36.76,36.76,0,0,1-5.85.51c-3.64.08-7.29,0-10.94.05-1.4,0-2.8.1-4.2.22-2.15.2-3.42,1.59-3.61,3.92-.09,1.11-.15,2.24-.16,3.36,0,2.52,0,5.05,0,7.57q0,22.32,0,44.62c0,2.24-.09,4.48-.2,6.72a2.23,2.23,0,0,1-2.73,2.33c-1.09-.24-2.15-.64-3.24-.84a7,7,0,0,0-6.2,1.91,11.91,11.91,0,0,0-4,9.77A4.39,4.39,0,0,0,75.8,408c.94.2,2.68-.43,3-1.15.72-1.82,1.31-3.7,2.09-5.49a6.17,6.17,0,0,1,4.32-3.67,2.53,2.53,0,0,1,3.15,1.92,26.77,26.77,0,0,1,.32,3.34q0,13-.06,26.09a42.56,42.56,0,0,1-.4,5.87,9.59,9.59,0,0,1-9.47,8,9.76,9.76,0,0,1-9.34-7.14,21.48,21.48,0,0,1-.57-4.15c-.1-2.52-.07-5.05-.07-7.57q0-43.79,0-87.55c0-2.8-.09-5.61-.26-8.41a3.82,3.82,0,0,0-3.92-3.6c-2.8-.14-5.61-.16-8.41-.2s-5.61,0-8.41-.08a21.57,21.57,0,0,1-4.16-.56A9.2,9.2,0,0,1,36.74,315c-.16-4.38,2.77-8.53,6.91-9.37a34,34,0,0,1,6.69-.56c9.54-.06,19.08,0,28.62,0,9.26,0,18.51,0,27.77,0a39.38,39.38,0,0,1,6.7.47A9.35,9.35,0,0,1,120.78,314.65Z"/><path class="a" d="M286.55,377.4c-1,23.8-13,44.77-37.46,57.67-17.2,9.06-35.37,10.06-53.83,3.77a18,18,0,0,1-3.74-1.84,1.47,1.47,0,0,1-.32-2.21c.45-.7,1.18-1.57.45-2.22-.48-.43-1.57-.34-2.35-.23-1.1.16-2.16.59-3.26.83a5.42,5.42,0,0,1-4-.71,40.9,40.9,0,0,1-4.24-2.74c-21.88-16.84-31.37-39-27.57-66.38,3.47-25,21.73-46.36,46-54.33a65.83,65.83,0,0,1,29-3.16c18,2.27,33.26,9.85,45,23.85C280.75,342.38,286.4,357.05,286.55,377.4Zm-121.61,6.09a20.62,20.62,0,0,0,2.43-1.77,17.63,17.63,0,0,0-2.68-1c-.33-.07-1,.4-1.16.78a1.61,1.61,0,0,0,.15,1.4C163.92,383.25,164.68,383.63,164.94,383.49ZM265.41,358a50.16,50.16,0,0,0-97.57,13c-.24,3.63-.16,7.29-.25,10.9l-.09,0c.63,1.81,1.26,3.63,1.9,5.44.81,2.32.64,4.32-1.36,6.1a6.63,6.63,0,0,0-1.47,2.88,1.55,1.55,0,0,0,.66,1.35,4,4,0,0,0,2.36.42c2.64-.67,4.32.44,5.62,2.56s2.62,4.32,4,6.39A13,13,0,0,0,182,410c2.89,2.21,5.84,4.37,8.91,6.34A50.15,50.15,0,0,0,265.41,358Zm-79.24,63.12a1.93,1.93,0,0,0-1.69,2.23,2.13,2.13,0,0,0,2.18,1.78,1.68,1.68,0,0,0,1.7-1.4A2.22,2.22,0,0,0,186.17,421.07ZM202.1,316c.07.34.75.55,1.14.82a1.5,1.5,0,0,0,1.09-1.81,1.38,1.38,0,0,0-1.13-.77A1.4,1.4,0,0,0,202.1,316ZM244,321.45a3.66,3.66,0,0,0,2.89-2.58,2.24,2.24,0,0,0-1.18-2.73,1.78,1.78,0,0,0-2.2.55,12.58,12.58,0,0,0-1.56,2.83C241.63,320.41,243,321.65,244,321.45Zm18.19,14a.75.75,0,0,0,.37.56c.57.19.9-.07.94-.67-.13-.2-.22-.51-.38-.57C262.58,334.59,262.22,334.86,262.23,335.44Zm12.67,50.05a2.71,2.71,0,0,0-3,2,2.59,2.59,0,0,0,1.8,3.14,3,3,0,0,0,3.08-2.06A2.48,2.48,0,0,0,274.9,385.49Zm2.48-28.74c-.26-.93-1.46-1.29-2.63-.75a.93.93,0,0,0-.54,1.35,1.7,1.7,0,0,0,1.83,1.12A1.59,1.59,0,0,0,277.38,356.75Z"/><path class="a" d="M464.3,342.16a37.51,37.51,0,0,1-30.13,37.43,56.08,56.08,0,0,1-10,.88c-9.54.12-19.07,0-28.61.06-2,0-3.92.11-5.87.26a3.74,3.74,0,0,0-3.41,3.18q-.28,3.34-.33,6.7a16.6,16.6,0,0,1-1.33,7.38,3,3,0,0,0-.1,2.38c1.37,2.61,1.41,5.39,1.41,8.2,0,7,0,14,0,21a33.81,33.81,0,0,1-.32,5,9.74,9.74,0,0,1-19.12.59,24.65,24.65,0,0,1-.46-5c-.05-7.57.15-15.15-.11-22.71-.12-3.2,1.27-6,1.53-9a16.9,16.9,0,0,1-1.46-8.18c.06-3.36-.06-6.73.05-10.1a21.25,21.25,0,0,1,.67-5.81,12.16,12.16,0,0,0-.16-8.18,14.7,14.7,0,0,1-.52-5q0-21.87,0-43.75a23.45,23.45,0,0,1,.37-4.18,10,10,0,0,1,8.64-8,54.66,54.66,0,0,1,5.87-.26c4.77,0,9.54,0,14.31,0v.17c5.88,0,11.77,0,17.66,0a4.16,4.16,0,0,1,4.33,3.24,6.28,6.28,0,0,0,1.94,2.61,3.41,3.41,0,0,0,5.09-.86c.48-1,.72-2.11,1.15-3.14a2.73,2.73,0,0,1,2.62-1.74,29.1,29.1,0,0,1,5,.26A37.75,37.75,0,0,1,464.3,342.16ZM379.46,396.5a1.85,1.85,0,0,0-1.64-1.62,4.62,4.62,0,0,0-1.54.18,6.46,6.46,0,0,0-3.75,5.87,2.48,2.48,0,0,0,2.15,2.07A5.72,5.72,0,0,0,379.46,396.5Zm65.45-53A18.2,18.2,0,0,0,430.8,325a27.27,27.27,0,0,0-5.84-.63c-10.94-.06-21.87,0-32.81,0a14.25,14.25,0,0,0-3.31.44A3,3,0,0,0,386.5,327a9.15,9.15,0,0,0-.47,2.46q0,13.45,0,26.92a9.62,9.62,0,0,0,.27,1.65,3.79,3.79,0,0,0,2.76,2.84,39.2,39.2,0,0,0,4.18.32c5.05,0,10.1,0,15.15,0,5.33,0,10.66,0,16,0a32.71,32.71,0,0,0,5.86-.47A18.23,18.23,0,0,0,444.91,343.47ZM400.08,310c0,.62.35.94,1,.8.18,0,.3-.37.44-.57,0-.63-.36-.94-1-.8A.76.76,0,0,0,400.08,310Zm57.19,43.32a9.2,9.2,0,0,0,.49-1.78,7.71,7.71,0,0,0-1.15-1.85,4,4,0,0,0-3.82-.93,6.66,6.66,0,0,0-3.51,10.49c1.45,1.75,3.63,1.62,4.72-.26S456.21,355.23,457.27,353.33Z"/><path class="a" d="M573.58,399.83a60.82,60.82,0,0,1-.88,10.88,40.1,40.1,0,0,1-75.83,8.94A39.2,39.2,0,0,1,493.28,405c-.12-2.52-.11-5-.12-7.58V322.5c0-2.25,0-4.5.11-6.74a14.26,14.26,0,0,1,.57-3.3,9.47,9.47,0,0,1,9.63-6.66,9.31,9.31,0,0,1,8.36,7.16,24.24,24.24,0,0,1,.5,4.16c.1,2,.06,3.93.06,5.9q0,33.25,0,66.52c0,2.53.36,5.16-.22,7.56-1.18,4.89-.86,9.42,1.73,13.75q.5,4.15,1,8.31a2.78,2.78,0,0,0,2.27,2.18c4.23.1,8.28,1.14,12.41,1.94,12.13,2.36,23.17-6,24.53-18.34a70.55,70.55,0,0,0,.23-7.56c0-13.2,0-26.39,0-39.58,0-2.25,0-4.5.07-6.74.11-3.08,1.08-4.46,4.54-4.87a38.64,38.64,0,0,0,4.11-.78,2.75,2.75,0,0,0,1.78-2.56c-.17-1.68-.37-3.35-.63-5a2.93,2.93,0,0,0-2.33-2.16c-1.39-.11-2.79-.06-4.19-.14a3.11,3.11,0,0,1-3.15-3.23c-.09-5.6-.14-11.22-.08-16.83a9.73,9.73,0,0,1,2.81-6.84,9.33,9.33,0,0,1,15.62,3.74,17.74,17.74,0,0,1,.68,5c0,10.1-.11,20.2-.16,30.31,0,4.48,0,9,0,13.44h.23C573.62,374,573.68,386.92,573.58,399.83Zm-52.27,31.34c-.31-.34-.55-.84-.93-1a1.1,1.1,0,0,0-1.53,1.2,1.77,1.77,0,0,0,.86,1.07C520.4,432.79,521.32,432,521.31,431.17Z"/><path class="a" d="M686.44,314.65a9.3,9.3,0,0,1-7.31,9.1,36.76,36.76,0,0,1-5.85.51c-3.64.08-7.29,0-10.94.05-1.4,0-2.8.1-4.2.22-2.15.2-3.42,1.59-3.61,3.92-.09,1.11-.15,2.24-.16,3.36,0,2.52,0,5.05,0,7.57q0,22.32,0,44.62c0,2.24-.09,4.48-.2,6.72a2.23,2.23,0,0,1-2.73,2.33c-1.09-.24-2.15-.64-3.24-.84a7,7,0,0,0-6.2,1.91,12,12,0,0,0-4.05,9.77,4.41,4.41,0,0,0,3.55,4.13c.94.2,2.68-.43,3-1.15.72-1.82,1.31-3.7,2.09-5.49a6.17,6.17,0,0,1,4.32-3.67,2.53,2.53,0,0,1,3.15,1.92,28.81,28.81,0,0,1,.32,3.34q0,13-.06,26.09a42.56,42.56,0,0,1-.4,5.87,9.59,9.59,0,0,1-9.48,8,9.75,9.75,0,0,1-9.33-7.14,20.73,20.73,0,0,1-.57-4.15c-.1-2.52-.07-5.05-.07-7.57q0-43.79,0-87.55c0-2.8-.08-5.61-.25-8.41a3.82,3.82,0,0,0-3.92-3.6c-2.8-.14-5.61-.16-8.41-.2s-5.61,0-8.42-.08a21.47,21.47,0,0,1-4.15-.56A9.2,9.2,0,0,1,602.4,315c-.16-4.38,2.77-8.53,6.91-9.37a33.92,33.92,0,0,1,6.68-.56c9.54-.06,19.08,0,28.62,0,9.26,0,18.52,0,27.78,0a39.38,39.38,0,0,1,6.7.47A9.35,9.35,0,0,1,686.44,314.65Z"/><path class="a" d="M766.79,351a9.38,9.38,0,0,0-.17-6.52,14.58,14.58,0,0,1-.77-4.93c-.08-7.55-.05-15.11,0-22.67a17.66,17.66,0,0,1,.51-4.15,9.75,9.75,0,0,1,10-7.24,9.64,9.64,0,0,1,8.87,7.65,34.5,34.5,0,0,1,.46,5.84c.06,5.6,0,11.2,0,16.79h0c0,5.88,0,11.76,0,17.64a11.79,11.79,0,0,1-.55,3.27,1.92,1.92,0,0,1-1.21,1,2.77,2.77,0,0,1-1.63-.14c-4.54-1.8-7.53.34-10,3.89-1.25,1.84-2.36,3.79-3.62,5.64a1.83,1.83,0,0,1-1.38.74,1.61,1.61,0,0,1-1.14-1C765.69,361.44,765.1,356.12,766.79,351Zm19,77.33a42.84,42.84,0,0,1-.42,6.7,9.66,9.66,0,0,1-9.54,7.91,9.77,9.77,0,0,1-9.37-7.08,16.15,16.15,0,0,1-.56-4.15c-.05-9.53,0-19.07,0-28.6,0-.56.06-1.12.11-1.68a4.86,4.86,0,0,1,2.41-4.19c2.7-1.37,3.21-3.54,3.11-6.27a89,89,0,0,1,.17-9.24,25.42,25.42,0,0,1,3-10.44,16.66,16.66,0,0,1,7.57-7.61c1.24-.57,3.17.29,3.27,1.57.15,2,.28,3.92.29,5.87,0,9.54,0,19.07,0,28.61S785.78,418.74,785.74,428.28Zm-11.45-77a2,2,0,0,0,1.45.46,5.87,5.87,0,0,0,4-2.56,4.35,4.35,0,0,0,.33-1.54c-.32-.4-.57-1.06-1-1.16a4.39,4.39,0,0,0-5.36,2.59A1.81,1.81,0,0,0,774.29,351.23Z"/><path class="a" d="M898.37,314.65a9.32,9.32,0,0,1-7.31,9.1,37,37,0,0,1-5.85.51c-3.65.08-7.3,0-11,.05-1.39,0-2.8.1-4.19.22-2.15.2-3.42,1.59-3.61,3.92-.09,1.11-.15,2.24-.16,3.36,0,2.52,0,5.05,0,7.57q0,22.32,0,44.62c0,2.24-.09,4.48-.21,6.72a2.22,2.22,0,0,1-2.72,2.33c-1.09-.24-2.15-.64-3.25-.84a7,7,0,0,0-6.2,1.91,12,12,0,0,0-4,9.77,4.41,4.41,0,0,0,3.54,4.13c.94.2,2.68-.43,3-1.15.71-1.82,1.3-3.7,2.08-5.49a6.21,6.21,0,0,1,4.32-3.67,2.53,2.53,0,0,1,3.15,1.92,26.77,26.77,0,0,1,.32,3.34q0,13-.06,26.09a42.56,42.56,0,0,1-.39,5.87,9.6,9.6,0,0,1-9.48,8,9.74,9.74,0,0,1-9.33-7.14,21.5,21.5,0,0,1-.58-4.15c-.1-2.52-.07-5.05-.07-7.57q0-43.79,0-87.55c0-2.8-.09-5.61-.26-8.41a3.8,3.8,0,0,0-3.91-3.6c-2.8-.14-5.61-.16-8.41-.2s-5.62,0-8.42-.08a21.47,21.47,0,0,1-4.15-.56,9.19,9.19,0,0,1-6.82-8.61c-.17-4.38,2.76-8.53,6.91-9.37a33.86,33.86,0,0,1,6.68-.56c9.54-.06,19.08,0,28.62,0,9.26,0,18.52,0,27.78,0a39.33,39.33,0,0,1,6.69.47A9.36,9.36,0,0,1,898.37,314.65Z"/></svg>